<svg xmlns="http://www.w3.org/2000/svg" xmlns:xlink="http://www.w3.org/1999/xlink" viewBox="0 0 3791 1423">
  <defs>
    <style>
      .cls-1 {
        fill: #fff;
      }

      .cls-2 {
        clip-path: url(#clip-path);
      }

      .cls-3 {
        fill: url(#linear-gradient);
      }

      .cls-4 {
        opacity: 0.5;
        fill: url(#linear-gradient-2);
      }

      .cls-5 {
        fill: url(#linear-gradient-5);
      }

      .cls-6 {
        opacity: 0.3;
      }

      .cls-7 {
        fill: #b97262;
      }

      .cls-8 {
        fill: #8cabef;
      }

      .cls-9 {
        fill: #2c2872;
      }

      .cls-10 {
        fill: #292949;
      }

      .cls-11 {
        fill: #3b3387;
      }

      .cls-12 {
        fill: #e6e6e6;
      }

      .cls-13 {
        fill: #babcbe;
      }

      .cls-14 {
        fill: #efbfa5;
      }

      .cls-15 {
        fill: #474ebb;
      }

      .cls-16 {
        fill: #8366d0;
      }

      .cls-17 {
        fill: #eed5d5;
      }

      .cls-18 {
        fill: #2f3789;
      }

      .cls-19 {
        fill: #6c4cbf;
      }

      .cls-20 {
        fill: #efbbbb;
      }

      .cls-21 {
        fill: #19196c;
      }

      .cls-22 {
        fill: #3e45b2;
      }

      .cls-23, .cls-28, .cls-29, .cls-30, .cls-31 {
        fill: none;
        stroke: #fff;
      }

      .cls-23 {
        stroke-width: 4px;
        stroke-dasharray: 12;
      }

      .cls-24 {
        fill: #4f56c9;
      }

      .cls-25 {
        fill: #54a7db;
      }

      .cls-26 {
        fill: #d9647a;
      }

      .cls-27 {
        fill: #4a62e3;
      }

      .cls-28, .cls-31 {
        stroke-linecap: round;
      }

      .cls-28, .cls-29, .cls-30, .cls-31 {
        stroke-miterlimit: 10;
        stroke-width: 3px;
      }

      .cls-30, .cls-31 {
        stroke-linejoin: round;
      }
    </style>
    <clipPath id="clip-path">
      <rect id="Rectangle_342" data-name="Rectangle 342" class="cls-1" width="3791" height="1423" transform="translate(-12974 -8234)"/>
    </clipPath>
    <linearGradient id="linear-gradient" x1="0.896" x2="0.072" y2="1" gradientUnits="objectBoundingBox">
      <stop offset="0" stop-color="#651374"/>
      <stop offset="1" stop-color="#021289"/>
    </linearGradient>
    <linearGradient id="linear-gradient-2" y1="0.5" x2="1" y2="0.5" gradientUnits="objectBoundingBox">
      <stop offset="0" stop-color="#76229b"/>
      <stop offset="1" stop-color="#021289"/>
    </linearGradient>
    <linearGradient id="linear-gradient-5" y1="0.5" x2="1" y2="0.5" gradientUnits="objectBoundingBox">
      <stop offset="0" stop-color="#811a9b"/>
      <stop offset="1" stop-color="#021289" stop-opacity="0"/>
    </linearGradient>
  </defs>
  <g id="Group_952" data-name="Group 952" transform="translate(12974 8381)">
    <g id="Mask_Group_22" data-name="Mask Group 22" class="cls-2" transform="translate(0 -147)">
      <g id="Group_950" data-name="Group 950">
        <rect id="Rectangle_330" data-name="Rectangle 330" class="cls-3" width="3791" height="1435" transform="translate(-12974 -8240)"/>
        <rect id="Rectangle_331" data-name="Rectangle 331" class="cls-4" width="897" height="136" rx="68" transform="translate(-10758.015 -7112.344) rotate(150)"/>
        <rect id="Rectangle_332" data-name="Rectangle 332" class="cls-4" width="975" height="136" rx="68" transform="translate(-11962.406 -8238.844) rotate(150)"/>
        <rect id="Rectangle_333" data-name="Rectangle 333" class="cls-4" width="1289" height="136" rx="68" transform="translate(-11810.015 -7432.344) rotate(150)"/>
        <rect id="Rectangle_334" data-name="Rectangle 334" class="cls-5" width="852" height="136" rx="68" transform="translate(-10884.928 -8288.344) rotate(150)"/>
      </g>
    </g>
    <g id="Group_951" data-name="Group 951" transform="translate(-10641.197 -8119)">
      <g id="Group_862" data-name="Group 862" class="cls-6" transform="translate(28.133 786.849)">
        <path id="Path_947" data-name="Path 947" class="cls-1" d="M627.585,467.6c-30.085.137-60.307.824-90.391,4.117-11.4,1.235-22.392,3.98-33.794,5.215-22.667,2.2-45.058,6.45-67.862,8.372-18.408,1.51-36.816,2.47-55.087,4.392a197.147,197.147,0,0,1-53.163-1.647c-12.638-2.2-25.277-3.568-37.64-7.137-13.875-4.117-28.986-7-43.41-6.862-20.606.137-40.662.137-60.444,7.274-6.869,2.47-15.386,6.587-20.606,11.94-12.089,12.077-13.6,42.27-1.648,54.759,20.194,21.135,63.466,29.369,91.765,29.781,31.046.412,61.268-1.921,92.452-3.294,28.986-1.235,57.7-3.019,86.682-3.019,59.208.137,118.278,0,177.349-3.98,55.5-3.706,111.135-2.47,166.771-2.47,57.01,0,113.607.412,170.205,8.1,24.727,3.294,49.729,4.529,74.594,6.725,22.254,2.059,43.547,0,65.664-1.921a159.981,159.981,0,0,0,53.85-14.41c13.325-6.45,37.091-26.213,41.212-41.447,11.539-42.819-161.825-41.721-188.339-41.584-29.81.137-59.757,1.1-89.43,0-12.5-.412-24.865-2.882-37.091-5.627-12.226-2.608-24.452-2.059-36.679-3.156-51.378-4.666-102.893-3.98-154.545-3.98C661.1,467.737,644.345,467.6,627.585,467.6Z" transform="translate(-155.309 -467.6)"/>
      </g>
      <g id="Group_863" data-name="Group 863" transform="translate(353.694 558.688)">
        <path id="Path_969" data-name="Path 969" class="cls-7" d="M531.411,361.741a5.91,5.91,0,0,1,1.1-3.294,2.1,2.1,0,0,1,3.022-.549c2.06,2.059,1.1,2.2,3.846,1.647,3.984-.686,7.281-5.352,10.578-1.784,3.16,3.568.549,4.941-2.747,6.587-2.61,1.235-5.495,2.333-7.418,4.392-1.236,1.372-5.083,7.548-5.083,9.332a2.017,2.017,0,0,1-.687.823,2.105,2.105,0,0,1-1.786-.274C525.5,374.23,530.587,368.191,531.411,361.741Z" transform="translate(-341.287 -280.839)"/>
        <path id="Path_970" data-name="Path 970" class="cls-8" d="M438.688,431.58c-6.044,10.567-13.463,21.135-15.111,33.212-.687,4.529-.275,9.607,2.885,12.763,3.16,3.294,8.105,3.843,12.5,4.117,6.869-19.488,13.6-38.839,20.468-58.327,3.434-9.607,6.731-19.214,10.166-28.82,2.61-7.274,9.341-19.076,8.792-26.625-9.067-.137-17.309,20.174-20.743,26.762C451.189,407.014,445.557,419.64,438.688,431.58Z" transform="translate(-380.717 -276.568)"/>
        <g id="Group_835" data-name="Group 835" transform="translate(18.9)">
          <path id="Path_971" data-name="Path 971" class="cls-9" d="M552.221,488.5c-1.1-10.018-6.182-17.979-15.386-22.233-7.556-3.568-15.935-4.392-24.178-5.352-18.271-2.333-35.854-4.666-54.262-3.98-14.836.549-23.9,13.175-30.772,25.664-4.4,7.823-3.159,11.528,2.335,18.116a66.1,66.1,0,0,0,18.133,15.1c13.6,7.685,34.481,5.764,49.454,4.117a113.082,113.082,0,0,0,40.525-12.352C546.04,503.32,553.458,498.242,552.221,488.5Z" transform="translate(-398.993 -243.457)"/>
          <path id="Path_972" data-name="Path 972" class="cls-10" d="M453.042,503.985c-2.473,5.764-4.533,11.665-6.457,17.567A33.885,33.885,0,0,0,444.8,531.3c.275,7.685,8.929,13.312,14.562,6.176a40.984,40.984,0,0,0,5.907-10.43c2.061-5.49-2.335-2.333-6.045-3.98-4.258-1.921-4.121-3.431-2.335-7.411,2.335-5.078,5.083-8.509,4.671-14.273-.137-1.647-.549-3.568-2.061-4.117a3.294,3.294,0,0,0-3.434.823,9.3,9.3,0,0,0-1.923,3.156C453.867,502.063,453.455,503.024,453.042,503.985Z" transform="translate(-391.579 -228.476)"/>
          <g id="Group_834" data-name="Group 834">
            <g id="Group_830" data-name="Group 830" transform="translate(0 84.419)">
              <g id="Group_829" data-name="Group 829">
                <path id="Path_973" data-name="Path 973" class="cls-8" d="M499.406,364.012c7.006-.961,14.012-2.2,19.919.412,4.946,2.2,4.808,8.372,5.907,13.175a466.132,466.132,0,0,1,8.517,47.211c.961,7.548,2.748,15.783,2.748,23.331,0,6.176-1.511,12.077-1.1,18.39.412,4.8,2.473,10.019,6.869,11.94,2.2.961,4.808,1.1,7.006,2.059s4.121,3.568,3.022,5.764a6.789,6.789,0,0,1-2.61,2.2c-5.495,3.019-10.99,6.176-16.485,9.2A93.562,93.562,0,0,1,520.286,504a66.889,66.889,0,0,1-20.056,3.431,164.539,164.539,0,0,1-52.339-5.764c-9.2-2.47-18-7-15.8-17.292,2.335-10.7,6.731-21.272,11.4-31.016,5.77-11.8,7.418-25.938,11.539-38.427,3.846-11.528,7.556-23.056,11.814-34.585,2.061-5.627,5.77-10.842,11.127-13.724C484.707,363.189,492.262,364.973,499.406,364.012Z" transform="translate(-396.455 -362.863)"/>
                <g id="Group_828" data-name="Group 828" transform="translate(0 118.524)">
                  <path id="Path_974" data-name="Path 974" class="cls-7" d="M497.336,507.54c1.648.137,3.16.137,4.808.274,1.786.137,3.709.137,4.945-1.1,1.511-1.372,1.374-4.117.137-5.764a9.7,9.7,0,0,0-5.358-3.156,55.873,55.873,0,0,0-15.111-2.2,5.152,5.152,0,0,0-1.511.137c-.824.275-1.237,1.235-1.511,2.059C480.851,506.579,491.154,507.265,497.336,507.54Z" transform="translate(-377.214 -431.955)"/>
                  <g id="Group_827" data-name="Group 827">
                    <path id="Path_975" data-name="Path 975" class="cls-7" d="M449.024,520.988a3.451,3.451,0,0,0,.137,2.059,4.181,4.181,0,0,0,1.1,1.1c3.3,2.059,7.693-.137,10.166-3.156s4.258-6.725,7.418-8.921c7.281-5.078.687-14.273-7.006-12.077C451.909,502.461,449.986,513.165,449.024,520.988Z" transform="translate(-390.034 -430.444)"/>
                    <g id="Group_826" data-name="Group 826">
                      <path id="Path_976" data-name="Path 976" class="cls-11" d="M545.285,492.284c6.319-4.666,12.638-9.881,14.974-17.7s-.962-18.8-9.066-23.331c-9.891-5.49-19.644,1.235-26.788,7.685-14.562,13.038-30.359,24.566-45.745,36.506-5.22,3.98-23.353,18.8-23.353,18.8-.549,2.059,9.2,21,11.814,20.312C495.282,527.006,522.619,508.89,545.285,492.284Z" transform="translate(-387.661 -449.225)"/>
                      <path id="Path_977" data-name="Path 977" class="cls-11" d="M421.776,499.163c-6.182-3.019-12.364-6.588-14.836-13.861s.275-19.076,7.968-25.664c9.341-8.1,18.82-3.843,25.826.686,14.287,9.332,29.81,16.743,44.921,24.7,5.083,2.745,22.941,12.9,22.941,12.9.549,1.921-8.242,23.468-10.715,23.331C470.681,520.984,443.893,509.868,421.776,499.163Z" transform="translate(-406.058 -447.046)"/>
                    </g>
                  </g>
                </g>
                <path id="Path_978" data-name="Path 978" class="cls-10" d="M487.487,510.328c5.632,2.745,11.539,5.215,17.446,7.411,3.16,1.1,6.319,2.2,9.754,2.2,7.83.137,13.875-8.372,7.006-14.41a41.2,41.2,0,0,0-10.166-6.45c-5.495-2.333-2.473,2.2-4.259,5.764-2.2,4.117-3.709,3.98-7.555,1.921-5.083-2.608-8.242-5.49-14.287-5.49-1.648,0-3.572.412-4.259,1.921a3.226,3.226,0,0,0,.687,3.431,9.1,9.1,0,0,0,3.022,2.059A13.7,13.7,0,0,0,487.487,510.328Z" transform="translate(-378.08 -312.376)"/>
              </g>
            </g>
            <g id="Group_833" data-name="Group 833" transform="translate(26.08)">
              <g id="Group_832" data-name="Group 832" transform="translate(43.63 14.999)">
                <g id="Group_831" data-name="Group 831" transform="translate(0 14.498)">
                  <path id="Path_979" data-name="Path 979" class="cls-7" d="M479.466,387.973l.824.824a11.8,11.8,0,0,0,4.808,1.647c2.2.412,4.533.824,6.594.275,7.006-2.059,3.846-13.861,3.022-18.8,4.533-1.647,9.753-4.254,10.44-9.47a15.9,15.9,0,0,0-.412-5.078c-1.236-6.862-2.473-13.861-3.572-20.723a19.869,19.869,0,0,0-2.061-6.862c-2.061-3.568-6.044-5.352-9.891-6.176-9.616-2.059-19.919,0-27.337,6.725a15.405,15.405,0,0,0-4.533,6.725c-1.236,4.117-.137,8.783.962,13.038.962,3.98,2.061,7.96,3.022,11.94,1.1,4.529,2.885,9.744,6.731,11.665,2.061.961,4.533.824,6.456,2.2C478.916,378.778,476.855,384.816,479.466,387.973Z" transform="translate(-456.802 -322.844)"/>
                </g>
                <path id="Path_980" data-name="Path 980" class="cls-10" d="M487.285,334.815a7.614,7.614,0,0,1,.824,1.1c1.236,1.921,1.1,4.529,2.335,6.45,1.786,3.157,6.182,4.392,7.556,7.823,1.1,2.745-.412,5.9.137,8.921.412,3.294,3.159,5.9,3.434,9.058a20.559,20.559,0,0,1-1.923,9.47c.412-.823,4.945-1.51,6.044-2.47,1.648-1.51,1.648-2.2,1.786-4.254s-.687-3.706-.137-5.9c.55-2.608,2.335-4.8,2.61-7.411.275-3.705-2.2-6.862-2.885-10.567-.824-5.49,2.747-11.528,0-16.332-1.649-2.882-4.945-4.117-7.143-6.588-1.648-1.784-2.61-4.117-3.984-6.313-1.374-2.059-3.3-3.98-5.77-4.254-1.374-.137-2.748.274-4.121.274-2.335,0-4.533-1.1-7.006-1.51-3.434-.412-8.242,3.843-9.616,6.862-1.236,3.019.137,5.078,2.473,7C475.883,329.737,483.85,330.835,487.285,334.815Z" transform="translate(-452.258 -312.28)"/>
              </g>
              <path id="Path_981" data-name="Path 981" class="cls-10" d="M449.262,328.5c-1.648,1.784-3.709,3.294-5.083,5.215-2.747,3.843-2.335,9.058-1.511,13.587.687,4.117-.275,8.1.962,12.352a10.98,10.98,0,0,0,5.358,6.725c3.3,1.51,7.968.961,10.028,3.98,2.2,3.294-.687,8.646,2.2,11.391,1.649,1.51,4.121,1.235,6.182,2.058,2.335.961,3.846,3.019,5.495,4.8s3.984,3.568,6.319,3.019c-.687-3.705-1.1-6.587-3.3-9.607-1.236-1.784-4.671-4.8-3.022-7.411.962-2.059,3.846-3.157,3.572-5.352-.137-1.1-1.1-1.784-1.786-2.47a12.5,12.5,0,0,1-3.16-11.254,16.286,16.286,0,0,1,6.456-10.018c3.709-2.882,2.885-3.706,3.3-7.96.412-3.843,2.335-5.215,5.358-7.274,2.747-1.784,3.572-2.745,4.121-5.764.412-2.2.824-4.8-.687-6.862a11.947,11.947,0,0,0-5.083-3.431c-3.846-1.921-8.242-3.843-12.364-2.745-2.335.686-4.259,2.2-6.594,2.745-1.511.412-3.16.412-4.808.686a12.615,12.615,0,0,0-7.281,3.843c-1.923,2.059-1.511,3.706-2.2,6.313A20.373,20.373,0,0,1,449.262,328.5Z" transform="translate(-418.686 -297.696)"/>
              <path id="Path_982" data-name="Path 982" class="cls-10" d="M466.883,315.279c-.137-2.607-1.1-5.9-3.709-6.313-1.374-.137-2.885.549-4.258.549-3.022,0-4.808-3.431-6.869-5.627a3.306,3.306,0,0,0-1.1-.823c-.687-.137-1.236.274-1.923.412-2.885.961-5.632-1.51-8.654-2.059a6.992,6.992,0,0,0-7.83,6.176c-.137,1.51.275,3.019.137,4.666-.412,6.176-8.517,10.43-7.556,16.606.687,4.117,5.495,7.274,4.671,11.391-.549,2.608-3.3,4.941-2.473,7.411a3.635,3.635,0,0,0,4.258,2.059,8.116,8.116,0,0,0,4.121-3.019c1.648-2.2,2.747-4.8,4.259-7s3.846-4.254,6.594-4.529c2.61-.137,5.358,1.372,7.83.412,1.923-.823,3.16-2.882,5.083-3.843,1.786-.823,3.846-.549,5.907-.823,1.923-.275,4.121-1.784,3.846-3.706a4.872,4.872,0,0,1-.275-1.372c.137-1.372,2.335-1.647,2.473-3.019-1.374-1.372-2.61-.549-3.846-2.47C466.883,319.122,467.02,316.926,466.883,315.279Z" transform="translate(-425.042 -301.351)"/>
            </g>
          </g>
        </g>
        <g id="Group_836" data-name="Group 836" transform="translate(0 142.66)">
          <path id="Path_983" data-name="Path 983" class="cls-12" d="M396.6,475.634,475.727,447.5l99.183,1.372-55.087,26.762Z" transform="translate(-390.693 -389.585)"/>
          <path id="Path_984" data-name="Path 984" class="cls-13" d="M398.207,484.35,392.3,406.81l122.537-1.51,6.594,82.893Z" transform="translate(-392.3 -405.3)"/>
          <path id="Path_985" data-name="Path 985" class="cls-13" d="M573.224,448.445c-17.721,7.823-35.442,15.783-53.164,23.605l-.137.137v-3.843H396.7v6.862H518.687a1.778,1.778,0,0,0,2.61,1.372c17.721-7.823,35.442-15.783,53.163-23.605C576.934,452.013,575.834,447.347,573.224,448.445Z" transform="translate(-390.656 -389.295)"/>
        </g>
        <path id="Path_986" data-name="Path 986" class="cls-8" d="M521.893,398.333a229.6,229.6,0,0,1,13.188-22.507c1.511-2.2,4.533-8.783,7.143-9.607,2.885-.961,9.616,2.47,12.363,3.568A445.918,445.918,0,0,1,537,424.546c-1.1,2.608-2.2,5.215-4.259,7.136-4.258,3.98-11.265,3.157-16.073-.137-4.671-3.294-7.693-8.509-10.441-13.587-4.945-8.783-10.578-18.253-12.913-28.134-1.374-6.176-6.456-16.606-.687-21.821,5.77-5.078,10.715-.549,14.149,4.529q4.121,6.176,7.83,12.763C515.712,386.805,522.718,396.961,521.893,398.333Z" transform="translate(-355.809 -277.357)"/>
      </g>
      <g id="Group_842" data-name="Group 842" transform="translate(621.022 440.135)">
        <g id="Group_838" data-name="Group 838" transform="translate(25.37 33.052)">
          <path id="Path_987" data-name="Path 987" class="cls-10" d="M611.731,256.96a56.268,56.268,0,0,0,12.089,9.2,96.1,96.1,0,0,1-8.929-25.115,2.345,2.345,0,0,0-.962-1.784,2.039,2.039,0,0,0-1.786,0C601.153,242.138,605.412,250.784,611.731,256.96Z" transform="translate(-605.368 -239.05)"/>
        </g>
        <path id="Path_988" data-name="Path 988" class="cls-14" d="M642.856,273.742a26.405,26.405,0,0,0,1.786-2.333c6.594-11.117,6.319-52.563-23.354-47.074-26.925,4.941-9.616,36.78,1.786,48.034a19.256,19.256,0,0,0,8.105,5.215c.824.274.55,8.646,1.374,9.881a6.2,6.2,0,0,0,7.693,2.059c2.2-.961,4.4-4.117,4.945-6.45C645.329,281.29,642.307,274.428,642.856,273.742Z" transform="translate(-579.39 -211.664)"/>
        <g id="Group_841" data-name="Group 841">
          <g id="Group_839" data-name="Group 839" transform="translate(52.529 5.121)">
            <path id="Path_989" data-name="Path 989" class="cls-10" d="M636.488,263.578c2.748,1.51,5.907-.961,7.693-3.294a30.054,30.054,0,0,0-.275-35.271c-6.457-8.372-21.705-9.47-18.271,3.156,1.236,4.529,6.456,8.921,8.1,13.724C636.076,248.756,636.213,256.442,636.488,263.578Z" transform="translate(-625.138 -218.699)"/>
          </g>
          <g id="Group_840" data-name="Group 840">
            <path id="Path_990" data-name="Path 990" class="cls-10" d="M599.264,228.05c-8.242,12.489-5.907,29.369-12.364,42.956a44.622,44.622,0,0,0,31.046-15.371c7.556-8.921,28.986-23.194,18.958-34.859C626.875,208.974,606.544,217.071,599.264,228.05Z" transform="translate(-586.9 -214.967)"/>
          </g>
        </g>
      </g>
      <g id="Group_846" data-name="Group 846" transform="translate(649.458 643.021)">
        <path id="Path_991" data-name="Path 991" class="cls-10" d="M638.86,507.9l-2.2,2.745-.962,2.882,6.594,9.881,6.182,2.333,7.006-.549s3.022-1.1,1.236-3.431-6.594-3.568-6.594-3.568l.687-8.1Z" transform="translate(-597.098 -308.764)"/>
        <path id="Path_992" data-name="Path 992" class="cls-10" d="M620.67,509.727l-.824,4.941-4.945,8.372,2.2,2.745,8.242-.686,4.945-7v-14l-9.341.961Z" transform="translate(-604.872 -310.18)"/>
        <g id="Group_845" data-name="Group 845">
          <g id="Group_843" data-name="Group 843" transform="translate(0 4.392)">
            <path id="Path_993" data-name="Path 993" class="cls-15" d="M612.408,366,607.6,392.625l13.737,170.452,14.424-3.019,23.765-188.294Z" transform="translate(-607.6 -366)"/>
          </g>
          <g id="Group_844" data-name="Group 844" transform="translate(38.739)">
            <path id="Path_994" data-name="Path 994" class="cls-15" d="M677.149,363.623,679.9,473.553l-27.887,94.7L635.8,562.21l13.6-84.54L636.9,362.8Z" transform="translate(-635.8 -362.8)"/>
          </g>
        </g>
      </g>
      <g id="Group_847" data-name="Group 847" transform="translate(639.684 504.387)">
        <path id="Path_995" data-name="Path 995" class="cls-16" d="M606.825,290.9c-2.61,5.627-3.022,11.94-3.984,18.8a308.824,308.824,0,0,0-2.335,35.545c-.137,13.861.412,27.585,1.511,41.447.55,6.862,1.237,13.724,1.923,20.586.412,3.568-1.237,12.626,2.748,14.547,2.2,1.1,4.671.823,7.143.549,21.293-2.2,42.723-4.529,64.016-6.725,3.434-.412,7.006-.824,9.891-2.333,5.358-2.882,4.4-8.646,5.22-13.587a103.265,103.265,0,0,0,1.236-19.488c-.275-13.312-2.335-26.625-3.3-39.937-1.1-14.273-3.3-33.487-8.792-47.211a45.851,45.851,0,0,0-10.578-15.508c-5.907-5.49-11.265-6.862-19.232-8.372a2.549,2.549,0,0,1-.962-.275,2.87,2.87,0,0,1-.549-.823c-.549-1.51-.962-3.019-1.511-4.666a2.25,2.25,0,0,0-.962-1.51,2.659,2.659,0,0,0-1.786,0c-5.358,1.235-10.578,2.47-15.935,3.568a11.385,11.385,0,0,1,.412,3.705,3.447,3.447,0,0,1-2.2,2.882c-5.495,1.921-11.127,6.176-15.523,10.018A25.443,25.443,0,0,0,606.825,290.9Z" transform="translate(-600.485 -261.785)"/>
      </g>
      <g id="Group_850" data-name="Group 850" transform="translate(683.145 479.736)">
        <g id="Group_849" data-name="Group 849">
          <path id="Path_996" data-name="Path 996" class="cls-10" d="M698.992,383.64l-65.115-18.8a2.426,2.426,0,0,1-1.649-3.019l33.519-116.242a2.429,2.429,0,0,1,3.022-1.647l65.115,18.665a2.425,2.425,0,0,1,1.649,3.019l-33.519,116.38A2.49,2.49,0,0,1,698.992,383.64Z" transform="translate(-632.122 -243.822)"/>
        </g>
        <rect id="Rectangle_290" data-name="Rectangle 290" class="cls-17" width="61.787" height="101.824" transform="translate(37.551 7.243) rotate(16.052)"/>
        <path id="Path_997" data-name="Path 997" class="cls-1" d="M666.444,339.028l-12.638-3.706a1.682,1.682,0,0,1-1.1-1.921l.687-2.2a1.685,1.685,0,0,1,1.923-1.1l12.638,3.705a1.682,1.682,0,0,1,1.1,1.921l-.687,2.2A1.466,1.466,0,0,1,666.444,339.028Z" transform="translate(-624.438 -211.699)"/>
      </g>
      <path id="Path_998" data-name="Path 998" class="cls-18" d="M699.12,338.805c-1.648,1.372-4.121,2.059-6.045,1.1-1.511-.686-2.335-2.2-3.159-3.706a38.286,38.286,0,0,1-2.747-7.548c-1.511-6.588,3.984-13.587,10.715-9.058C703.791,323.709,704.752,334.413,699.12,338.805Z" transform="translate(71.501 263.593)"/>
      <path id="Path_999" data-name="Path 999" class="cls-14" d="M684.638,338.092c-1.648-.549-3.571-1.51-4.258-3.294a11.44,11.44,0,0,1,.412-6.45c.687-1.921,2.61-1.51,4.121-1.1a7.779,7.779,0,0,0,4.259.686c-.137-1.921-2.2-2.47-2.336-4.255a4.435,4.435,0,0,1,.412-2.333c.137-.274.275-.549.412-.549a.5.5,0,0,1,.412.137c3.434,1.784,7.006,1.235,10.166,3.98,3.3,2.882,3.434,7.137.275,10.293-3.3,3.431-8.929,4.254-13.188,3.156C685.05,338.23,684.913,338.23,684.638,338.092Z" transform="translate(68.949 264.58)"/>
      <path id="Path_1000" data-name="Path 1000" class="cls-14" d="M646.081,346.558c2.061,1.372,4.4,2.47,6.731,3.706a6.9,6.9,0,0,0,1.786.686,6.053,6.053,0,0,0,2.2-.275c1.1-.274,2.2-.549,3.159-.823a4.621,4.621,0,0,0,1.923-.686c1.511-.961,2.061-2.745,2.61-4.529a3.02,3.02,0,0,0,.137-1.1,1.668,1.668,0,0,0-1.374-1.1c-1.923-.137-2.473.137-4.4-.823a20.392,20.392,0,0,1-4.671-2.882c.549-.549,1.511-.549,2.335-.823a2.27,2.27,0,0,0,1.786-1.1c.275-.961-.687-1.784-1.648-2.059-1.923-.549-3.846-.137-5.77-.137-2.885,0-7.556-2.059-9.479.412-1.1,1.51-1.786,3.843-2.61,5.49l4.945,4.117A10.248,10.248,0,0,0,646.081,346.558Z" transform="translate(53.519 269.427)"/>
      <path id="Path_1001" data-name="Path 1001" class="cls-19" d="M607.3,290.608c1.649-2.47,3.435-4.8,5.22-7.274,3.984-5.215,9.341-12.489,16.485-10.979,8.105,1.647,9.067,9.744,7.143,16.194-2.061,7.411-17.446,27.585-19.644,35,0,0,30.085,20.037,48.08,32.114-1.236,2.47-2.061,7.411-4.808,8.921-6.182,3.431-27.063-7.686-32.832-10.156a156.912,156.912,0,0,1-37.915-22.919,5.945,5.945,0,0,1-2.2-2.745c-.412-1.372.275-2.882.824-4.255A244.592,244.592,0,0,1,607.3,290.608Z" transform="translate(34.051 246.464)"/>
      <g id="XMLID_15_" transform="translate(920.499 421.961)">
        <path id="Path_936" data-name="Path 936" class="cls-20" d="M1008,228.236l.824-13.861,5.907-.275,1.511,9.47,2.885-1.51-2.2,11.94-6.182,1.235Z" transform="translate(-1008 -214.1)"/>
      </g>
      <g id="XMLID_14_" transform="translate(920.225 435.136)">
        <path id="Path_937" data-name="Path 937" class="cls-8" d="M1085.828,279.831l-44.234-3.843-21.7-52.289-12.089,3.98,11.4,72.188,69.1,12.489Z" transform="translate(-1007.8 -223.7)"/>
      </g>
      <g id="XMLID_12_" transform="translate(929.291 628.645)">
        <path id="Path_938" data-name="Path 938" class="cls-21" d="M1078,373.072v20.037l-26.788,87.01,6.731,90.3-16.759,3.431L1014.4,463.376l.961-32.389,12.364-66.287Z" transform="translate(-1014.4 -364.7)"/>
      </g>
      <g id="XMLID_11_" transform="translate(971.602 644.016)">
        <path id="Path_939" data-name="Path 939" class="cls-21" d="M1045.2,392.643l26.925,184.039h12.226l7.693-100.323L1108.8,375.9Z" transform="translate(-1045.2 -375.9)"/>
      </g>
      <g id="XMLID_10_" transform="translate(945.501 833.819)">
        <path id="Path_940" data-name="Path 940" class="cls-8" d="M1038.976,516.4,1026.2,529.983l3.572,6.862,26.376-12.626-4.808-10.019Z" transform="translate(-1026.2 -514.2)"/>
      </g>
      <g id="XMLID_9_" transform="translate(983.004 842.191)">
        <path id="Path_941" data-name="Path 941" class="cls-8" d="M1069.3,520.3l-15.8,9.881,1.924,7.548,28.711-5.627-2.336-10.842Z" transform="translate(-1053.5 -520.3)"/>
      </g>
      <g id="XMLID_6_" transform="translate(979.57 413.041)">
        <g id="XMLID_8_" transform="translate(1.49 23.743)">
          <path id="Path_942" data-name="Path 942" class="cls-20" d="M1064.057,224.9c7.418,7.96,21.018,8.1,27.337,17.018,4.121,5.764,4.121,14,.961,20.586-1.511,3.019-3.571,5.9-6.456,7.548a16.467,16.467,0,0,1-6.182,2.059,25.27,25.27,0,0,1-8.517-.275,47.027,47.027,0,0,0-.687,7.686c-4.945-1.921-11.539-.275-16.622-2.333,1.1-2.882,3.847-9.332,4.945-12.214a18.233,18.233,0,0,1-2.884-3.568,25.8,25.8,0,0,1-.412-26.487A49.834,49.834,0,0,1,1064.057,224.9Z" transform="translate(-1052.084 -224.9)"/>
        </g>
        <g id="XMLID_7_">
          <path id="Path_943" data-name="Path 943" class="cls-10" d="M1064.325,235.6l27.475,19.625-12.5,23.331,12.089.823,24.59-34.173-34.206-32.663-23.353-4.941L1051,217.07l5.22,21.409Z" transform="translate(-1051 -207.6)"/>
        </g>
      </g>
      <path id="Path_969-2" data-name="Path 969" class="cls-8" d="M1053.773,263.18l39.975-3.98s32.146,37.329,47.668,91.951c15.661,54.622-19.095,131.2-19.095,131.2s-107.838-21.958-125.422-25.39l34.893-109.243Z" transform="translate(-91.648 224.656)"/>
      <g id="Group_865" data-name="Group 865" transform="translate(116.78 423.152)">
        <g id="XMLID_41_" transform="translate(79.539 0)">
          <g id="XMLID_43_" transform="translate(70.884)">
            <path id="Path_911" data-name="Path 911" class="cls-20" d="M120.49,223.638,118.567,210.6l-5.632.137-.687,9.2-2.747-1.1,3.022,10.979,5.907.686Z" transform="translate(-109.5 -210.6)"/>
          </g>
          <g id="XMLID_42_" transform="translate(0 13.175)">
            <path id="Path_912" data-name="Path 912" class="cls-8" d="M57.9,284.428l60.169-11.8L128.51,220.2l11.814,2.745-3.434,72.875L76.857,315.856Z" transform="translate(-57.9 -220.2)"/>
          </g>
        </g>
        <g id="XMLID_20_" transform="translate(6.368 1.689)">
          <g id="XMLID_40_" transform="translate(0 69.951)">
            <path id="Path_913" data-name="Path 913" class="cls-8" d="M42.639,379.866c2.061-10.43,3.709-20.037,3.846-25.252.412-15.645,2.473-67.522,2.473-67.522l9.753-19.9h1.374a15.16,15.16,0,0,0-.137-4.392c-17.034.961-34.481,9.881-39.289,26.487a21.862,21.862,0,0,0-.824,4.117c-.687,8.509,1.923,14.822-.549,23.331a214.876,214.876,0,0,0-5.495,22.507C11.73,350.222,9.807,361.2,8.3,372.043a322.822,322.822,0,0,0-3.16,36.094c0,1.372-.275,5.078-.412,9.469-.275,9.2-.137,21.684,3.846,22.1a3.88,3.88,0,0,0,2.061-.549c5.083-2.47,8.929-5.627,13.463-8.372l.275-48.309Z" transform="translate(-4.636 -262.8)"/>
          </g>
          <g id="XMLID_39_" transform="translate(66.44 70.774)">
            <path id="Path_914" data-name="Path 914" class="cls-8" d="M114.268,429.323c-.962-10.293-2.061-20.586-3.3-30.742-2.473-20.449-5.907-40.9-11.814-60.66-2.2-7.548-4.808-14.959-7.281-22.507-3.16-9.058-6.182-18.116-9.341-27.174-3.846-11.254-10.44-19.214-21.842-23.194a49.415,49.415,0,0,0-6.457-1.647c0,.274-.137.412-.137.686a5.349,5.349,0,0,1-1.1,3.019l7.556.137s21.155,74.11,21.98,86.873c.275,4.8,1.236,15.508,2.335,26.625l11.539,1.647.55,42.682c.687.137,1.236.412,1.923.549,3.709.961,6.594,3.568,9.616,5.764C112.895,434.4,114.818,435.5,114.268,429.323Z" transform="translate(-53 -263.4)"/>
          </g>
          <g id="XMLID_38_" transform="translate(68.363 225.852)">
            <path id="Path_915" data-name="Path 915" class="cls-8" d="M65.252,376.538c-.824,0-1.648.137-2.61.137L54.4,455.863l8.929,115.282h.137v-1.784H78.3l18.82-128.32-.687-58.19c-8.929-2.607-18.683-6.588-28.024-6.45C67.176,376.4,66.214,376.538,65.252,376.538Z" transform="translate(-54.4 -376.398)"/>
          </g>
          <g id="XMLID_37_" transform="translate(79.078 187.977)">
            <path id="Path_916" data-name="Path 916" class="cls-8" d="M81.295,348.8C83.081,366.5,85,385.58,85,385.58s-9.341.275-22.8,1.235h3.022c9.341-.137,19.095,3.843,28.024,6.45L92.7,350.584Z" transform="translate(-62.2 -348.8)"/>
          </g>
          <g id="XMLID_36_" transform="translate(77.292 418.953)">
            <path id="Path_917" data-name="Path 917" class="cls-10" d="M60.9,518.747v6.176l15.935,7.96,7.83-7.96-7.83-7.823h-1.1l-.275,1.647Z" transform="translate(-60.9 -517.1)"/>
          </g>
          <g id="XMLID_35_" transform="translate(77.292 418.953)">
            <path id="Path_918" data-name="Path 918" class="cls-10" d="M60.9,518.747H75.462l.275-1.647H60.9Z" transform="translate(-60.9 -517.1)"/>
          </g>
          <g id="XMLID_34_" transform="translate(19.458 228.189)">
            <path id="Path_919" data-name="Path 919" class="cls-8" d="M55.341,378.1c-.412,0-.687.137-1.1.137a134.36,134.36,0,0,1-19.507,3.019,58.117,58.117,0,0,0-10.99,3.98c-1.786.823-3.3,1.784-4.945,2.745V398l18,170.864h14.7v1.784h.137l16.21-114.6v-.686l-.412-4.8Z" transform="translate(-18.8 -378.1)"/>
          </g>
          <g id="XMLID_33_" transform="translate(19.321 187.017)">
            <path id="Path_920" data-name="Path 920" class="cls-8" d="M34.773,392.429c-6.457.275-7.281-.823-7.281-.823s5.77-23.194,9.891-43.505l-18.408,2.745L18.7,399.153a42.125,42.125,0,0,1,4.945-2.745A53.808,53.808,0,0,1,34.773,392.429Z" transform="translate(-18.7 -348.1)"/>
          </g>
          <g id="XMLID_32_" transform="translate(55.999 226.267)">
            <path id="Path_921" data-name="Path 921" class="cls-8" d="M45.4,378.621l12.089,72.463.412,4.8L66.143,376.7C59.824,377.112,52.681,377.8,45.4,378.621Z" transform="translate(-45.4 -376.7)"/>
          </g>
          <g id="XMLID_31_" transform="translate(28.25 418.953)">
            <path id="Path_922" data-name="Path 922" class="cls-10" d="M34.267,517.1h-1.1L25.2,524.923l7.968,7.96,15.8-7.96v-6.176H34.4Z" transform="translate(-25.2 -517.1)"/>
          </g>
          <g id="XMLID_30_" transform="translate(37.317 418.953)">
            <path id="Path_923" data-name="Path 923" class="cls-10" d="M31.8,517.1l.137,1.647H46.5V517.1Z" transform="translate(-31.8 -517.1)"/>
          </g>
          <g id="Group_800" data-name="Group 800" transform="translate(28.113 74.205)">
            <path id="Path_924" data-name="Path 924" class="cls-1" d="M95.16,379.672c-1.1-11.116-2.061-21.821-2.335-26.625-.824-12.763-21.98-86.873-21.98-86.873l-7.556-.137-.275.275c-.275.137-.549.412-.824.412a4.528,4.528,0,0,1-1.923,0l-7.418-.823H51.064L41.31,285.663s-2.061,51.877-2.473,67.522c-.137,5.215-1.786,14.822-3.846,25.252C30.87,398.611,25.1,421.942,25.1,421.942s.824,1.235,7.281.823a134.345,134.345,0,0,0,19.507-3.019c.412,0,.687-.137,1.1-.137,7.418-.823,14.424-1.51,20.743-2.059.824,0,1.648-.137,2.61-.137,13.463-.961,22.8-1.235,22.8-1.235S96.946,397.376,95.16,379.672Z" transform="translate(-25.1 -265.9)"/>
          </g>
          <g id="XMLID_29_" transform="translate(44.46 32.999)">
            <path id="Path_925" data-name="Path 925" class="cls-20" d="M60.079,273.513c.962-4.117,5.632-6.039,8.105-9.744a32.3,32.3,0,0,0,4.945-14.136v-.274c-.412.137-.687.412-1.1.549-.549-2.059.412-3.98.962-6.039a6.149,6.149,0,0,0,.137-1.51,37,37,0,0,1-9.753-3.157c-5.495-2.333-16.073-4.941-21.842-2.059-4.533,2.2-3.16,9.332-2.885,13.861a14.369,14.369,0,0,1-.137,3.431A11.555,11.555,0,0,1,37,257.319a14.286,14.286,0,0,0,2.61,4.941c3.572,4.117,7.281,6.039,8.242,10.567A59.27,59.27,0,0,1,60.079,273.513Z" transform="translate(-37 -235.875)"/>
          </g>
          <g id="XMLID_28_" transform="translate(55.312 69.983)">
            <path id="Path_926" data-name="Path 926" class="cls-20" d="M45.037,267.183h.412l10.44.137a5.752,5.752,0,0,0,1.1-3.019,5.943,5.943,0,0,1,.137-.686,51.877,51.877,0,0,0-12.226-.686A10.669,10.669,0,0,1,45.037,267.183Z" transform="translate(-44.9 -262.823)"/>
          </g>
          <g id="XMLID_27_" transform="translate(55.862 74.48)">
            <path id="Path_927" data-name="Path 927" class="cls-20" d="M52.718,266.924a4.531,4.531,0,0,0,1.923,0l.824-.412.275-.275L45.3,266.1C47.773,266.237,50.245,266.649,52.718,266.924Z" transform="translate(-45.3 -266.1)"/>
          </g>
          <g id="XMLID_26_" transform="translate(80.589 39.483)">
            <path id="Path_928" data-name="Path 928" class="cls-10" d="M63.437,240.6a19.978,19.978,0,0,1-.137,7c2.473-1.372,4.121-3.98,5.22-6.862A15.907,15.907,0,0,1,63.437,240.6Z" transform="translate(-63.3 -240.6)"/>
          </g>
          <g id="XMLID_25_" transform="translate(79.252 39.483)">
            <path id="Path_929" data-name="Path 929" class="cls-10" d="M63.8,240.6h-.275a5.142,5.142,0,0,1-.137,1.51c-.412,2.059-1.374,3.98-.962,6.039a2.763,2.763,0,0,0,1.1-.549A17.106,17.106,0,0,0,63.8,240.6Z" transform="translate(-62.327 -240.6)"/>
          </g>
          <g id="XMLID_24_" transform="translate(31.541)">
            <path id="Path_930" data-name="Path 930" class="cls-10" d="M40.24,252.549a13.516,13.516,0,0,1,.962-5.215c1.374-2.882,4.4-4.392,7.418-5.352,7.556-2.333,16.347-1.784,23.079,2.47a11.616,11.616,0,0,1,4.4,4.529,6.689,6.689,0,0,1,.412.961c-.412-2.2-1.511-4.392-1.1-5.9.549-2.333,3.709-2.745,5.358-1.51a5.718,5.718,0,0,1,2.061,4.117A10.819,10.819,0,0,1,82,251.314a.479.479,0,0,1-.137.275,10.922,10.922,0,0,0,3.022-.824c4.808-2.059,8.655-10.43,8.517-15.645a7.242,7.242,0,0,0-3.16-6.039c-1.923-1.235-3.984-2.333-5.083-4.254-.824-1.51-.962-3.431-1.923-5.078-1.511-2.745-4.945-3.568-7.968-4.529-7.418-2.333-11.4-5.078-19.232-2.059-5.632,2.2-12.776,2.47-18,5.627a18.433,18.433,0,0,0-5.495,5.764c-5.22,8.234-6.457,19.763-3.022,28.272a48.766,48.766,0,0,0,2.747,5.352c2.061,3.431,4.259,7.548,7.968,9.2a2.583,2.583,0,0,1,.275-1.1C39.278,262.019,40.1,257.078,40.24,252.549Z" transform="translate(-27.595 -211.831)"/>
          </g>
          <g id="XMLID_23_" transform="translate(43.652 28.725)">
            <path id="Path_931" data-name="Path 931" class="cls-10" d="M38.731,252.165c-.275-4.529-1.648-11.528,2.885-13.861,5.632-2.882,16.347-.274,21.842,2.059a50.9,50.9,0,0,0,9.753,3.157c0-.412-.137-.961-.137-1.372a6.688,6.688,0,0,1-.412-.961,12.616,12.616,0,0,0-4.4-4.529c-6.731-4.254-15.386-4.941-23.079-2.47-3.022.961-6.044,2.47-7.418,5.352a16.689,16.689,0,0,0-.962,5.215c-.137,4.529-.962,9.47.275,13.724a19.076,19.076,0,0,0,1.511-2.882A9.621,9.621,0,0,0,38.731,252.165Z" transform="translate(-36.412 -232.761)"/>
          </g>
          <g id="XMLID_22_" transform="translate(79.124 29.882)">
            <path id="Path_932" data-name="Path 932" class="cls-10" d="M69.743,238.4a5.718,5.718,0,0,0-2.061-4.117c-1.786-1.235-4.945-.823-5.358,1.51-.412,1.647.687,3.706,1.1,5.9.137.412.275.961.412,1.372a21.456,21.456,0,0,0,5.083.274.479.479,0,0,1,.137-.274A10.433,10.433,0,0,0,69.743,238.4Z" transform="translate(-62.234 -233.604)"/>
          </g>
          <g id="XMLID_21_" transform="translate(80.314 38.111)">
            <path id="Path_933" data-name="Path 933" class="cls-10" d="M63.1,239.6a4.664,4.664,0,0,1,.137,1.372h.275C63.375,240.561,63.237,240.012,63.1,239.6Z" transform="translate(-63.1 -239.6)"/>
          </g>
        </g>
        <g id="XMLID_19_" transform="translate(69.575 74.016)">
          <ellipse id="Ellipse_43" data-name="Ellipse 43" class="cls-22" cx="53.4" cy="53.447" rx="53.4" ry="53.447" transform="matrix(0.226, -0.974, 0.974, 0.226, 0, 104.045)"/>
        </g>
        <g id="XMLID_16_" transform="translate(0 78.639)">
          <g id="XMLID_18_" transform="translate(68.412 66.15)">
            <path id="Path_934" data-name="Path 934" class="cls-20" d="M49.8,323.374l8.38-.549,4.945-5.627,1.648.412-.412,2.059,5.358-3.568,5.22.549,3.434,6.039-1.1,7.137-6.319,2.745-8.242-.961-11.539,1.235Z" transform="translate(-49.8 -316.1)"/>
          </g>
          <g id="XMLID_17_">
            <path id="Path_935" data-name="Path 935" class="cls-8" d="M72.808,337.344l-46.02,1.1L36.129,267.9,4.671,298.779,0,363.968l16.9,9.2,62.917-20.037Z" transform="translate(0 -267.9)"/>
          </g>
        </g>
      </g>
      <path id="Path_970-2" data-name="Path 970" class="cls-23" d="M-14706.671-4482.975l236.514,190.77,186.189-318.576,262.377,242.637-448.566,75.939" transform="translate(14883.196 4710.487)"/>
      <path id="Path_971-2" data-name="Path 971" class="cls-23" d="M-14656.515-4492.457l376.967-120.379" transform="translate(14883.196 4710.489)"/>
      <g id="XMLID_46_" transform="translate(337.409 342.187)">
        <path id="Path_910" data-name="Path 910" class="cls-24" d="M350.6,183.094A75.915,75.915,0,0,1,426.567,107.2c41.9,0,79.814,33.9,79.814,75.894,0,41.858-37.915,75.894-79.814,75.894A75.915,75.915,0,0,1,350.6,183.094Z" transform="translate(-350.6 -107.2)"/>
      </g>
      <g id="Group_866" data-name="Group 866" transform="translate(883.272 448.449)">
        <g id="XMLID_4_">
          <path id="Path_944" data-name="Path 944" class="cls-20" d="M986.12,249.32,980.9,235.87l5.632-2.47,5.632,8.372,2.061-2.333,3.023,11.94-5.5,3.431Z" transform="translate(-980.9 -233.4)"/>
        </g>
        <g id="XMLID_3_" transform="translate(6.182 13.587)">
          <path id="Path_945" data-name="Path 945" class="cls-8" d="M1103.678,289.138l-59.208,5.49L995.978,243.3,985.4,250.574l39.014,67.8,79.264,13.175Z" transform="translate(-985.4 -243.3)"/>
        </g>
      </g>
      <g id="XMLID_45_" transform="translate(749.036 218.084)">
        <ellipse id="Ellipse_41" data-name="Ellipse 41" class="cls-25" cx="113.206" cy="113.097" rx="113.206" ry="113.097" transform="translate(0 0)"/>
      </g>
      <g id="XMLID_47_" transform="translate(499.236 0)">
        <ellipse id="Ellipse_40" data-name="Ellipse 40" class="cls-26" cx="109.22" cy="109.115" rx="109.22" ry="109.115"/>
      </g>
      <g id="XMLID_44_" transform="translate(0 77.293)">
        <circle id="Ellipse_42" data-name="Ellipse 42" class="cls-27" cx="96.279" cy="96.279" r="96.279" transform="translate(0 136.158) rotate(-45)"/>
      </g>
      <g id="Group_867" data-name="Group 867" transform="translate(373.826 376.849)">
        <line id="Line_47" data-name="Line 47" class="cls-28" x2="5.641" transform="translate(28.207 26.302)"/>
        <line id="Line_48" data-name="Line 48" class="cls-28" x2="20.685" transform="translate(41.371 26.302)"/>
        <line id="Line_49" data-name="Line 49" class="cls-28" x2="3.761" transform="translate(67.698 26.302)"/>
        <line id="Line_50" data-name="Line 50" class="cls-28" x2="7.522" transform="translate(28.207 33.816)"/>
        <line id="Line_51" data-name="Line 51" class="cls-28" x2="5.641" transform="translate(43.252 33.816)"/>
        <line id="Line_52" data-name="Line 52" class="cls-28" x2="16.924" transform="translate(54.534 33.816)"/>
        <line id="Line_53" data-name="Line 53" class="cls-28" x2="15.044" transform="translate(28.207 41.331)"/>
        <line id="Line_54" data-name="Line 54" class="cls-28" x2="1.88" transform="translate(50.773 41.331)"/>
        <line id="Line_55" data-name="Line 55" class="cls-28" x2="1.88" transform="translate(58.295 41.331)"/>
        <line id="Line_56" data-name="Line 56" class="cls-28" x2="5.641" transform="translate(28.207 48.846)"/>
        <line id="Line_57" data-name="Line 57" class="cls-28" x2="3.761" transform="translate(41.371 48.846)"/>
        <line id="Line_58" data-name="Line 58" class="cls-28" x2="16.924" transform="translate(50.773 48.846)"/>
        <line id="Line_59" data-name="Line 59" class="cls-28" x2="1.88" transform="translate(28.207 56.361)"/>
        <line id="Line_60" data-name="Line 60" class="cls-28" x2="11.283" transform="translate(37.609 56.361)"/>
        <line id="Line_61" data-name="Line 61" class="cls-28" x2="18.805" transform="translate(54.534 56.361)"/>
        <line id="Line_62" data-name="Line 62" class="cls-28" x2="16.924" transform="translate(28.207 63.875)"/>
        <line id="Line_63" data-name="Line 63" class="cls-28" x2="11.283" transform="translate(52.654 63.875)"/>
        <line id="Line_64" data-name="Line 64" class="cls-28" x2="3.761" transform="translate(69.579 63.875)"/>
        <line id="Line_65" data-name="Line 65" class="cls-28" x2="1.88" transform="translate(28.207 71.39)"/>
        <line id="Line_66" data-name="Line 66" class="cls-28" x2="16.924" transform="translate(37.609 71.39)"/>
        <path id="Path_1016" data-name="Path 1016" class="cls-29" d="M80.981,84.662H5.761A3.77,3.77,0,0,1,2,80.9V5.757A3.77,3.77,0,0,1,5.761,2h75.22a3.77,3.77,0,0,1,3.761,3.757V80.9A3.77,3.77,0,0,1,80.981,84.662Z" transform="translate(-2 -2)"/>
        <ellipse id="Ellipse_47" data-name="Ellipse 47" class="cls-29" cx="0.94" cy="0.939" rx="0.94" ry="0.939" transform="translate(6.582 6.575)"/>
        <ellipse id="Ellipse_48" data-name="Ellipse 48" class="cls-29" cx="0.94" cy="0.939" rx="0.94" ry="0.939" transform="translate(14.104 6.575)"/>
        <ellipse id="Ellipse_49" data-name="Ellipse 49" class="cls-29" cx="0.94" cy="0.939" rx="0.94" ry="0.939" transform="translate(21.625 6.575)"/>
        <line id="Line_67" data-name="Line 67" class="cls-29" x2="82.742" transform="translate(0 15.03)"/>
        <line id="Line_68" data-name="Line 68" class="cls-29" y2="67.633" transform="translate(18.805 15.03)"/>
        <line id="Line_69" data-name="Line 69" class="cls-28" x2="3.761" transform="translate(7.521 26.302)"/>
        <line id="Line_70" data-name="Line 70" class="cls-28" x2="3.761" transform="translate(7.521 35.695)"/>
        <line id="Line_71" data-name="Line 71" class="cls-28" x2="3.761" transform="translate(7.521 45.088)"/>
        <line id="Line_72" data-name="Line 72" class="cls-28" x2="3.761" transform="translate(7.521 54.482)"/>
        <line id="Line_73" data-name="Line 73" class="cls-28" x2="3.761" transform="translate(7.521 63.875)"/>
        <line id="Line_74" data-name="Line 74" class="cls-28" x2="3.761" transform="translate(7.521 73.269)"/>
      </g>
      <g id="Group_868" data-name="Group 868" transform="translate(226.682 535.55)">
        <path id="Path_1002" data-name="Path 1002" class="cls-30" d="M48.11,51.63H8.921a4.858,4.858,0,0,1-4.858-4.7L3,14H54.031L52.968,46.931A4.858,4.858,0,0,1,48.11,51.63Z" transform="translate(-3 -0.648)"/>
        <path id="Path_1003" data-name="Path 1003" class="cls-30" d="M50.956,13.925V12.711a3.643,3.643,0,0,0-3.645-3.642h-15.8L24.225,3H9.645A3.643,3.643,0,0,0,6,6.642v7.283" transform="translate(-2.354 -3)"/>
        <rect id="Rectangle_304" data-name="Rectangle 304" class="cls-31" width="23.086" height="7.283" transform="translate(19.44 36.416)"/>
      </g>
      <g id="Group_869" data-name="Group 869" transform="translate(88.579 174.6)">
        <path id="Path_1004" data-name="Path 1004" class="cls-31" d="M87.477,58.132h-70.4A14.114,14.114,0,0,1,3,44.066H3A14.114,14.114,0,0,1,17.079,30h70.4a14.114,14.114,0,0,1,14.079,14.066h0A14.114,14.114,0,0,1,87.477,58.132Z" transform="translate(-3 26.263)"/>
        <ellipse id="Ellipse_44" data-name="Ellipse 44" class="cls-31" cx="4.693" cy="4.689" rx="4.693" ry="4.689" transform="translate(72.744 65.641)"/>
        <path id="Path_1005" data-name="Path 1005" class="cls-31" d="M87.477,46.132h-70.4A14.114,14.114,0,0,1,3,32.066H3A14.114,14.114,0,0,1,17.079,18h70.4a14.114,14.114,0,0,1,14.079,14.066h0A14.114,14.114,0,0,1,87.477,46.132Z" transform="translate(-3 10.132)"/>
        <ellipse id="Ellipse_45" data-name="Ellipse 45" class="cls-31" cx="4.693" cy="4.689" rx="4.693" ry="4.689" transform="translate(72.744 37.509)"/>
        <path id="Path_1006" data-name="Path 1006" class="cls-31" d="M87.477,34.132h-70.4A14.114,14.114,0,0,1,3,20.066H3A14.114,14.114,0,0,1,17.079,6h70.4a14.114,14.114,0,0,1,14.079,14.066h0A14.114,14.114,0,0,1,87.477,34.132Z" transform="translate(-3 -6)"/>
        <ellipse id="Ellipse_46" data-name="Ellipse 46" class="cls-31" cx="4.693" cy="4.689" rx="4.693" ry="4.689" transform="translate(72.744 9.377)"/>
      </g>
      <g id="Group_871" data-name="Group 871" transform="translate(819.135 284.672)">
        <path id="Path_1009" data-name="Path 1009" class="cls-29" d="M8,44.242V38.1A4.1,4.1,0,0,1,12.1,34h57.41a4.1,4.1,0,0,1,4.1,4.1v6.145" transform="translate(2.251 29.5)"/>
        <line id="Line_45" data-name="Line 45" class="cls-29" y2="22.532" transform="translate(43.058 51.209)"/>
        <path id="Path_1010" data-name="Path 1010" class="cls-29" d="M35.4,57.435H23.1a4.1,4.1,0,0,1-4.1-4.1V43.1A4.1,4.1,0,0,1,23.1,39H35.4a4.1,4.1,0,0,1,4.1,4.1V53.339A4.1,4.1,0,0,1,35.4,57.435Z" transform="translate(13.807 34.742)"/>
        <path id="Path_1011" data-name="Path 1011" class="cls-29" d="M51.4,57.435H39.1a4.1,4.1,0,0,1-4.1-4.1V43.1A4.1,4.1,0,0,1,39.1,39H51.4a4.1,4.1,0,0,1,4.1,4.1V53.339A4.1,4.1,0,0,1,51.4,57.435Z" transform="translate(30.611 34.742)"/>
        <path id="Path_1012" data-name="Path 1012" class="cls-29" d="M19.4,57.435H7.1a4.1,4.1,0,0,1-4.1-4.1V43.1A4.1,4.1,0,0,1,7.1,39H19.4a4.1,4.1,0,0,1,4.1,4.1V53.339A4.1,4.1,0,0,1,19.4,57.435Z" transform="translate(-3 34.742)"/>
        <rect id="Rectangle_305" data-name="Rectangle 305" class="cls-31" width="61.511" height="34.822" transform="translate(12.303 8.193)"/>
        <path id="Path_1013" data-name="Path 1013" class="cls-31" d="M78.813,54.21H9.1a4.1,4.1,0,0,1-4.1-4.1V7.1A4.1,4.1,0,0,1,9.1,3H78.813a4.1,4.1,0,0,1,4.1,4.1V50.113A4.1,4.1,0,0,1,78.813,54.21Z" transform="translate(-0.899 -3)"/>
      </g>
      <g id="Group_872" data-name="Group 872" transform="translate(559.785 61.113)">
        <path id="Path_1019" data-name="Path 1019" class="cls-29" d="M94.422,98.73H6.4a4.412,4.412,0,0,1-4.4-4.4V6.4A4.412,4.412,0,0,1,6.4,2H94.422a4.412,4.412,0,0,1,4.4,4.4V94.333A4.412,4.412,0,0,1,94.422,98.73Z" transform="translate(-2 -2)"/>
        <ellipse id="Ellipse_54" data-name="Ellipse 54" class="cls-29" cx="1.1" cy="1.099" rx="1.1" ry="1.099" transform="translate(7.702 7.694)"/>
        <ellipse id="Ellipse_55" data-name="Ellipse 55" class="cls-29" cx="1.1" cy="1.099" rx="1.1" ry="1.099" transform="translate(16.504 7.694)"/>
        <ellipse id="Ellipse_56" data-name="Ellipse 56" class="cls-29" cx="1.1" cy="1.099" rx="1.1" ry="1.099" transform="translate(25.306 7.694)"/>
        <line id="Line_76" data-name="Line 76" class="cls-29" x2="96.823" transform="translate(0 17.587)"/>
        <path id="Path_1020" data-name="Path 1020" class="cls-29" d="M49.409,57.77a13.249,13.249,0,0,0,8.582-23.3,13.507,13.507,0,0,0,.22-3.078,15.4,15.4,0,0,0-30.807,0v.22a7.493,7.493,0,0,0-2.2-.22,13.19,13.19,0,1,0,0,26.381" transform="translate(10.006 14.778)"/>
        <line id="Line_77" data-name="Line 77" class="cls-29" y1="24.182" transform="translate(48.412 61.555)"/>
        <path id="Path_1021" data-name="Path 1021" class="cls-29" d="M37.6,35.6,28.8,29,20,35.6" transform="translate(19.609 30.357)"/>
      </g>
    </g>
  </g>
</svg>
