<svg xmlns="http://www.w3.org/2000/svg" xmlns:xlink="http://www.w3.org/1999/xlink" viewBox="0 0 1440 954.27">
  <defs>
    <style>
      .cls-1 {
        fill: #fff;
      }

      .cls-2 {
        clip-path: url(#clip-path);
      }

      .cls-3 {
        fill: url(#linear-gradient);
      }

      .cls-4 {
        fill: url(#linear-gradient-2);
      }

      .cls-5 {
        fill: #451fad;
      }

      .cls-6 {
        fill: #ebe8fa;
      }

      .cls-7 {
        fill: #b6c3f4;
      }

      .cls-38, .cls-8 {
        fill: #98abef;
      }

      .cls-11, .cls-8 {
        stroke: #98abef;
      }

      .cls-11, .cls-17, .cls-32, .cls-8 {
        stroke-miterlimit: 10;
      }

      .cls-8 {
        stroke-width: 0.25px;
      }

      .cls-9 {
        fill: #d3196a;
      }

      .cls-10 {
        fill: #f7cb2d;
      }

      .cls-11, .cls-17, .cls-32 {
        fill: none;
      }

      .cls-11, .cls-17 {
        stroke-width: 0.5px;
      }

      .cls-12 {
        fill: #f2eafa;
      }

      .cls-13 {
        fill: #100c82;
      }

      .cls-14 {
        fill: #f7aa2d;
      }

      .cls-15 {
        fill: #4e69d1;
      }

      .cls-16 {
        fill: #6c88ef;
      }

      .cls-17 {
        stroke: #4e69d1;
      }

      .cls-18 {
        fill: #ff979c;
      }

      .cls-19 {
        fill: #e3eaff;
      }

      .cls-20 {
        fill: #6db8ff;
      }

      .cls-21 {
        fill: #9570ee;
      }

      .cls-22 {
        fill: #f9fbfc;
      }

      .cls-23 {
        fill: #cdd4ff;
      }

      .cls-24 {
        fill: #ffc240;
      }

      .cls-25 {
        fill: #90c240;
      }

      .cls-26 {
        fill: #eb4f24;
      }

      .cls-27 {
        fill: #544db8;
      }

      .cls-28 {
        fill: #0cf;
      }

      .cls-29 {
        fill: #ff56a9;
      }

      .cls-30 {
        fill: #ffc359;
      }

      .cls-31 {
        fill: #ff4dd1;
      }

      .cls-32 {
        stroke: #eb5772;
        stroke-linecap: round;
        stroke-width: 0.4px;
      }

      .cls-33 {
        fill: #4a31b2;
      }

      .cls-34 {
        fill: #5b0c24;
      }

      .cls-35 {
        fill: #f0767b;
      }

      .cls-36 {
        fill: #f59196;
      }

      .cls-37 {
        fill: #ffa6aa;
      }

      .cls-39 {
        fill: #ff9e9e;
      }

      .cls-40 {
        fill: #e1d9e8;
      }

      .cls-41 {
        fill: #b00e54;
      }
    </style>
    <clipPath id="clip-path">
      <rect id="Rectangle_420" data-name="Rectangle 420" class="cls-1" width="1440" height="900"/>
    </clipPath>
    <linearGradient id="linear-gradient" x1="-0.457" y1="1.463" x2="1" gradientUnits="objectBoundingBox">
      <stop offset="0" stop-color="#000081"/>
      <stop offset="1" stop-color="#17b3c7"/>
    </linearGradient>
    <linearGradient id="linear-gradient-2" y1="0.5" x2="1" y2="0.5" gradientUnits="objectBoundingBox">
      <stop offset="0" stop-color="#09469c"/>
      <stop offset="1" stop-color="#16abc4"/>
    </linearGradient>
  </defs>
  <g id="Group_1544" data-name="Group 1544" transform="translate(-14641 5876)">
    <g id="Group_1159" data-name="Group 1159" transform="translate(2353 -7766.77)">
      <g id="Mask_Group_33" data-name="Mask Group 33" class="cls-2" transform="translate(12288 1890.77)">
        <g id="Group_1157" data-name="Group 1157" transform="translate(-44 -108.057)">
          <rect id="Rectangle_415" data-name="Rectangle 415" class="cls-3" width="1440" height="907.59" transform="translate(43.872 105.338)"/>
          <rect id="Rectangle_416" data-name="Rectangle 416" class="cls-4" width="539.289" height="86.262" rx="43.131" transform="translate(1366.418 74.762) rotate(150)"/>
          <rect id="Rectangle_417" data-name="Rectangle 417" class="cls-4" width="624.289" height="86.262" rx="43.131" transform="translate(690.031 102.262) rotate(150)"/>
          <rect id="Rectangle_418" data-name="Rectangle 418" class="cls-4" width="706.789" height="86.262" rx="43.131" transform="translate(655.228 704.762) rotate(150)"/>
          <rect id="Rectangle_419" data-name="Rectangle 419" class="cls-4" width="574.289" height="86.262" rx="43.131" transform="translate(1452.979 816.012) rotate(150)"/>
        </g>
      </g>
    </g>
    <g id="Group_1543" data-name="Group 1543" transform="translate(15057.404 -5423.195)">
      <g id="Group_1087" data-name="Group 1087" transform="translate(61.438 83.31)">
        <rect id="Rectangle_380" data-name="Rectangle 380" class="cls-5" width="424.255" height="320.116" transform="translate(0 16.122)"/>
        <rect id="Rectangle_381" data-name="Rectangle 381" class="cls-6" width="410.166" height="300.072" transform="translate(7.117 29.484)"/>
        <g id="Group_1083" data-name="Group 1083" transform="translate(32.825 94.553)">
          <path id="Path_1232" data-name="Path 1232" class="cls-7" d="M97.289,122.4H68.531a3.6,3.6,0,0,0-3.631,3.631v.581a3.6,3.6,0,0,0,3.631,3.631H97.289a3.6,3.6,0,0,0,3.631-3.631v-.581A3.79,3.79,0,0,0,97.289,122.4Z" transform="translate(-64.9 -122.4)"/>
          <path id="Path_1233" data-name="Path 1233" class="cls-7" d="M134.289,122.4H105.531a3.6,3.6,0,0,0-3.631,3.631v.581a3.6,3.6,0,0,0,3.631,3.631h28.758a3.6,3.6,0,0,0,3.631-3.631v-.581A3.79,3.79,0,0,0,134.289,122.4Z" transform="translate(-48.16 -122.4)"/>
          <path id="Path_1234" data-name="Path 1234" class="cls-7" d="M171.289,122.4H142.531a3.6,3.6,0,0,0-3.631,3.631v.581a3.6,3.6,0,0,0,3.631,3.631h28.758a3.6,3.6,0,0,0,3.631-3.631v-.581A3.6,3.6,0,0,0,171.289,122.4Z" transform="translate(-31.42 -122.4)"/>
          <path id="Path_1235" data-name="Path 1235" class="cls-7" d="M208.289,122.4H179.531a3.6,3.6,0,0,0-3.631,3.631v.581a3.6,3.6,0,0,0,3.631,3.631h28.758a3.6,3.6,0,0,0,3.631-3.631v-.581A3.6,3.6,0,0,0,208.289,122.4Z" transform="translate(-14.68 -122.4)"/>
          <path id="Path_1236" data-name="Path 1236" class="cls-7" d="M245.389,122.4H216.631A3.6,3.6,0,0,0,213,126.031v.581a3.6,3.6,0,0,0,3.631,3.631h28.758a3.6,3.6,0,0,0,3.631-3.631v-.581A3.79,3.79,0,0,0,245.389,122.4Z" transform="translate(2.105 -122.4)"/>
          <path id="Path_1237" data-name="Path 1237" class="cls-7" d="M282.389,122.4H253.631A3.6,3.6,0,0,0,250,126.031v.581a3.6,3.6,0,0,0,3.631,3.631h28.758a3.6,3.6,0,0,0,3.631-3.631v-.581A3.79,3.79,0,0,0,282.389,122.4Z" transform="translate(18.845 -122.4)"/>
          <path id="Path_1238" data-name="Path 1238" class="cls-8" d="M319.389,122.4H290.631A3.6,3.6,0,0,0,287,126.031v.581a3.6,3.6,0,0,0,3.631,3.631h28.758a3.6,3.6,0,0,0,3.631-3.631v-.581A3.6,3.6,0,0,0,319.389,122.4Z" transform="translate(35.585 -122.4)"/>
        </g>
        <rect id="Rectangle_382" data-name="Rectangle 382" class="cls-9" width="410.166" height="55.483" transform="translate(7.117 21.641)"/>
        <path id="Path_1239" data-name="Path 1239" class="cls-10" d="M227.779,166.5l4.357,9.877,10.022,1.162-7.988,6.826,2.469,11.038-8.86-5.81-9.005,5.81,2.469-11.038-7.843-6.826,9.876-1.162Z" transform="translate(35.111 -7.895)"/>
        <g id="Group_1084" data-name="Group 1084" transform="translate(79.303 111.692)">
          <line id="Line_87" data-name="Line 87" class="cls-11" y2="205.664"/>
          <line id="Line_88" data-name="Line 88" class="cls-11" y2="205.664" transform="translate(53.159)"/>
          <line id="Line_89" data-name="Line 89" class="cls-11" y2="205.664" transform="translate(106.318)"/>
          <line id="Line_90" data-name="Line 90" class="cls-11" y2="205.664" transform="translate(159.332)"/>
          <line id="Line_91" data-name="Line 91" class="cls-11" y2="205.664" transform="translate(212.491 2.76)"/>
          <line id="Line_92" data-name="Line 92" class="cls-11" y2="205.664" transform="translate(265.649 2.76)"/>
        </g>
        <g id="Group_1085" data-name="Group 1085" transform="translate(26.144 152.069)">
          <line id="Line_93" data-name="Line 93" class="cls-11" x1="371.967"/>
          <line id="Line_94" data-name="Line 94" class="cls-11" x1="371.967" transform="translate(0 42.556)"/>
          <line id="Line_95" data-name="Line 95" class="cls-11" x1="371.967" transform="translate(0 85.112)"/>
          <line id="Line_96" data-name="Line 96" class="cls-11" x1="371.967" transform="translate(0 127.669)"/>
        </g>
        <path id="Path_1240" data-name="Path 1240" class="cls-7" d="M92.3,176.048H66.879a2.234,2.234,0,0,1-2.179-2.179v-.29a2.234,2.234,0,0,1,2.179-2.179H92.3a2.234,2.234,0,0,1,2.179,2.179v.29A2.23,2.23,0,0,1,92.3,176.048Z" transform="translate(-32.166 -5.678)"/>
        <path id="Path_1241" data-name="Path 1241" class="cls-7" d="M170.1,150.648H144.679a2.234,2.234,0,0,1-2.179-2.179v-.29A2.234,2.234,0,0,1,144.679,146H170.1a2.234,2.234,0,0,1,2.179,2.179v.29A2.139,2.139,0,0,1,170.1,150.648Z" transform="translate(3.034 -17.169)"/>
        <path id="Path_1242" data-name="Path 1242" class="cls-7" d="M206.777,233.479h-27.16a.993.993,0,0,1-1.017-1.017v-.145a.993.993,0,0,1,1.017-1.017h27.16a.993.993,0,0,1,1.017,1.017v.145A1.091,1.091,0,0,1,206.777,233.479Z" transform="translate(19.366 21.423)"/>
        <path id="Path_1243" data-name="Path 1243" class="cls-7" d="M206.777,237.179h-27.16a.993.993,0,0,1-1.017-1.017v-.145A.993.993,0,0,1,179.617,235h27.16a.993.993,0,0,1,1.017,1.017v.145A.993.993,0,0,1,206.777,237.179Z" transform="translate(19.366 23.097)"/>
        <path id="Path_1244" data-name="Path 1244" class="cls-7" d="M206.777,240.979h-27.16a.993.993,0,0,1-1.017-1.017v-.145a.993.993,0,0,1,1.017-1.017h27.16a.993.993,0,0,1,1.017,1.017v.145A.993.993,0,0,1,206.777,240.979Z" transform="translate(19.366 24.816)"/>
        <path id="Path_1245" data-name="Path 1245" class="cls-7" d="M85.47,180.379H65.717a.993.993,0,0,1-1.017-1.017v-.145a.993.993,0,0,1,1.017-1.017H85.47a.993.993,0,0,1,1.017,1.017v.145A1.091,1.091,0,0,1,85.47,180.379Z" transform="translate(-32.166 -2.601)"/>
        <g id="Group_1086" data-name="Group 1086" transform="translate(231.45 142.19)">
          <path id="Path_1246" data-name="Path 1246" class="cls-9" d="M208.4,204c10.167,14.379,28.9,20.479,43.137,8.279,13.943-12.055,11.038-34.277.145-47.494-27.451-33.406-72.621,29.63-36.747,49.528a1.585,1.585,0,0,0,1.888-2.469,30.246,30.246,0,0,1-3.341-37.763c8.279-12.636,24.837-18.155,35.149-4.793,8.424,10.893,11.184,28.9,0,38.925-11.91,10.6-28.613,5.665-37.763-6.1-1.162-1.452-3.486.436-2.469,1.888Z" transform="translate(-201.654 -155.198)"/>
        </g>
        <path id="Path_1247" data-name="Path 1247" class="cls-12" d="M88.491,86.636a6.252,6.252,0,1,0-6.245,6.536A6.359,6.359,0,0,0,88.491,86.636Z" transform="translate(-27.053 -46.985)"/>
        <path id="Path_1248" data-name="Path 1248" class="cls-12" d="M104.991,86.636A6.359,6.359,0,0,0,98.745,80.1,6.453,6.453,0,0,0,92.5,86.636a6.252,6.252,0,1,0,12.491,0Z" transform="translate(-19.588 -46.985)"/>
        <path id="Path_1249" data-name="Path 1249" class="cls-13" d="M81.812,57.3h-.581A3.6,3.6,0,0,0,77.6,60.931V97.242a3.6,3.6,0,0,0,3.631,3.631h.581a3.6,3.6,0,0,0,3.631-3.631V60.931A3.6,3.6,0,0,0,81.812,57.3Z" transform="translate(-26.329 -57.3)"/>
        <path id="Path_1250" data-name="Path 1250" class="cls-13" d="M98.412,57.3h-.581A3.6,3.6,0,0,0,94.2,60.931V97.242a3.6,3.6,0,0,0,3.631,3.631h.581a3.6,3.6,0,0,0,3.631-3.631V60.931A3.79,3.79,0,0,0,98.412,57.3Z" transform="translate(-18.819 -57.3)"/>
        <path id="Path_1251" data-name="Path 1251" class="cls-12" d="M287.991,86.636a6.252,6.252,0,1,0-6.246,6.536A6.359,6.359,0,0,0,287.991,86.636Z" transform="translate(63.207 -46.985)"/>
        <path id="Path_1252" data-name="Path 1252" class="cls-12" d="M304.491,86.636a6.359,6.359,0,0,0-6.245-6.536A6.453,6.453,0,0,0,292,86.636a6.252,6.252,0,1,0,12.491,0Z" transform="translate(70.672 -46.985)"/>
        <path id="Path_1253" data-name="Path 1253" class="cls-13" d="M281.312,57.3h-.581a3.6,3.6,0,0,0-3.631,3.631V97.242a3.6,3.6,0,0,0,3.631,3.631h.581a3.6,3.6,0,0,0,3.631-3.631V60.931A3.79,3.79,0,0,0,281.312,57.3Z" transform="translate(63.931 -57.3)"/>
        <path id="Path_1254" data-name="Path 1254" class="cls-13" d="M297.812,57.3h-.581a3.6,3.6,0,0,0-3.631,3.631V97.242a3.6,3.6,0,0,0,3.631,3.631h.581a3.6,3.6,0,0,0,3.631-3.631V60.931A3.6,3.6,0,0,0,297.812,57.3Z" transform="translate(71.396 -57.3)"/>
        <rect id="Rectangle_383" data-name="Rectangle 383" class="cls-14" width="20.915" height="20.915" transform="matrix(0.933, -0.359, 0.359, 0.933, 314.305, 251.929)"/>
        <path id="Path_1255" data-name="Path 1255" class="cls-9" d="M267.524,229.962a1.162,1.162,0,1,0-1.162,1.162A1.25,1.25,0,0,0,267.524,229.962Z" transform="translate(58.547 20.292)"/>
        <rect id="Rectangle_384" data-name="Rectangle 384" class="cls-10" width="20.915" height="20.915" transform="translate(305.764 246.748) rotate(11.823)"/>
        <path id="Path_1256" data-name="Path 1256" class="cls-9" d="M260.624,230.762a1.162,1.162,0,1,0-1.162,1.162A1.146,1.146,0,0,0,260.624,230.762Z" transform="translate(55.425 20.654)"/>
      </g>
      <g id="Group_1096" data-name="Group 1096" transform="translate(78.281 271.694)">
        <path id="Path_1257" data-name="Path 1257" class="cls-13" d="M105.3,326.331l-5.664.436L73.2,344.2l20.334-27.6,12.346,3.921Z" transform="translate(-45.163 -128.369)"/>
        <path id="Path_1258" data-name="Path 1258" class="cls-15" d="M164.876,305.886s.726-11.329-16.7-13.217c-17.429-2.033-37.473,2.324-37.473,2.324l8.86,17.429Z" transform="translate(-28.197 -139.441)"/>
        <path id="Path_1259" data-name="Path 1259" class="cls-13" d="M113.385,334.948l-6.391.581L77.8,354.7l22.367-30.5,13.8,4.212Z" transform="translate(-43.082 -124.93)"/>
        <path id="Path_1260" data-name="Path 1260" class="cls-16" d="M121.216,283.281l14.524,25.127s46.042-9.15,57.371,3.776-2.179,33.987-35.875,39.8c-33.7,5.955-48.366,7.407-48.366,7.407L106.4,347.043S72.85,350.093,85.486,282.7C85.486,282.845,96.525,288.945,121.216,283.281Z" transform="translate(-40.891 -143.706)"/>
        <path id="Path_1261" data-name="Path 1261" class="cls-17" d="M170.66,318.1s-34.132,13.943-71.46,13.943" transform="translate(-33.4 -127.69)"/>
        <path id="Path_1262" data-name="Path 1262" class="cls-18" d="M119.132,223.749s-1.6,3.776-2.9,6.1v6.245l-5.519.145-1.307-7.7s.145-9.3,0-14.96c-.145-3.2,6.536-7.7,10.6-9.441,2.469-1.017-.726,4.067-4.5,6.972A68.713,68.713,0,0,0,119.132,223.749Z" transform="translate(-28.786 -179.308)"/>
        <path id="Path_1263" data-name="Path 1263" class="cls-18" d="M151.631,225.441a57.973,57.973,0,0,0,3.776,5.664l.871,6.1,5.519-.581.145-7.843s-1.452-9.15-2.033-14.815c-.291-3.2-7.553-6.826-11.765-7.843-2.469-.726,1.307,3.922,5.374,6.245A71.783,71.783,0,0,1,151.631,225.441Z" transform="translate(-11.611 -178.386)"/>
        <g id="Group_1089" data-name="Group 1089" transform="translate(85.351 0.628)">
          <rect id="Rectangle_385" data-name="Rectangle 385" class="cls-1" width="56.935" height="47.64" transform="translate(3.145 0) rotate(3.787)"/>
          <g id="Group_1120" data-name="Group 1120" transform="matrix(0.996, 0.087, -0.087, 0.996, 5.662, 0.681)">
            <path id="Path_1353" data-name="Path 1353" class="cls-19" d="M15.057,32.459H.56A.647.647,0,0,1,0,31.769V.69A.647.647,0,0,1,.56,0h14.5a.647.647,0,0,1,.559.689v31.08A.647.647,0,0,1,15.057,32.459Z" transform="translate(0 8.174)"/>
            <path id="Path_1354" data-name="Path 1354" class="cls-20" d="M9.636,2.194H.43A.431.431,0,0,1,0,1.764V.43A.431.431,0,0,1,.43,0H9.636a.431.431,0,0,1,.43.43V1.764A.406.406,0,0,1,9.636,2.194Z" transform="translate(2.711 10.325)"/>
            <path id="Path_1355" data-name="Path 1355" class="cls-20" d="M2.882,1.721H.86A.863.863,0,0,1,0,.86H0A.863.863,0,0,1,.86,0H2.882a.863.863,0,0,1,.86.86h0A.863.863,0,0,1,2.882,1.721Z" transform="translate(3.184 23.231)"/>
            <path id="Path_1356" data-name="Path 1356" class="cls-21" d="M2.882,1.721H.86A.863.863,0,0,1,0,.86H0A.863.863,0,0,1,.86,0H2.882a.863.863,0,0,1,.86.86h0A.863.863,0,0,1,2.882,1.721Z" transform="translate(8.992 23.231)"/>
            <rect id="Rectangle_405" data-name="Rectangle 405" class="cls-22" width="10.841" height="1.721" transform="translate(2.453 14.757)"/>
            <rect id="Rectangle_406" data-name="Rectangle 406" class="cls-22" width="10.841" height="1.721" transform="translate(2.453 17.682)"/>
            <rect id="Rectangle_407" data-name="Rectangle 407" class="cls-23" width="6.238" height="0.387" transform="translate(4.776 20.478)"/>
            <g id="Group_1120-2" data-name="Group 1120" transform="translate(16.95 7.658)">
              <path id="Path_1357" data-name="Path 1357" class="cls-19" d="M13.938,3.528H1.764A1.772,1.772,0,0,1,0,1.764H0A1.772,1.772,0,0,1,1.764,0H13.938A1.772,1.772,0,0,1,15.7,1.764h0A1.745,1.745,0,0,1,13.938,3.528Z" transform="translate(0 0)"/>
              <path id="Path_1358" data-name="Path 1358" class="cls-24" d="M1.119.559a.569.569,0,0,1-.559.559A.569.569,0,0,1,0,.559.569.569,0,0,1,.559,0,.569.569,0,0,1,1.119.559Z" transform="translate(3.571 1.205)"/>
              <path id="Path_1359" data-name="Path 1359" class="cls-25" d="M1.119.559a.569.569,0,0,1-.559.559A.569.569,0,0,1,0,.559.569.569,0,0,1,.559,0,.569.569,0,0,1,1.119.559Z" transform="translate(7.399 1.205)"/>
              <path id="Path_1360" data-name="Path 1360" class="cls-26" d="M1.119.559a.569.569,0,0,1-.559.559A.569.569,0,0,1,0,.559.569.569,0,0,1,.559,0,.569.569,0,0,1,1.119.559Z" transform="translate(10.927 1.205)"/>
            </g>
            <path id="Path_1361" data-name="Path 1361" class="cls-27" d="M14.025,19.187H.775A.771.771,0,0,1,0,18.413V.775A.771.771,0,0,1,.775,0h13.25A.771.771,0,0,1,14.8.775V18.413A.771.771,0,0,1,14.025,19.187Z" transform="translate(36.266 2.711)"/>
            <g id="Group_1121" data-name="Group 1121" transform="translate(38.46 4.948)">
              <path id="Path_1362" data-name="Path 1362" class="cls-28" d="M1.075.344H.086C.043.344,0,.258,0,.172H0C0,.086.043,0,.086,0h.989c.043,0,.086.086.086.172h0C1.2.258,1.162.344,1.075.344Z" transform="translate(0 0)"/>
              <path id="Path_1363" data-name="Path 1363" class="cls-28" d="M5.765.344H.086C.043.344,0,.258,0,.172H0C0,.086.043,0,.086,0H5.722c.043,0,.086.086.086.172h0C5.851.258,5.808.344,5.765.344Z" transform="translate(1.463 0)"/>
              <path id="Path_1364" data-name="Path 1364" class="cls-29" d="M1.893.344H.086C.043.344,0,.258,0,.172H0C0,.086.043,0,.086,0H1.893c.043,0,.086.086.086.172h0C1.979.3,1.936.344,1.893.344Z" transform="translate(1.463 0.774)"/>
              <path id="Path_1365" data-name="Path 1365" class="cls-19" d="M2.667.344H.086C.043.344,0,.258,0,.172H0C0,.086.043,0,.086,0H2.667c.043,0,.086.086.086.172h0C2.753.3,2.71.344,2.667.344Z" transform="translate(3.657 0.774)"/>
              <path id="Path_1366" data-name="Path 1366" class="cls-19" d="M5.765.344H.086C.043.344,0,.258,0,.172H0C0,.086.043,0,.086,0H5.722c.043,0,.086.086.086.172h0C5.851.258,5.808.344,5.765.344Z" transform="translate(1.463 4.646)"/>
              <path id="Path_1367" data-name="Path 1367" class="cls-28" d="M1.075.344H.086C.043.344,0,.258,0,.172H0C0,.086.043,0,.086,0h.989c.043,0,.086.086.086.172h0C1.2.258,1.162.344,1.075.344Z" transform="translate(0 5.421)"/>
              <path id="Path_1368" data-name="Path 1368" class="cls-19" d="M1.893.344H.086C.043.344,0,.258,0,.172H0C0,.086.043,0,.086,0H1.893c.043,0,.086.086.086.172h0C1.979.258,1.936.344,1.893.344Z" transform="translate(1.463 5.421)"/>
              <path id="Path_1369" data-name="Path 1369" class="cls-29" d="M2.667.344H.086C.043.344,0,.258,0,.172H0C0,.086.043,0,.086,0H2.667c.043,0,.086.086.086.172h0C2.753.258,2.71.344,2.667.344Z" transform="translate(3.657 5.421)"/>
              <path id="Path_1370" data-name="Path 1370" class="cls-29" d="M7.141.344H.086C.043.344,0,.258,0,.172H0C0,.086.043,0,.086,0H7.141c.043,0,.086.086.086.172h0C7.227.258,7.184.344,7.141.344Z" transform="translate(1.463 1.592)"/>
              <path id="Path_1371" data-name="Path 1371" class="cls-28" d="M1.721.344H.086A.093.093,0,0,1,0,.258V.086A.093.093,0,0,1,.086,0H1.721a.093.093,0,0,1,.086.086V.258A.093.093,0,0,1,1.721.344Z" transform="translate(5.421 2.366)"/>
              <path id="Path_1372" data-name="Path 1372" class="cls-19" d="M2.452.344H.086C.043.344,0,.258,0,.172H0C0,.086.043,0,.086,0H2.409C2.452,0,2.5.086,2.5.172h0C2.538.258,2.5.344,2.452.344Z" transform="translate(1.463 2.366)"/>
              <path id="Path_1373" data-name="Path 1373" class="cls-28" d="M1.032.344H.086C.043.344,0,.258,0,.172H0C0,.086.043,0,.086,0h.946c.043,0,.086.086.086.172h0C1.118.258,1.075.344,1.032.344Z" transform="translate(4.13 2.366)"/>
              <path id="Path_1374" data-name="Path 1374" class="cls-19" d="M1.075.344H.086C.043.344,0,.258,0,.172H0C0,.086.043,0,.086,0h.989c.043,0,.086.086.086.172h0C1.2.258,1.162.344,1.075.344Z" transform="translate(0 3.141)"/>
              <path id="Path_1375" data-name="Path 1375" class="cls-19" d="M7.141.344H.086C.043.344,0,.258,0,.172H0C0,.086.043,0,.086,0H7.141c.043,0,.086.086.086.172h0C7.227.258,7.184.344,7.141.344Z" transform="translate(1.463 3.14)"/>
              <path id="Path_1376" data-name="Path 1376" class="cls-19" d="M1.075.344H.086C.043.344,0,.258,0,.172H0C0,.086.043,0,.086,0h.989c.043,0,.086.086.086.172h0C1.2.258,1.162.344,1.075.344Z" transform="translate(0 6.152)"/>
              <path id="Path_1377" data-name="Path 1377" class="cls-19" d="M2.452.387H.129A.114.114,0,0,1,0,.258V.129A.114.114,0,0,1,.129,0H2.452a.114.114,0,0,1,.129.129V.258A.137.137,0,0,1,2.452.387Z" transform="translate(5.378 6.109)"/>
              <path id="Path_1378" data-name="Path 1378" class="cls-19" d="M2.452.344H.086C.043.344,0,.258,0,.172H0C0,.086.043,0,.086,0H2.409C2.452,0,2.5.086,2.5.172h0C2.538.258,2.5.344,2.452.344Z" transform="translate(1.463 6.152)"/>
              <path id="Path_1379" data-name="Path 1379" class="cls-19" d="M1.032.344H.086C.043.344,0,.258,0,.172H0C0,.086.043,0,.086,0h.946c.043,0,.086.086.086.172h0C1.118.258,1.075.344,1.032.344Z" transform="translate(4.13 6.152)"/>
              <path id="Path_1380" data-name="Path 1380" class="cls-30" d="M1.075.344H.086C.043.344,0,.258,0,.172H0C0,.086.043,0,.086,0h.989c.043,0,.086.086.086.172h0C1.2.258,1.162.344,1.075.344Z" transform="translate(0 6.926)"/>
              <path id="Path_1381" data-name="Path 1381" class="cls-28" d="M1.334.344H.086C.043.344,0,.258,0,.172H0C0,.086.043,0,.086,0h1.2c.043,0,.086.086.086.172h0C1.42.258,1.377.344,1.334.344Z" transform="translate(1.463 6.926)"/>
              <path id="Path_1382" data-name="Path 1382" class="cls-28" d="M.086.344C.043.344,0,.258,0,.172H0C0,.086.043,0,.086,0h.989c.043,0,.086.086.086.172h0c0,.086-.043.172-.086.172" transform="translate(0 3.915)"/>
              <path id="Path_1383" data-name="Path 1383" class="cls-19" d="M2.753.387H.129A.114.114,0,0,1,0,.258V.129A.114.114,0,0,1,.129,0H2.753a.114.114,0,0,1,.129.129V.258A.114.114,0,0,1,2.753.387Z" transform="translate(5.378 3.872)"/>
              <path id="Path_1384" data-name="Path 1384" class="cls-30" d="M2.452.344H.086C.043.344,0,.258,0,.172H0C0,.086.043,0,.086,0H2.409C2.452,0,2.5.086,2.5.172h0C2.538.258,2.5.344,2.452.344Z" transform="translate(1.463 3.915)"/>
              <path id="Path_1385" data-name="Path 1385" class="cls-30" d="M1.032.344H.086C.043.344,0,.258,0,.172H0C0,.086.043,0,.086,0h.946c.043,0,.086.086.086.172h0C1.118.258,1.075.344,1.032.344Z" transform="translate(4.13 3.915)"/>
              <path id="Path_1386" data-name="Path 1386" class="cls-19" d="M5.765.344H.086C.043.344,0,.258,0,.172H0C0,.086.043,0,.086,0H5.722c.043,0,.086.086.086.172h0C5.851.258,5.808.344,5.765.344Z" transform="translate(1.463 7.743)"/>
              <path id="Path_1387" data-name="Path 1387" class="cls-19" d="M1.893.344H.086C.043.344,0,.258,0,.172H0C0,.086.043,0,.086,0H1.893c.043,0,.086.086.086.172h0C1.979.258,1.936.344,1.893.344Z" transform="translate(1.463 8.518)"/>
              <path id="Path_1388" data-name="Path 1388" class="cls-19" d="M2.667.344H.086C.043.344,0,.258,0,.172H0C0,.086.043,0,.086,0H2.667c.043,0,.086.086.086.172h0C2.753.258,2.71.344,2.667.344Z" transform="translate(3.657 8.518)"/>
              <path id="Path_1389" data-name="Path 1389" class="cls-19" d="M5.765.344H.086C.043.344,0,.258,0,.172H0C0,.086.043,0,.086,0H5.722c.043,0,.086.086.086.172h0C5.851.258,5.808.344,5.765.344Z" transform="translate(1.463 12.39)"/>
              <path id="Path_1390" data-name="Path 1390" class="cls-29" d="M1.075.344H.086C.043.344,0,.258,0,.172H0C0,.086.043,0,.086,0h.989c.043,0,.086.086.086.172h0C1.2.258,1.162.344,1.075.344Z" transform="translate(0 13.164)"/>
              <path id="Path_1391" data-name="Path 1391" class="cls-28" d="M1.893.344H.086C.043.344,0,.258,0,.172H0C0,.086.043,0,.086,0H1.893c.043,0,.086.086.086.172h0C1.979.258,1.936.344,1.893.344Z" transform="translate(1.463 13.164)"/>
              <path id="Path_1392" data-name="Path 1392" class="cls-19" d="M2.667.344H.086C.043.344,0,.258,0,.172H0C0,.086.043,0,.086,0H2.667c.043,0,.086.086.086.172h0C2.753.258,2.71.344,2.667.344Z" transform="translate(3.657 13.164)"/>
              <path id="Path_1393" data-name="Path 1393" class="cls-29" d="M1.075.344H.086C.043.344,0,.258,0,.172H0C0,.086.043,0,.086,0h.989c.043,0,.086.086.086.172h0C1.2.258,1.162.344,1.075.344Z" transform="translate(0 9.335)"/>
              <path id="Path_1394" data-name="Path 1394" class="cls-29" d="M5.162.43H.129A.137.137,0,0,1,0,.3V.129A.137.137,0,0,1,.129,0H5.162a.137.137,0,0,1,.129.129V.3C5.248.344,5.205.43,5.162.43Z" transform="translate(1.463 9.249)"/>
              <path id="Path_1395" data-name="Path 1395" class="cls-19" d="M1.075.344H.086C.043.344,0,.258,0,.172H0C0,.086.043,0,.086,0h.989c.043,0,.086.086.086.172h0C1.2.258,1.162.344,1.075.344Z" transform="translate(0 10.11)"/>
              <path id="Path_1396" data-name="Path 1396" class="cls-19" d="M2.452.344H.086C.043.344,0,.258,0,.172H0C0,.086.043,0,.086,0H2.409C2.452,0,2.5.086,2.5.172h0C2.538.258,2.5.344,2.452.344Z" transform="translate(1.463 10.11)"/>
              <path id="Path_1397" data-name="Path 1397" class="cls-19" d="M1.032.344H.086C.043.344,0,.258,0,.172H0C0,.086.043,0,.086,0h.946c.043,0,.086.086.086.172h0C1.118.258,1.075.344,1.032.344Z" transform="translate(4.13 10.11)"/>
              <path id="Path_1398" data-name="Path 1398" class="cls-19" d="M1.075.344H.086C.043.344,0,.258,0,.172H0C0,.086.043,0,.086,0h.989c.043,0,.086.086.086.172h0C1.2.258,1.162.344,1.075.344Z" transform="translate(0 10.884)"/>
              <path id="Path_1399" data-name="Path 1399" class="cls-19" d="M6.5.387H.129A.114.114,0,0,1,0,.258V.129A.114.114,0,0,1,.129,0H6.5a.114.114,0,0,1,.129.129V.258A.137.137,0,0,1,6.5.387Z" transform="translate(1.463 10.841)"/>
              <path id="Path_1400" data-name="Path 1400" class="cls-19" d="M1.075.344H.086C.043.344,0,.258,0,.172H0C0,.086.043,0,.086,0h.989c.043,0,.086.086.086.172h0C1.2.258,1.162.344,1.075.344Z" transform="translate(0 13.895)"/>
              <path id="Path_1401" data-name="Path 1401" class="cls-19" d="M3.226.344H.086C.043.344,0,.258,0,.172H0C0,.086.043,0,.086,0h3.14c.043,0,.086.086.086.172h0C3.312.258,3.269.344,3.226.344Z" transform="translate(5.378 13.895)"/>
              <path id="Path_1402" data-name="Path 1402" class="cls-19" d="M2.452.344H.086C.043.344,0,.258,0,.172H0C0,.086.043,0,.086,0H2.409C2.452,0,2.5.086,2.5.172h0C2.538.258,2.5.344,2.452.344Z" transform="translate(1.463 13.895)"/>
              <path id="Path_1403" data-name="Path 1403" class="cls-19" d="M1.032.344H.086C.043.344,0,.258,0,.172H0C0,.086.043,0,.086,0h.946c.043,0,.086.086.086.172h0C1.118.258,1.075.344,1.032.344Z" transform="translate(4.13 13.895)"/>
              <path id="Path_1404" data-name="Path 1404" class="cls-30" d="M4.259.344H.086A.093.093,0,0,1,0,.258V.086A.093.093,0,0,1,.086,0H4.259a.093.093,0,0,1,.086.086V.258C4.388.3,4.345.344,4.259.344Z" transform="translate(1.463 14.67)"/>
              <path id="Path_1405" data-name="Path 1405" class="cls-29" d="M2.925.387H.129A.114.114,0,0,1,0,.258V.129A.114.114,0,0,1,.129,0h2.8a.114.114,0,0,1,.129.129V.258A.114.114,0,0,1,2.925.387Z" transform="translate(5.378 11.615)"/>
              <path id="Path_1406" data-name="Path 1406" class="cls-30" d="M2.452.344H.086C.043.344,0,.258,0,.172H0C0,.086.043,0,.086,0H2.409C2.452,0,2.5.086,2.5.172h0C2.538.258,2.5.344,2.452.344Z" transform="translate(1.463 11.658)"/>
              <path id="Path_1407" data-name="Path 1407" class="cls-30" d="M1.032.344H.086C.043.344,0,.258,0,.172H0C0,.086.043,0,.086,0h.946c.043,0,.086.086.086.172h0C1.118.258,1.075.344,1.032.344Z" transform="translate(4.13 11.658)"/>
            </g>
            <g id="Group_1125" data-name="Group 1125" transform="translate(46.72 0.001)">
              <ellipse id="Ellipse_69" data-name="Ellipse 69" class="cls-31" cx="3.14" cy="3.14" rx="3.14" ry="3.14"/>
              <g id="Group_1124" data-name="Group 1124" transform="translate(1.161 2.366)">
                <g id="Group_1122" data-name="Group 1122" transform="translate(0 0)">
                  <path id="Path_1408" data-name="Path 1408" class="cls-22" d="M1.764.473.516.946l1.248.43V1.85L0,1.162V.688L1.764,0Z" transform="translate(0 0)"/>
                </g>
                <g id="Group_1123" data-name="Group 1123" transform="translate(2.194 0)">
                  <path id="Path_1409" data-name="Path 1409" class="cls-22" d="M0,0,1.764.688v.473L0,1.85V1.377L1.248.946,0,.473Z" transform="translate(0 0)"/>
                </g>
              </g>
            </g>
          </g>
          <g id="Group_1126" data-name="Group 1126" transform="translate(38.337 30.03)">
            <path id="Path_1264" data-name="Path 1264" class="cls-5" d="M129.9,196.2a7.612,7.612,0,1,1-8.1,7.089l7.6.506Z" transform="translate(-121.746 -196.186)"/>
            <path id="Path_1265" data-name="Path 1265" class="cls-9" d="M136.728,201.732a7.639,7.639,0,1,1-9.452-5.232l2.11,7.342Z" transform="translate(-121.739 -196.232)"/>
            <path id="Path_1266" data-name="Path 1266" class="cls-10" d="M136.988,204.3a7.612,7.612,0,1,1-7.089-8.1l-.506,7.6Z" transform="translate(-121.746 -196.183)"/>
          </g>
          <path id="Path_1410" data-name="Path 1410" class="cls-19" d="M1.655,0A1.465,1.465,0,0,1,3.212,1.406L3.147,7.2A1.543,1.543,0,0,1,1.557,8.639,1.465,1.465,0,0,1,0,7.233L.066,1.438A1.543,1.543,0,0,1,1.655,0Z" transform="matrix(0.995, 0.105, -0.105, 0.995, 21.601, 28.249)"/>
          <path id="Path_1411" data-name="Path 1411" class="cls-19" d="M1.753,0A1.465,1.465,0,0,1,3.31,1.406L3.147,15.84a1.543,1.543,0,0,1-1.589,1.438A1.465,1.465,0,0,1,0,15.872L.164,1.438A1.543,1.543,0,0,1,1.753,0Z" transform="matrix(0.995, 0.105, -0.105, 0.995, 27.985, 20.177)"/>
          <path id="Path_1412" data-name="Path 1412" class="cls-19" d="M1.717,0A1.465,1.465,0,0,1,3.274,1.406L3.147,12.7a1.543,1.543,0,0,1-1.589,1.438A1.465,1.465,0,0,1,0,12.73L.128,1.438A1.543,1.543,0,0,1,1.717,0Z" transform="matrix(0.995, 0.105, -0.105, 0.995, 33.138, 23.821)"/>
        </g>
        <path id="Path_1273" data-name="Path 1273" class="cls-18" d="M156.08,229s-5.374-11.038-8.424-15.105.581-4.648,4.212-1.452c4.5,3.922,6.972,2.76,6.972,2.76l.145,6.826Z" transform="translate(-11.993 -176.422)"/>
        <path id="Path_1274" data-name="Path 1274" class="cls-18" d="M115.548,228.711s3.776-11.765,6.245-16.122c2.469-4.5-1.162-4.5-4.357-.871-3.922,4.5-6.536,3.776-6.536,3.776l.871,6.826Z" transform="translate(-28.106 -177.008)"/>
        <path id="Path_1275" data-name="Path 1275" class="cls-5" d="M122.791,222.2s4.357,24.546-14.815,31.808l-9.877-10.6c9.877-5.229,12.636-12.491,13.653-20.334Z" transform="translate(-33.897 -171.078)"/>
        <g id="Group_1090" data-name="Group 1090">
          <path id="Path_1276" data-name="Path 1276" class="cls-9" d="M78.3,201.814c-5.229-1.162-10.893,1.162-12.491,7.117-1.452,5.374,1.307,11.038.581,16.558-.726,4.938-3.922,8.715-6.826,12.2-2.9,3.631-5.81,7.843-5.664,12.781.145,4.5,3.2,8.86,7.117,9.731,1.162.29,2.324.29,3.486.581,4.648,1.452,6.826,7.7,7.117,13.217s-.436,11.329,1.452,16.412A17.888,17.888,0,0,0,92.827,301.45c8.569-1.743,15.4-10.022,23.965-11.91,2.9-.726,5.955-.581,8.86-1.017s5.955-1.6,7.843-4.212,2.469-6.245,4.067-9.15c2.033-3.776,5.81-6.1,8.134-9.731a16.146,16.146,0,0,0,1.162-14.379c-2.324-5.665-7.843-9.731-8.569-15.977-.436-4.067,1.307-7.843,2.469-11.765a34.213,34.213,0,0,0,.29-18.736c-1.743-6.1-6.391-15.251-18.01-17.284-7.262-1.162-15.831,2.324-29.194-.145-8.86-1.162-13.072,4.938-15.541,14.67" transform="translate(-53.896 -187.003)"/>
        </g>
        <path id="Path_1277" data-name="Path 1277" class="cls-18" d="M106.966,259.45s-4.5-5.229-3.776-19.608c0,0,10.6-2.324,11.038-10.748.29-5.955-.726-15.251-2.469-23.239,0,0-.29-4.648-6.972-6.536s-22.222,0-23.384,5.81,1.017,15.4,1.017,15.4A6.939,6.939,0,0,0,74,218.492c-5.229,2.179,1.017,19.172,9.586,10.893,0,0,8.134,23.239.871,24.837,0,0,2.614,13.943,17.865,10.893S106.966,259.45,106.966,259.45Z" transform="translate(-45.668 -181.749)"/>
        <path id="Path_1278" data-name="Path 1278" class="cls-32" d="M94,209.7a11.478,11.478,0,0,0,2.614,4.793c1.452,1.6,1.162,2.76-1.307,4.212" transform="translate(-35.752 -176.734)"/>
        <g id="Group_1091" data-name="Group 1091" transform="translate(50.64 32.756)">
          <path id="Path_1279" data-name="Path 1279" class="cls-33" d="M89.689,209.62c.581.145.726,1.017.871,1.452a9.59,9.59,0,0,1,.145,2.033.734.734,0,0,1-1.452.145c-.436-.726-1.017-4.212.436-3.631Z" transform="translate(-88.762 -209.555)"/>
        </g>
        <g id="Group_1092" data-name="Group 1092" transform="translate(60.577 31.356)">
          <path id="Path_1280" data-name="Path 1280" class="cls-33" d="M96.325,208.6c.581.145.871.726,1.017,1.452a9.807,9.807,0,0,1,.29,2.033.734.734,0,0,1-1.452.145,6.022,6.022,0,0,1-.436-2.324c-.29-.29-.145-1.452.581-1.307Z" transform="translate(-95.603 -208.591)"/>
        </g>
        <path id="Path_1281" data-name="Path 1281" class="cls-32" d="M74.2,214.424s4.212-1.162,6.536,5.519" transform="translate(-44.71 -174.631)"/>
        <path id="Path_1282" data-name="Path 1282" class="cls-32" d="M74.6,217.363a5.1,5.1,0,0,1,4.357-1.452" transform="translate(-44.529 -173.939)"/>
        <path id="Path_1283" data-name="Path 1283" class="cls-32" d="M96.407,219.65S91.9,219.36,89,216.6" transform="translate(-38.014 -173.612)"/>
        <g id="Group_1093" data-name="Group 1093" transform="translate(45.589 25.714)">
          <path id="Path_1284" data-name="Path 1284" class="cls-9" d="M86.179,208.619a6.306,6.306,0,0,1,5.519-1.307,1.021,1.021,0,0,0,.726-1.888c-2.614-1.6-6.391-.436-7.117,2.614a.546.546,0,0,0,.871.581Z" transform="translate(-85.284 -204.707)"/>
        </g>
        <g id="Group_1094" data-name="Group 1094" transform="translate(57.954 24.794)">
          <path id="Path_1285" data-name="Path 1285" class="cls-9" d="M99.03,206.145c-.436-2.179-3.486-2.76-4.938-1.162a1.051,1.051,0,0,0,1.017,1.743,6.505,6.505,0,0,1,3.341,0c.29.145.581-.29.581-.581Z" transform="translate(-93.798 -204.074)"/>
        </g>
        <g id="Group_1095" data-name="Group 1095" transform="translate(34.137 10.454)">
          <path id="Path_1286" data-name="Path 1286" class="cls-9" d="M112.113,194.2c.436,2.9-2.469,7.7-5.229,8.569-5.664,2.033-12.055-1.452-17.429,1.307a13.7,13.7,0,0,0-7.407,12.636c.145,2.9,1.162,5.955.145,8.715a22.532,22.532,0,0,1-4.793-8.279L79,196.524Z" transform="translate(-77.4 -194.2)"/>
        </g>
        <path id="Path_1287" data-name="Path 1287" class="cls-5" d="M128.941,267.029a155.214,155.214,0,0,1-3.341,38.78s-23.094,8.86-35.73-.436c0,0-13.362-23.675-16.267-42.847C69.972,237.835,80.575,208.5,128.941,267.029Z" transform="translate(-45.276 -166.234)"/>
        <path id="Path_1288" data-name="Path 1288" class="cls-5" d="M86.416,234.548a48.358,48.358,0,0,0,15.831,1.307c8.86-.726,18.736.581,28.468,10.167,9.731,9.441,14.234,12.346,28.468,11.184,11.038-.871,22.8-12.636,27.741-33.406l10.457.726S193.751,304.7,119.1,272.892c0,0-37.182,6.681-41.539,2.469C73.344,271.149,65.5,232.95,86.416,234.548Z" transform="translate(-45.452 -170.354)"/>
      </g>
      <g id="Group_1104" data-name="Group 1104" transform="translate(194.424 0)">
        <g id="Group_1097" data-name="Group 1097" transform="translate(50.964)">
          <path id="Path_1289" data-name="Path 1289" class="cls-13" d="M191.39,45.343A18.978,18.978,0,0,1,173.089,42a12.216,12.216,0,0,1-3.922-5.81,6.725,6.725,0,0,1,1.743-6.536c1.743-1.6,4.5-2.033,5.955-3.922,1.743-2.324.726-5.664.291-8.715-.581-3.486.581-7.843,3.922-9.005,2.179-.726,4.793.145,6.972-.581s3.486-3.05,5.083-4.793c1.452-1.743,3.922-3.486,6.1-2.324a14.666,14.666,0,0,1,2.324,1.888c2.9,2.324,7.117,1.162,10.748.436,3.631-.871,8.424-.871,10.022,2.614,2.033,4.067-2.324,9.586.291,13.217a10.677,10.677,0,0,0,2.76,2.324c3.776,2.76,5.81,8.424,3.2,12.346-3.2,4.793-10.893,4.067-15.4,7.843" transform="translate(-168.95 0.059)"/>
        </g>
        <path id="Path_1290" data-name="Path 1290" class="cls-18" d="M207.609,68.705s-2.614-2.324-2.324-11.619c0,0,8.134,0,9.731-5.81s1.6-19.317,1.452-27.6c0,0,.581-4.648-5.665-7.843S188.872,11.48,186.548,17c-2.179,5.519-2.033,15.4-2.033,15.4a6.9,6.9,0,0,0-7.843-3.631c-5.519,1.162-2.76,19.172,7.262,12.636,0,0,2.76,23.82-4.793,24.11,0,0,.581,14.96,16.267,14.96C211.094,80.615,207.609,68.705,207.609,68.705Z" transform="translate(-115.759 6.035)"/>
        <path id="Path_1291" data-name="Path 1291" class="cls-32" d="M196.681,27.5a13.537,13.537,0,0,0,1.6,5.229c1.017,1.888.581,3.05-2.179,3.922" transform="translate(-105.703 12.528)"/>
        <g id="Group_1098" data-name="Group 1098" transform="translate(82.946 38.331)">
          <path id="Path_1292" data-name="Path 1292" class="cls-33" d="M192.466,26.431c.581.29.581,1.162.436,1.6a9.812,9.812,0,0,1-.29,2.033.837.837,0,0,1-1.6-.145c-.145-.726,0-4.212,1.452-3.486Z" transform="translate(-190.969 -26.332)"/>
        </g>
        <g id="Group_1099" data-name="Group 1099" transform="translate(93.048 38.96)">
          <path id="Path_1293" data-name="Path 1293" class="cls-33" d="M199.051,26.816c.581.29.726.871.726,1.6a10.991,10.991,0,0,1-.145,2.179c-.29.871-1.307.726-1.6-.145a6.25,6.25,0,0,1,0-2.324c0-.581.436-1.6,1.017-1.307Z" transform="translate(-197.925 -26.765)"/>
        </g>
        <path id="Path_1294" data-name="Path 1294" class="cls-32" d="M176.2,26.1s4.357-.436,5.374,6.681" transform="translate(-114.706 11.893)"/>
        <path id="Path_1295" data-name="Path 1295" class="cls-32" d="M176,28.968a5.128,5.128,0,0,1,4.648-.581" transform="translate(-114.796 12.803)"/>
        <g id="Group_1100" data-name="Group 1100" transform="translate(77.524 28.368)">
          <path id="Path_1296" data-name="Path 1296" class="cls-13" d="M195.317,22.853c.581-1.743-1.452-3.05-3.05-3.341a5.122,5.122,0,0,0-4.938,2.76.948.948,0,0,0,.726,1.307c1.162-.145,2.469-.436,3.631-.581,1.017,0,1.743.436,2.76.436a.715.715,0,0,0,.871-.581Z" transform="translate(-187.236 -19.472)"/>
        </g>
        <g id="Group_1101" data-name="Group 1101" transform="translate(92.232 29.994)">
          <path id="Path_1297" data-name="Path 1297" class="cls-13" d="M197.852,23.363c.436.29,1.017.145,1.452.29a10.7,10.7,0,0,0,2.033.581c-.145,0-.436-.145-.581-.145.581.29,1.6,1.162,2.033.29a3.618,3.618,0,0,0-.726-2.9,2.9,2.9,0,0,0-3.341-.581c-.871.436-2.033,1.888-.871,2.469Z" transform="translate(-197.363 -20.592)"/>
        </g>
        <g id="Group_1102" data-name="Group 1102" transform="translate(66.457 13.82)">
          <path id="Path_1298" data-name="Path 1298" class="cls-13" d="M180.609,30a13.558,13.558,0,0,0,1.743,4.793c3.631-3.486.436-10.6,4.212-13.943,1.307-1.307,3.2-1.6,5.084-1.743,3.486-.145,6.972.871,10.457,1.162s7.407-.436,9.731-3.2a2.956,2.956,0,0,0,.726-2.614,3.179,3.179,0,0,0-1.452-1.307,28.107,28.107,0,0,0-17.429-3.486,19.452,19.452,0,0,0-6.826,2.033c-6.391,3.486-9.15,12.491-5.81,19.027" transform="translate(-179.617 -9.456)"/>
        </g>
        <g id="Group_1103" data-name="Group 1103" transform="translate(79.847 48.191)">
          <path id="Path_1299" data-name="Path 1299" class="cls-34" d="M194.536,34.253c-1.743-1.307-2.9-1.307-3.776-.871a3.8,3.8,0,0,0-1.452,4.938,7.19,7.19,0,0,0,6.1,4.357c2.76,0,4.5-1.162,5.374-2.614s.436-3.341-1.452-3.631C195.844,36,196.134,35.705,194.536,34.253Z" transform="translate(-188.779 -33.121)"/>
          <path id="Path_1300" data-name="Path 1300" class="cls-9" d="M195.174,42.1a6.83,6.83,0,0,1-5.955-4.212,4.142,4.142,0,0,1,0-3.486c6.536.871,7.7,7.262,7.7,7.553C196.482,41.953,195.755,42.1,195.174,42.1Z" transform="translate(-188.836 -32.542)"/>
        </g>
        <path id="Path_1301" data-name="Path 1301" class="cls-18" d="M222.832,54.438l4.357-4.067s-5.519.145-12.491,0c-3.341-.145-7.7.436-6.826-6.972l-9.15.726-12.636,5.229a6.147,6.147,0,0,1-4.357,2.469c-2.614.145-11.038,0-13.653,2.614-2.76,2.614,18.591,15.251,31.372,15.251C212.23,69.834,222.832,54.438,222.832,54.438Z" transform="translate(-118.492 19.721)"/>
        <path id="Path_1302" data-name="Path 1302" class="cls-14" d="M183.3,51.1l-3.05.871s-27.306,9.441-41.685,35.294,6.245,65.069,34.277,75.091l6.1-7.407s-23.529-19.753-19.9-45.752S185.188,77.83,185.188,77.83h66.957l7.262-25.272L242.7,48.2,213.511,64.758Z" transform="translate(-133.861 21.893)"/>
        <path id="Path_1303" data-name="Path 1303" class="cls-35" d="M190.755,64.7s-6.681.581-11.329,1.452c-2.9.581-6.681,3.631-7.7,5.229s6.681-.726,10.022-2.76C185.236,66.443,188.722,68.186,190.755,64.7Z" transform="translate(-116.77 29.358)"/>
        <path id="Path_1304" data-name="Path 1304" class="cls-18" d="M205.5,65.571s-9.586-.871-14.379-1.162-9.441,1.6-19.317,6.826c0,0-2.614,2.179,2.614,1.452a37.917,37.917,0,0,0,9.15-2.179,7.817,7.817,0,0,0,6.826.726s9.731,2.469,13.508-1.017l4.357-.29-.436-4.5H205.5Z" transform="translate(-116.991 29.213)"/>
        <path id="Path_1305" data-name="Path 1305" class="cls-14" d="M208.7,48.2s49.237,6.245,67.1,24.691c0,0,5.374,5.664-14.815,6.1s-42.847-1.307-42.847-1.307l2.324-10.312Z" transform="translate(-100.002 21.893)"/>
        <path id="Path_1306" data-name="Path 1306" class="cls-10" d="M193.9,73.113V65.706s39.07-6.826,64.633-5.664c25.708,1.162,38.489,15.4,5.955,14.96C231.808,74.566,193.9,73.113,193.9,73.113Z" transform="translate(-106.698 27.19)"/>
        <path id="Path_1307" data-name="Path 1307" class="cls-18" d="M160.6,129.066s1.017,7.117,3.922,11.329,4.793,3.922,5.955,2.179c0,0,2.9.436,3.486-2.033,0,0,2.614,0,2.614-2.469,0,0,4.357,5.664,7.407,8.86,2.9,3.2,4.793,1.162,2.179-3.05-2.469-4.212-7.7-12.636-7.7-12.636s2.469-5.084-.145-7.407c-2.76-2.324-11.474-2.033-11.474-2.033Z" transform="translate(-121.764 55.188)"/>
        <path id="Path_1308" data-name="Path 1308" class="cls-32" d="M170.7,125.3a39.122,39.122,0,0,1,3.05,3.776" transform="translate(-117.194 56.775)"/>
        <path id="Path_1309" data-name="Path 1309" class="cls-10" d="M175.922,49.6s23.675,18.446,41.249-1.307c0,0,3.631-2.179,11.038.145,0,0-5.519,17.865-27.6,18.591C174.469,67.9,165.9,52.5,165.9,52.5S168.95,49.16,175.922,49.6Z" transform="translate(-119.366 21.514)"/>
      </g>
      <g id="Group_1110" data-name="Group 1110" transform="translate(376.354 81.422)">
        <path id="Path_1310" data-name="Path 1310" class="cls-36" d="M406.3,140.366l2.614-3.341s3.2,2.614,11.91-4.5c0-.29-1.307-16.412-.726-16.122-2.614-1.162-10.6,1.017-13.217,3.05C404.553,121.63,406.3,140.366,406.3,140.366Z" transform="translate(-192.817 -28.82)"/>
        <path id="Path_1311" data-name="Path 1311" class="cls-18" d="M420.172,127.441c.436,1.017-7.843,8.569-11.91,5.665l-1.162-6.391a9.558,9.558,0,0,1,8.86-1.452C421.043,127,420.172,127.441,420.172,127.441Z" transform="translate(-192.169 -24.899)"/>
        <g id="Group_1105" data-name="Group 1105" transform="translate(212.769 62.6)">
          <path id="Path_1312" data-name="Path 1312" class="cls-9" d="M407.591,103.893l-.291-3.2,2.76-1.6.436,4.793Z" transform="translate(-404.848 -99.1)"/>
          <path id="Path_1313" data-name="Path 1313" class="cls-13" d="M412.566,103.088c-1.017-.436-1.017-1.888-1.017-1.888l-1.452.145-.872.145-1.452.145a2.093,2.093,0,0,1-.581,2.179c-1.162.726-1.888,1.6-1.452,5.374.291,3.05,3.776,2.469,4.938,2.033,1.162.145,4.648,0,4.357-3.05C414.745,104.25,413.873,103.669,412.566,103.088Z" transform="translate(-405.612 -98.15)"/>
          <path id="Path_1314" data-name="Path 1314" class="cls-9" d="M415.823,138.773a2.775,2.775,0,1,0-2.469,3.05A2.688,2.688,0,0,0,415.823,138.773Z" transform="translate(-403.495 -82.273)"/>
          <rect id="Rectangle_386" data-name="Rectangle 386" class="cls-9" width="9.731" height="46.187" transform="translate(0.165 11.416) rotate(-6.131)"/>
          <rect id="Rectangle_387" data-name="Rectangle 387" class="cls-13" width="9.731" height="2.469" transform="translate(4.82 54.867) rotate(-6.131)"/>
          <rect id="Rectangle_388" data-name="Rectangle 388" class="cls-13" width="9.731" height="2.469" transform="translate(0.317 13.626) rotate(-6.131)"/>
          <path id="Path_1315" data-name="Path 1315" class="cls-13" d="M409.662,117.7h-.436a.813.813,0,0,0-.726.871l2.469,22.658a.813.813,0,0,0,.871.726h.436a.813.813,0,0,0,.726-.871l-2.469-22.658C410.533,117.99,410.243,117.7,409.662,117.7Z" transform="translate(-404.305 -90.685)"/>
          <path id="Path_1316" data-name="Path 1316" class="cls-13" d="M411.726,116.9h-.29c-.291,0-.436.291-.436.581l2.614,24.11c0,.29.291.436.581.436h.29c.291,0,.436-.29.436-.581l-2.614-24.11C412.307,117.045,412.017,116.9,411.726,116.9Z" transform="translate(-403.174 -91.047)"/>
        </g>
        <path id="Path_1317" data-name="Path 1317" class="cls-18" d="M409.824,139.2l-3.922,4.938-4.5-6.245,2.759-4.793s-2.759-12.636,2.033-15.105c3.631-1.743,5.374-2.033,6.536-2.9,3.631-2.324,4.793,2.614-4.067,6.681C408.807,121.767,414.762,130.772,409.824,139.2Z" transform="translate(-194.748 -29.538)"/>
        <path id="Path_1318" data-name="Path 1318" class="cls-37" d="M418.322,134.4s3.776-1.6,1.743-5.229c0,0,4.938-1.743,1.452-5.229,0,0,3.486-2.76-.436-4.648,0,0,2.9-4.793-2.469-4.793-5.374-.145-10.022,2.76-10.022,5.81,0,2.324,3.486,0,9.731-1.307,0,0-10.022,1.888-10.022,3.776.29,3.486,5.81,1.6,10.748,1.743,0,0-9.586-.145-9.3,2.179s9.731,2.76,9.731,2.76-8.569-1.6-9-.581C409.317,131.059,418.322,134.4,418.322,134.4Z" transform="translate(-191.626 -29.534)"/>
        <path id="Path_1319" data-name="Path 1319" class="cls-38" d="M397.7,135.072l6.826-6.972a72.4,72.4,0,0,1,6.972,6.1l-4.793,6.826Z" transform="translate(-196.422 -23.38)"/>
        <path id="Path_1320" data-name="Path 1320" class="cls-16" d="M342.135,132.381c.581,1.307,10.458,28.9,28.177,38.635,19.9,10.893,46.913,9.586,63.907-20.334a44.042,44.042,0,0,0-7.553-7.262s-18.155,13.8-34.132,8.134c-17.429-6.245-20.77-19.027-25.272-28.9-5.81-12.491-11.765-20.044-22.513-16.7-9.586,2.9-6.391,30.211-6.391,30.211" transform="translate(-223.501 -33.761)"/>
        <path id="Path_1321" data-name="Path 1321" class="cls-39" d="M311.271,119.293s3.776-.871,3.486-10.022c0,0-7.988,0-9.586-5.81s-1.6-19.027-1.452-27.16c0,0-.581-4.5,5.519-7.7,6.1-3.05,21.641-4.212,23.82,1.162,2.179,5.519,2.033,15.251,2.033,15.251a6.975,6.975,0,0,1,7.7-3.631c5.519,1.162,2.76,18.882-7.117,12.491,0,0-2.469,21.351,2.615,24.546l-13.943,13.943Z" transform="translate(-238.969 -51.464)"/>
        <path id="Path_1322" data-name="Path 1322" class="cls-10" d="M340.773,70.524S339.321,56,328.137,56c-12.491,0-11.329,8.86-21.06,9.15-19.753.436-9.441,24.256,6.536,10.893,4.5-3.776,15.541-6.245,21.641-.726v7.407s.145,5.81,2.469,2.76V89.7s-.145,2.179.871,2.179.726-3.631.726-3.631,2.324-2.324,4.212-2.614a33.69,33.69,0,0,1,2.033-4.5C349.487,74.3,343.387,69.362,340.773,70.524Z" transform="translate(-242.327 -56)"/>
        <path id="Path_1323" data-name="Path 1323" class="cls-32" d="M311.1,87.957a33.564,33.564,0,0,0,7.988-4.357" transform="translate(-235.603 -43.513)"/>
        <path id="Path_1324" data-name="Path 1324" class="cls-32" d="M311.278,77.9a13.107,13.107,0,0,1-1.888,5.084c-1.162,1.743-.726,2.9,1.888,3.922" transform="translate(-236.652 -46.092)"/>
        <g id="Group_1106" data-name="Group 1106" transform="translate(80.581 30.579)">
          <path id="Path_1325" data-name="Path 1325" class="cls-33" d="M315.181,77.121c-.581.29-.581,1.017-.581,1.6a7.672,7.672,0,0,0,.145,1.888c.291.726,1.307.871,1.452,0,.29-.726.436-4.067-1.017-3.486Z" transform="translate(-314.6 -77.054)"/>
        </g>
        <g id="Group_1107" data-name="Group 1107" transform="translate(70.64 30.6)">
          <path id="Path_1326" data-name="Path 1326" class="cls-33" d="M308.546,77.114a1.475,1.475,0,0,0-.726,1.452,9.521,9.521,0,0,0,0,2.033.74.74,0,0,0,1.452,0,11.731,11.731,0,0,0,.145-2.324c.145-.29-.145-1.452-.871-1.162Z" transform="translate(-307.755 -77.068)"/>
        </g>
        <path id="Path_1327" data-name="Path 1327" class="cls-16" d="M353.257,103.436,344.542,103l.581,4.357-11.474,8.715L320,106.2,321.3,103l-9.731.436s-18.446.871-25.272,3.776l5.083,36.746s4.212,56.935,6.391,75.091a40.523,40.523,0,0,0,22.513.145l-.145-11.474h24.837v11.329c12.346,3.486,23.094-16.993,23.094-16.993,2.179-18.155,5.519-59.55,5.519-59.55l5.083-35.294C371.7,104.307,353.257,103.436,353.257,103.436Z" transform="translate(-246.823 -34.736)"/>
        <path id="Path_1328" data-name="Path 1328" class="cls-39" d="M287.807,175.6s3.2,2.179,7.988,5.665c4.793,3.341,2.76,12.781,2.179,17.429s-2.324,15.105-3.05,18.01-2.76,3.05-2.324-2.9c.436-5.81.726-7.407.726-7.407s-3.631,8.279-4.648,10.022-3.05,0-.145-7.553l2.9-7.553s-7.262,4.938-9.877,6.245c-2.614,1.162-1.452-2.179,1.017-4.5s6.246-5.229,6.246-5.229-.726-9.3.436-12.2l-5.374-3.05Z" transform="translate(-249.637 -1.889)"/>
        <path id="Path_1329" data-name="Path 1329" class="cls-38" d="M288.477,173.8l5.083,4.793a48.853,48.853,0,0,0-4.648,8.569L278.6,180.481Z" transform="translate(-250.307 -2.704)"/>
        <path id="Path_1330" data-name="Path 1330" class="cls-40" d="M318.8,106.4s-16.412,2.9,3.2,16.993c0,0,13.8-15.977,2.179-16.412l-2.469,4.067Z" transform="translate(-235.028 -33.198)"/>
        <path id="Path_1331" data-name="Path 1331" class="cls-41" d="M323.136,118.71l-1.017-5.81h-5.229l-.29,5.519Z" transform="translate(-233.114 -30.257)"/>
        <path id="Path_1332" data-name="Path 1332" class="cls-9" d="M322.9,107.245l-5.81-.145-1.888,5.374,2.469,3.631H322.9l2.469-3.631Z" transform="translate(-233.748 -32.881)"/>
        <path id="Path_1333" data-name="Path 1333" class="cls-38" d="M303.7,103.481s11.329,19.317,22.513,26.579c0,0,10.893-7.843,17.865-26.579a7,7,0,0,0-5.519,0s-5.229,11.91-12.927,19.753c0,0-13.653-15.541-16.122-20.044A11.571,11.571,0,0,0,303.7,103.481Z" transform="translate(-238.951 -34.781)"/>
        <path id="Path_1334" data-name="Path 1334" class="cls-12" d="M320.4,110.138,328.388,99.1s2.179,4.648,5.229,5.374l-6.826,20.479Z" transform="translate(-231.395 -36.5)"/>
        <path id="Path_1335" data-name="Path 1335" class="cls-12" d="M321.415,109.658,313.426,99.2s-3.776,5.374-6.827,5.374l9.15,20.479Z" transform="translate(-237.639 -36.455)"/>
        <path id="Path_1336" data-name="Path 1336" class="cls-41" d="M315.665,322.9a94.194,94.194,0,0,1,0,11.474c-.436,3.921-18.882,13.508-30.065,15.977,0,0,16.7-12.781,19.172-17.429a25.665,25.665,0,0,0,2.614-10.022Z" transform="translate(-247.14 64.754)"/>
        <path id="Path_1337" data-name="Path 1337" class="cls-41" d="M330.06,322.9a94.188,94.188,0,0,0,0,11.474c.436,3.921,18.882,13.508,30.065,15.977,0,0-16.7-12.781-19.172-17.429a25.661,25.661,0,0,1-2.614-10.022Z" transform="translate(-227.112 64.754)"/>
        <path id="Path_1338" data-name="Path 1338" class="cls-13" d="M365.041,179.869V171.3H293v8.569s.581,176.47,5.083,217.574c0,0,9.731,2.614,15.977,0,0,0,7.262-113.29,10.893-191.576h9.441c3.631,78.141,10.893,191.576,10.893,191.576,6.245,2.614,15.977,0,15.977,0C365.186,356.34,365.041,179.869,365.041,179.869Z" transform="translate(-243.792 -3.835)"/>
        <path id="Path_1339" data-name="Path 1339" class="cls-16" d="M299.469,105.8c-7.117,2.469-28.177,17.72-36.456,39.07-9.005,22.948-3.631,53.449,29.339,69.571a39.132,39.132,0,0,1,5.084-9.877s-11.474-14.96-13.8-25.418c-3.341-14.67,3.341-32.389,20.334-36.311" transform="translate(-259.12 -33.469)"/>
        <g id="Group_1108" data-name="Group 1108" transform="translate(79.396 23.931)">
          <path id="Path_1340" data-name="Path 1340" class="cls-10" d="M314.969,76.432c.872-.145,1.743-.436,2.76-.581a18.52,18.52,0,0,0,2.76.145c.872-.145,1.888-1.162,1.162-2.033a4.269,4.269,0,0,0-4.067-1.452c-1.307.145-3.05.726-3.631,2.033-.436.871,0,2.033,1.017,1.888Z" transform="translate(-313.784 -72.477)"/>
        </g>
        <g id="Group_1109" data-name="Group 1109" transform="translate(68.327 25.701)">
          <path id="Path_1341" data-name="Path 1341" class="cls-10" d="M310.429,76.462a6.549,6.549,0,0,1-1.452-2.033,1.513,1.513,0,0,0-2.76,1.162,3.756,3.756,0,0,0,3.776,2.76,1.009,1.009,0,0,0,.436-1.888Z" transform="translate(-306.163 -73.695)"/>
        </g>
        <path id="Path_1342" data-name="Path 1342" class="cls-32" d="M331.929,78.7s-4.358-.436-5.229,6.681" transform="translate(-228.545 -45.731)"/>
        <path id="Path_1343" data-name="Path 1343" class="cls-32" d="M331.8,81.468a4.91,4.91,0,0,0-4.5-.581" transform="translate(-228.273 -44.866)"/>
        <path id="Path_1344" data-name="Path 1344" class="cls-10" d="M320.248,175.824a2.324,2.324,0,1,0-2.324,2.324A2.294,2.294,0,0,0,320.248,175.824Z" transform="translate(-233.567 -2.839)"/>
        <path id="Path_1345" data-name="Path 1345" class="cls-16" d="M292.6,167.3h73.2l-.581,5.81H293.036Z" transform="translate(-243.973 -5.645)"/>
      </g>
      <g id="Group_1114" data-name="Group 1114" transform="translate(0 347.798)">
        <g id="Group_1111" data-name="Group 1111" transform="translate(42.018 40.232)">
          <path id="Path_1346" data-name="Path 1346" class="cls-10" d="M29.468,332.169s-7.7-35.73,35.149-65.069Z" transform="translate(-28.93 -267.1)"/>
          <path id="Path_1347" data-name="Path 1347" class="cls-14" d="M29.2,332.369S63.913,317.99,64.349,267.3Z" transform="translate(-28.807 -267.009)"/>
        </g>
        <g id="Group_1112" data-name="Group 1112" transform="translate(0 40.232)">
          <path id="Path_1348" data-name="Path 1348" class="cls-14" d="M35.149,332.169S42.847,296.439,0,267.1Z" transform="translate(0 -267.1)"/>
          <path id="Path_1349" data-name="Path 1349" class="cls-10" d="M35.249,332.369S.536,317.99.1,267.3Z" transform="translate(0.045 -267.009)"/>
        </g>
        <g id="Group_1113" data-name="Group 1113" transform="translate(23.465)">
          <path id="Path_1350" data-name="Path 1350" class="cls-10" d="M31.325,342.087s-34.132-39.506,0-102.687Z" transform="translate(-16.156 -239.4)"/>
          <path id="Path_1351" data-name="Path 1351" class="cls-14" d="M26.6,342.487s34.132-39.506,0-102.687Z" transform="translate(-11.43 -239.219)"/>
        </g>
        <path id="Path_1352" data-name="Path 1352" class="cls-13" d="M5.8,306.6H67.819s0,48.511-31.082,48.511S5.8,306.6,5.8,306.6Z" transform="translate(2.624 -208.997)"/>
      </g>
    </g>
  </g>
</svg>
