<svg xmlns="http://www.w3.org/2000/svg" viewBox="0 0 40 40">
  <defs>
    <style>
      .cls-1 {
        fill: #1e2969;
      }

      .cls-2, .cls-4 {
        fill: none;
      }

      .cls-2 {
        stroke: #fff;
        opacity: 0.1;
      }

      .cls-3 {
        stroke: none;
      }
    </style>
  </defs>
  <g id="Group_590" data-name="Group 590" transform="translate(-14849 298)">
    <path id="rocket" class="cls-1" d="M35.307,1.343a.839.839,0,0,0-.619-.619A19.263,19.263,0,0,0,28.711,0C23.886,0,19.7,3.158,16.488,6.751H7.521A2.233,2.233,0,0,0,5.58,7.87l-5.253,9a2.252,2.252,0,0,0,1.941,3.383H8.083c-.6,1.343-1.006,2.356-1.308,3.137a.838.838,0,0,0,.19.9l4.761,4.761a.841.841,0,0,0,.9.19c.788-.3,1.793-.7,3.137-1.308v5.823A2.247,2.247,0,0,0,19.146,35.7l9-5.253A2.256,2.256,0,0,0,29.266,28.5V19.537c3.594-3.214,6.751-7.4,6.751-12.223a19.134,19.134,0,0,0-.71-5.971ZM2.267,18,7.521,9h7.11a54.988,54.988,0,0,0-5.493,9ZM18.021,33.757V26.886a54.5,54.5,0,0,0,9-5.493V28.5Zm-5.352-6.941L9.216,23.363c3.291-8.179,10.76-21.112,19.5-21.112a16.633,16.633,0,0,1,4.606.457,16.858,16.858,0,0,1,.45,4.606C33.774,16.056,20.827,23.525,12.669,26.816ZM25.9,6.189a3.938,3.938,0,1,0,3.938,3.938A3.941,3.941,0,0,0,25.9,6.189Zm0,5.626a1.688,1.688,0,1,1,1.688-1.688A1.693,1.693,0,0,1,25.9,11.815Z" transform="translate(14850.981 -296)"/>
    <g id="Rectangle_303" data-name="Rectangle 303" class="cls-2" transform="translate(14849 -298)">
      <rect class="cls-3" width="40" height="40"/>
      <rect class="cls-4" x="0.5" y="0.5" width="39" height="39"/>
    </g>
  </g>
</svg>
