<svg xmlns="http://www.w3.org/2000/svg" viewBox="0 0 40 40">
  <defs>
    <style>
      .cls-1 {
        fill: #1e2969;
      }

      .cls-2, .cls-4 {
        fill: none;
      }

      .cls-2 {
        stroke: #fff;
        opacity: 0.1;
      }

      .cls-3 {
        stroke: none;
      }
    </style>
  </defs>
  <g id="Group_589" data-name="Group 589" transform="translate(-14849 381)">
    <path id="flag" class="cls-1" d="M24.212,5.25c-3.98,0-7.165-2.438-12.082-2.438A14.591,14.591,0,0,0,6.719,3.829,3.375,3.375,0,1,0,2.25,6.557v28.6A.844.844,0,0,0,3.094,36h.563a.844.844,0,0,0,.844-.844v-8.55a21.309,21.309,0,0,1,9.538-2.044C18.018,24.563,21.2,27,26.12,27a15.748,15.748,0,0,0,9.141-3.02,1.685,1.685,0,0,0,.739-1.4V4.185a1.687,1.687,0,0,0-2.4-1.53C31.015,3.856,27.536,5.25,24.212,5.25ZM3.375,1.969A1.406,1.406,0,1,1,1.969,3.375,1.408,1.408,0,0,1,3.375,1.969ZM33.75,22.313a13.84,13.84,0,0,1-7.63,2.438c-4.473,0-7.611-2.438-12.082-2.438A25.135,25.135,0,0,0,4.5,24.141V7.5a13.84,13.84,0,0,1,7.63-2.438C16.6,5.063,19.742,7.5,24.212,7.5A25.1,25.1,0,0,0,33.75,5.063Z" transform="translate(14851 -379)"/>
    <g id="Rectangle_302" data-name="Rectangle 302" class="cls-2" transform="translate(14849 -381)">
      <rect class="cls-3" width="40" height="40"/>
      <rect class="cls-4" x="0.5" y="0.5" width="39" height="39"/>
    </g>
  </g>
</svg>
