<svg xmlns="http://www.w3.org/2000/svg" viewBox="0 0 40 40">
  <defs>
    <style>
      .cls-1 {
        fill: #1e2969;
        stroke: #1e2969;
        stroke-width: 0.8px;
      }

      .cls-2, .cls-4 {
        fill: none;
      }

      .cls-2 {
        stroke: #fff;
        opacity: 0.1;
      }

      .cls-3 {
        stroke: none;
      }
    </style>
  </defs>
  <g id="Group_588" data-name="Group 588" transform="translate(-14849 460)">
    <g id="Group_579" data-name="Group 579" transform="translate(14850.994 -458.012)">
      <path id="Path_458" data-name="Path 458" class="cls-1" d="M36.006,19.087c-.091.661-.162,1.322-.267,1.977A18.141,18.141,0,0,1,21.987,35.582.749.749,0,0,1,21,34.773c-.007-1.78.007-3.566-.007-5.346a7.253,7.253,0,0,0-.57-3.222.712.712,0,0,1,.556-1.013,12.526,12.526,0,0,0,3.285-1.308,9.266,9.266,0,0,0,2.778-2.448,6.677,6.677,0,0,0-.267-8.631,1.548,1.548,0,0,1-.4-1.836,3.663,3.663,0,0,0-.141-2.877c-.063-.148-.155-.281-.239-.443a6.949,6.949,0,0,0-2.6,1.787.97.97,0,0,1-1.182.3,12.748,12.748,0,0,0-8.448,0,.956.956,0,0,1-1.154-.288,6.736,6.736,0,0,0-2.617-1.78,3.414,3.414,0,0,0-.57,1.766,3.858,3.858,0,0,0,.3,1.927.87.87,0,0,1-.19,1.055A7.07,7.07,0,0,0,7.588,16.2a6.761,6.761,0,0,0,1.7,5.662,10.314,10.314,0,0,0,4.959,3.116c.619.19.76.359.746,1.006a4.984,4.984,0,0,1-.1,1.076,1.9,1.9,0,0,1-1.737,1.456,3.718,3.718,0,0,1-2.392-.542c-.535-.338-1.041-.717-1.562-1.076a5.728,5.728,0,0,0-.95-.563,2.047,2.047,0,0,0,.12.211c.6.76,1.175,1.547,1.829,2.265a3.583,3.583,0,0,0,2.982,1.231c.352-.021.7-.014,1.055,0a.7.7,0,0,1,.746.753c.007,1.351.007,2.694,0,4.045a.738.738,0,0,1-.978.739A18,18,0,1,1,35.583,14.206c.169.8.239,1.618.359,2.427.014.091.042.183.056.274C36.006,17.631,36.006,18.363,36.006,19.087ZM13.482,31.538c-.12,0-.2-.007-.281,0a5.027,5.027,0,0,1-4.178-1.78c-.654-.717-1.224-1.512-1.829-2.272-.4-.506-.774-1.034-1.21-1.5a1.724,1.724,0,0,0-.767-.429c-.457-.127-.739-.4-.71-.816a.739.739,0,0,1,.851-.7,13.466,13.466,0,0,1,1.843.232,8.065,8.065,0,0,1,3.081,1.547c.415.3.837.6,1.273.872A2.315,2.315,0,0,0,13,27.036a.526.526,0,0,0,.492-.506c.056-.3-.2-.274-.352-.331a12,12,0,0,1-4.516-2.835A8.225,8.225,0,0,1,7.581,12.511,2.266,2.266,0,0,0,8.017,10.6,4.982,4.982,0,0,1,9.086,6.412a.876.876,0,0,1,1.062-.3,8.657,8.657,0,0,1,3.165,1.9.5.5,0,0,0,.556.134,14.426,14.426,0,0,1,8.279,0,.487.487,0,0,0,.556-.127,8.393,8.393,0,0,1,3.067-1.864c.626-.218.851-.162,1.245.366a5.4,5.4,0,0,1,.858,4.8.59.59,0,0,0,.127.591,8.19,8.19,0,0,1,.084,10.657A11.573,11.573,0,0,1,22.88,26.2c-.239.084-.478.169-.7.246.6,2.476.2,4.959.359,7.421a16.525,16.525,0,1,0-9.053-.007C13.482,33.092,13.482,32.333,13.482,31.538Z" transform="translate(0 0)"/>
    </g>
    <g id="Rectangle_301" data-name="Rectangle 301" class="cls-2" transform="translate(14849 -460)">
      <rect class="cls-3" width="40" height="40"/>
      <rect class="cls-4" x="0.5" y="0.5" width="39" height="39"/>
    </g>
  </g>
</svg>
