<svg xmlns="http://www.w3.org/2000/svg" viewBox="0 0 40 40">
  <defs>
    <style>
      .cls-1 {
        fill: #1e2969;
      }

      .cls-2, .cls-4 {
        fill: none;
      }

      .cls-2 {
        stroke: #fff;
        opacity: 0.1;
      }

      .cls-3 {
        stroke: none;
      }
    </style>
  </defs>
  <g id="Group_594" data-name="Group 594" transform="translate(-14849 669)">
    <path id="lock" class="cls-1" d="M28.571,16H27.429V11.535a11.429,11.429,0,1,0-22.857-.107V16H3.429A3.429,3.429,0,0,0,0,19.428V33.142a3.429,3.429,0,0,0,3.429,3.429H28.571A3.429,3.429,0,0,0,32,33.142V19.428A3.429,3.429,0,0,0,28.571,16ZM6.857,11.428a9.143,9.143,0,0,1,18.286,0V16H6.857ZM28.571,34.285H3.429a1.146,1.146,0,0,1-1.143-1.143V19.428a1.146,1.146,0,0,1,1.143-1.143H28.571a1.146,1.146,0,0,1,1.143,1.143V33.142A1.146,1.146,0,0,1,28.571,34.285Z" transform="translate(14853 -666.999)"/>
    <g id="Rectangle_307" data-name="Rectangle 307" class="cls-2" transform="translate(14849 -669)">
      <rect class="cls-3" width="40" height="40"/>
      <rect class="cls-4" x="0.5" y="0.5" width="39" height="39"/>
    </g>
  </g>
</svg>
