<svg xmlns="http://www.w3.org/2000/svg" viewBox="0 0 40 40">
  <defs>
    <style>
      .cls-1 {
        fill: #1e2969;
      }

      .cls-2, .cls-4 {
        fill: none;
      }

      .cls-2 {
        stroke: #fff;
        opacity: 0.1;
      }

      .cls-3 {
        stroke: none;
      }
    </style>
  </defs>
  <g id="Group_595" data-name="Group 595" transform="translate(-14849 589)">
    <path id="compass" class="cls-1" d="M26,8A18,18,0,1,0,44,26,18,18,0,0,0,26,8ZM41.677,26A15.677,15.677,0,1,1,26,10.323,15.676,15.676,0,0,1,41.677,26ZM30.935,17.452l-2.421,10-7.45,7.1,2.421-10,7.45-7.1m-1.6-1.682-7.45,7.1A2.322,2.322,0,0,0,21.228,24L18.807,34a2.324,2.324,0,0,0,3.859,2.228l7.45-7.1A2.322,2.322,0,0,0,30.772,28l2.421-10a2.323,2.323,0,0,0-3.859-2.228ZM27.742,26A1.742,1.742,0,1,1,26,24.258,1.742,1.742,0,0,1,27.742,26Z" transform="translate(14843 -595)"/>
    <g id="Rectangle_306" data-name="Rectangle 306" class="cls-2" transform="translate(14849 -589)">
      <rect class="cls-3" width="40" height="40"/>
      <rect class="cls-4" x="0.5" y="0.5" width="39" height="39"/>
    </g>
  </g>
</svg>
