<svg xmlns="http://www.w3.org/2000/svg" viewBox="0 0 40 40">
  <defs>
    <style>
      .cls-1 {
        fill: #1e2969;
      }

      .cls-2, .cls-3, .cls-5 {
        fill: none;
      }

      .cls-2 {
        stroke: #1e2969;
        stroke-linecap: round;
        stroke-width: 3px;
      }

      .cls-3 {
        stroke: #fff;
        opacity: 0.1;
      }

      .cls-4 {
        stroke: none;
      }
    </style>
  </defs>
  <g id="Group_592" data-name="Group 592" transform="translate(-14849 142)">
    <g id="Group_580" data-name="Group 580" transform="translate(14809 -641)">
      <path id="sticky-note" class="cls-1" d="M36,57.4V35.857A3.857,3.857,0,0,0,32.143,32H3.857A3.857,3.857,0,0,0,0,35.857V64.142A3.857,3.857,0,0,0,3.857,68H25.4a3.857,3.857,0,0,0,2.727-1.13l6.741-6.741A3.857,3.857,0,0,0,36,57.4Zm-9.689,7.65a1.277,1.277,0,0,1-.6.337V57.713h7.675a1.276,1.276,0,0,1-.337.6Zm7.117-29.194V55.142H25.071a1.929,1.929,0,0,0-1.929,1.929v8.357H3.857a1.286,1.286,0,0,1-1.286-1.286V35.857a1.286,1.286,0,0,1,1.286-1.286H32.143A1.286,1.286,0,0,1,33.429,35.857Z" transform="translate(42 469)"/>
      <path id="Path_459" data-name="Path 459" class="cls-2" d="M14412.415,532.3h20.725" transform="translate(-14363 -21)"/>
      <path id="Path_460" data-name="Path 460" class="cls-2" d="M14412.415,532.3h20.725" transform="translate(-14363 -13)"/>
    </g>
    <g id="Rectangle_305" data-name="Rectangle 305" class="cls-3" transform="translate(14849 -142)">
      <rect class="cls-4" width="40" height="40"/>
      <rect class="cls-5" x="0.5" y="0.5" width="39" height="39"/>
    </g>
  </g>
</svg>
