<svg xmlns="http://www.w3.org/2000/svg" viewBox="0 0 40 40">
  <defs>
    <style>
      .cls-1, .cls-3, .cls-5 {
        fill: none;
      }

      .cls-1 {
        stroke: #1e2969;
        stroke-width: 3px;
      }

      .cls-2 {
        fill: #1e2969;
      }

      .cls-3 {
        stroke: #fff;
        opacity: 0.1;
      }

      .cls-4 {
        stroke: none;
      }
    </style>
  </defs>
  <g id="Group_591" data-name="Group 591" transform="translate(-14849 221)">
    <g id="Group_584" data-name="Group 584" transform="translate(14809 -641)">
      <g id="Rectangle_298" data-name="Rectangle 298" class="cls-1" transform="translate(42 422)">
        <path class="cls-4" d="M10,0H26A10,10,0,0,1,36,10V32a4,4,0,0,1-4,4H4a4,4,0,0,1-4-4V10A10,10,0,0,1,10,0Z"/>
        <path class="cls-5" d="M10,1.5H26A8.5,8.5,0,0,1,34.5,10V32A2.5,2.5,0,0,1,32,34.5H4A2.5,2.5,0,0,1,1.5,32V10A8.5,8.5,0,0,1,10,1.5Z"/>
      </g>
      <g id="Group_583" data-name="Group 583" transform="translate(0 -3)">
        <g id="Ellipse_91" data-name="Ellipse 91" class="cls-1" transform="translate(49 434)">
          <circle class="cls-4" cx="4.5" cy="4.5" r="4.5"/>
          <circle class="cls-5" cx="4.5" cy="4.5" r="3"/>
        </g>
        <g id="Ellipse_92" data-name="Ellipse 92" class="cls-1" transform="translate(62 434)">
          <circle class="cls-4" cx="4.5" cy="4.5" r="4.5"/>
          <circle class="cls-5" cx="4.5" cy="4.5" r="3"/>
        </g>
      </g>
      <rect id="Rectangle_299" data-name="Rectangle 299" class="cls-2" width="22" height="6" rx="3" transform="translate(49 444)"/>
    </g>
    <g id="Rectangle_304" data-name="Rectangle 304" class="cls-3" transform="translate(14849 -221)">
      <rect class="cls-4" width="40" height="40"/>
      <rect class="cls-5" x="0.5" y="0.5" width="39" height="39"/>
    </g>
  </g>
</svg>
