<svg xmlns="http://www.w3.org/2000/svg" viewBox="0 0 40 40">
  <defs>
    <style>
      .cls-1 {
        fill: #1e2969;
      }

      .cls-2, .cls-4 {
        fill: none;
      }

      .cls-2 {
        stroke: #fff;
        opacity: 0.1;
      }

      .cls-3 {
        stroke: none;
      }
    </style>
  </defs>
  <g id="Group_596" data-name="Group 596" transform="translate(-14849 534)">
    <path id="address-card" class="cls-1" d="M32.625,64H3.375A3.375,3.375,0,0,0,0,67.375v20.25A3.375,3.375,0,0,0,3.375,91h29.25A3.375,3.375,0,0,0,36,87.625V67.375A3.375,3.375,0,0,0,32.625,64ZM33.75,87.625a1.126,1.126,0,0,1-1.125,1.125H3.375A1.126,1.126,0,0,1,2.25,87.625V67.375A1.126,1.126,0,0,1,3.375,66.25h29.25a1.126,1.126,0,0,1,1.125,1.125ZM30.656,82H23.344a.844.844,0,0,1-.844-.844v-.562a.844.844,0,0,1,.844-.844h7.313a.844.844,0,0,1,.844.844v.563A.844.844,0,0,1,30.656,82Zm0-4.5H23.344a.844.844,0,0,1-.844-.844v-.562a.844.844,0,0,1,.844-.844h7.313a.844.844,0,0,1,.844.844v.563A.844.844,0,0,1,30.656,77.5Zm0-4.5H23.344a.844.844,0,0,1-.844-.844v-.562a.844.844,0,0,1,.844-.844h7.313a.844.844,0,0,1,.844.844v.563A.844.844,0,0,1,30.656,73ZM16.764,77.637a5.625,5.625,0,1,0-8.779,0A5.073,5.073,0,0,0,4.5,82.447v.959A3.1,3.1,0,0,0,7.594,86.5h9.563a3.1,3.1,0,0,0,3.094-3.094v-.959A5.078,5.078,0,0,0,16.764,77.637ZM12.375,70.75A3.375,3.375,0,1,1,9,74.125,3.375,3.375,0,0,1,12.375,70.75ZM18,83.406a.844.844,0,0,1-.844.844H7.594a.844.844,0,0,1-.844-.844v-.959a2.812,2.812,0,0,1,2.04-2.7l1.451-.415a5.611,5.611,0,0,0,4.268,0l1.451.415a2.813,2.813,0,0,1,2.04,2.7Z" transform="translate(14851 -591)"/>
    <g id="Rectangle_300" data-name="Rectangle 300" class="cls-2" transform="translate(14849 -534)">
      <rect class="cls-3" width="40" height="40"/>
      <rect class="cls-4" x="0.5" y="0.5" width="39" height="39"/>
    </g>
  </g>
</svg>
