<svg xmlns="http://www.w3.org/2000/svg" xmlns:xlink="http://www.w3.org/1999/xlink" viewBox="0 0 2400 900">
  <defs>
    <style>
      .cls-1 {
        fill: #fff;
      }

      .cls-2 {
        clip-path: url(#clip-path);
      }

      .cls-3 {
        fill: url(#linear-gradient);
      }

      .cls-4 {
        fill: url(#linear-gradient-2);
      }

      .cls-5 {
        fill: #451fad;
      }

      .cls-6 {
        fill: #ebe8fa;
      }

      .cls-7 {
        fill: #b6c3f4;
      }

      .cls-38, .cls-8 {
        fill: #98abef;
      }

      .cls-11, .cls-8 {
        stroke: #98abef;
      }

      .cls-11, .cls-17, .cls-32, .cls-8 {
        stroke-miterlimit: 10;
      }

      .cls-8 {
        stroke-width: 0.25px;
      }

      .cls-9 {
        fill: #d3196a;
      }

      .cls-10 {
        fill: #f7cb2d;
      }

      .cls-11, .cls-17, .cls-32 {
        fill: none;
      }

      .cls-11, .cls-17 {
        stroke-width: 0.5px;
      }

      .cls-12 {
        fill: #f2eafa;
      }

      .cls-13 {
        fill: #100c82;
      }

      .cls-14 {
        fill: #f7aa2d;
      }

      .cls-15 {
        fill: #4e69d1;
      }

      .cls-16 {
        fill: #6c88ef;
      }

      .cls-17 {
        stroke: #4e69d1;
      }

      .cls-18 {
        fill: #ff979c;
      }

      .cls-19 {
        fill: #e3eaff;
      }

      .cls-20 {
        fill: #6db8ff;
      }

      .cls-21 {
        fill: #9570ee;
      }

      .cls-22 {
        fill: #f9fbfc;
      }

      .cls-23 {
        fill: #cdd4ff;
      }

      .cls-24 {
        fill: #ffc240;
      }

      .cls-25 {
        fill: #90c240;
      }

      .cls-26 {
        fill: #eb4f24;
      }

      .cls-27 {
        fill: #544db8;
      }

      .cls-28 {
        fill: #0cf;
      }

      .cls-29 {
        fill: #ff56a9;
      }

      .cls-30 {
        fill: #ffc359;
      }

      .cls-31 {
        fill: #ff4dd1;
      }

      .cls-32 {
        stroke: #eb5772;
        stroke-linecap: round;
        stroke-width: 0.4px;
      }

      .cls-33 {
        fill: #4a31b2;
      }

      .cls-34 {
        fill: #5b0c24;
      }

      .cls-35 {
        fill: #f0767b;
      }

      .cls-36 {
        fill: #f59196;
      }

      .cls-37 {
        fill: #ffa6aa;
      }

      .cls-39 {
        fill: #ff9e9e;
      }

      .cls-40 {
        fill: #e1d9e8;
      }

      .cls-41 {
        fill: #b00e54;
      }
    </style>
    <clipPath id="clip-path">
      <rect id="Rectangle_401" data-name="Rectangle 401" class="cls-1" width="2400" height="900"/>
    </clipPath>
    <linearGradient id="linear-gradient" x1="-0.457" y1="1.463" x2="1" gradientUnits="objectBoundingBox">
      <stop offset="0" stop-color="#000081"/>
      <stop offset="1" stop-color="#17b3c7"/>
    </linearGradient>
    <linearGradient id="linear-gradient-2" y1="0.5" x2="1" y2="0.5" gradientUnits="objectBoundingBox">
      <stop offset="0" stop-color="#09469c"/>
      <stop offset="1" stop-color="#16abc4"/>
    </linearGradient>
  </defs>
  <g id="Group_1131" data-name="Group 1131" transform="translate(-5477 -1776)">
    <g id="Group_1130" data-name="Group 1130" transform="translate(5477 1776)">
      <rect id="Rectangle_395" data-name="Rectangle 395" class="cls-1" width="2400" height="900" transform="translate(0 0)"/>
      <g id="Mask_Group_30" data-name="Mask Group 30" class="cls-2" transform="translate(0 0)">
        <g id="Group_1118" data-name="Group 1118" transform="translate(-43.873 -109)">
          <rect id="Rectangle_396" data-name="Rectangle 396" class="cls-3" width="2400" height="907.589" transform="translate(43.873 105.281)"/>
          <rect id="Rectangle_397" data-name="Rectangle 397" class="cls-4" width="539.288" height="86.262" rx="43.131" transform="translate(1366.419 74.705) rotate(150)"/>
          <rect id="Rectangle_402" data-name="Rectangle 402" class="cls-4" width="624.288" height="86.262" rx="43.131" transform="translate(690.031 102.205) rotate(150)"/>
          <rect id="Rectangle_403" data-name="Rectangle 403" class="cls-4" width="706.788" height="86.262" rx="43.131" transform="translate(655.228 704.705) rotate(150)"/>
          <rect id="Rectangle_404" data-name="Rectangle 404" class="cls-4" width="574.288" height="86.262" rx="43.131" transform="translate(1452.979 815.955) rotate(150)"/>
        </g>
      </g>
      <g id="Group_1127" data-name="Group 1127" transform="translate(271.642 128.857)">
        <g id="Group_1087" data-name="Group 1087" transform="translate(78.577 106.551)">
          <rect id="Rectangle_380" data-name="Rectangle 380" class="cls-5" width="542.61" height="409.419" transform="translate(0 20.62)"/>
          <rect id="Rectangle_381" data-name="Rectangle 381" class="cls-6" width="524.591" height="383.784" transform="translate(9.102 37.71)"/>
          <g id="Group_1083" data-name="Group 1083" transform="translate(41.982 120.931)">
            <path id="Path_1232" data-name="Path 1232" class="cls-7" d="M106.325,122.4H69.544a4.6,4.6,0,0,0-4.644,4.644v.743a4.6,4.6,0,0,0,4.644,4.644h36.781a4.6,4.6,0,0,0,4.644-4.644v-.743A4.848,4.848,0,0,0,106.325,122.4Z" transform="translate(-64.9 -122.4)"/>
            <path id="Path_1233" data-name="Path 1233" class="cls-7" d="M143.325,122.4H106.544a4.6,4.6,0,0,0-4.644,4.644v.743a4.6,4.6,0,0,0,4.644,4.644h36.781a4.6,4.6,0,0,0,4.644-4.644v-.743A4.848,4.848,0,0,0,143.325,122.4Z" transform="translate(-33.168 -122.4)"/>
            <path id="Path_1234" data-name="Path 1234" class="cls-7" d="M180.325,122.4H143.544a4.6,4.6,0,0,0-4.644,4.644v.743a4.6,4.6,0,0,0,4.644,4.644h36.781a4.6,4.6,0,0,0,4.644-4.644v-.743A4.6,4.6,0,0,0,180.325,122.4Z" transform="translate(-1.436 -122.4)"/>
            <path id="Path_1235" data-name="Path 1235" class="cls-7" d="M217.325,122.4H180.544a4.6,4.6,0,0,0-4.644,4.644v.743a4.6,4.6,0,0,0,4.644,4.644h36.781a4.6,4.6,0,0,0,4.644-4.644v-.743A4.6,4.6,0,0,0,217.325,122.4Z" transform="translate(30.295 -122.4)"/>
            <path id="Path_1236" data-name="Path 1236" class="cls-7" d="M254.425,122.4H217.644A4.6,4.6,0,0,0,213,127.044v.743a4.6,4.6,0,0,0,4.644,4.644h36.781a4.6,4.6,0,0,0,4.644-4.644v-.743A4.848,4.848,0,0,0,254.425,122.4Z" transform="translate(62.113 -122.4)"/>
            <path id="Path_1237" data-name="Path 1237" class="cls-7" d="M291.425,122.4H254.644A4.6,4.6,0,0,0,250,127.044v.743a4.6,4.6,0,0,0,4.644,4.644h36.781a4.6,4.6,0,0,0,4.644-4.644v-.743A4.848,4.848,0,0,0,291.425,122.4Z" transform="translate(93.845 -122.4)"/>
            <path id="Path_1238" data-name="Path 1238" class="cls-8" d="M328.425,122.4H291.644A4.6,4.6,0,0,0,287,127.044v.743a4.6,4.6,0,0,0,4.644,4.644h36.781a4.6,4.6,0,0,0,4.644-4.644v-.743A4.6,4.6,0,0,0,328.425,122.4Z" transform="translate(125.577 -122.4)"/>
          </g>
          <rect id="Rectangle_382" data-name="Rectangle 382" class="cls-9" width="524.591" height="70.961" transform="translate(9.102 27.678)"/>
          <path id="Path_1239" data-name="Path 1239" class="cls-10" d="M231.79,166.5l5.573,12.632,12.818,1.486-10.217,8.731,3.158,14.118-11.331-7.43-11.517,7.43,3.158-14.118L213.4,180.618l12.632-1.486Z" transform="translate(104.438 36.352)"/>
          <g id="Group_1084" data-name="Group 1084" transform="translate(101.426 142.851)">
            <line id="Line_87" data-name="Line 87" class="cls-11" y2="263.039"/>
            <line id="Line_88" data-name="Line 88" class="cls-11" y2="263.039" transform="translate(67.989)"/>
            <line id="Line_89" data-name="Line 89" class="cls-11" y2="263.039" transform="translate(135.978)"/>
            <line id="Line_90" data-name="Line 90" class="cls-11" y2="263.039" transform="translate(203.781)"/>
            <line id="Line_91" data-name="Line 91" class="cls-11" y2="263.039" transform="translate(271.769 3.529)"/>
            <line id="Line_92" data-name="Line 92" class="cls-11" y2="263.039" transform="translate(339.758 3.529)"/>
          </g>
          <g id="Group_1085" data-name="Group 1085" transform="translate(33.437 194.493)">
            <line id="Line_93" data-name="Line 93" class="cls-11" x1="475.736"/>
            <line id="Line_94" data-name="Line 94" class="cls-11" x1="475.736" transform="translate(0 54.428)"/>
            <line id="Line_95" data-name="Line 95" class="cls-11" x1="475.736" transform="translate(0 108.856)"/>
            <line id="Line_96" data-name="Line 96" class="cls-11" x1="475.736" transform="translate(0 163.285)"/>
          </g>
          <path id="Path_1240" data-name="Path 1240" class="cls-7" d="M99.995,177.344H67.486a2.857,2.857,0,0,1-2.786-2.786v-.372a2.857,2.857,0,0,1,2.786-2.786H99.995a2.857,2.857,0,0,1,2.786,2.786v.372A2.852,2.852,0,0,1,99.995,177.344Z" transform="translate(-23.089 40.554)"/>
          <path id="Path_1241" data-name="Path 1241" class="cls-7" d="M177.795,151.944H145.286a2.857,2.857,0,0,1-2.786-2.786v-.372A2.857,2.857,0,0,1,145.286,146h32.508a2.857,2.857,0,0,1,2.786,2.786v.372A2.736,2.736,0,0,1,177.795,151.944Z" transform="translate(43.633 18.771)"/>
          <path id="Path_1242" data-name="Path 1242" class="cls-7" d="M214.638,234.086H179.9a1.27,1.27,0,0,1-1.3-1.3V232.6a1.27,1.27,0,0,1,1.3-1.3h34.737a1.27,1.27,0,0,1,1.3,1.3v.186A1.4,1.4,0,0,1,214.638,234.086Z" transform="translate(74.593 91.925)"/>
          <path id="Path_1243" data-name="Path 1243" class="cls-7" d="M214.638,237.786H179.9a1.27,1.27,0,0,1-1.3-1.3V236.3a1.27,1.27,0,0,1,1.3-1.3h34.737a1.27,1.27,0,0,1,1.3,1.3v.186A1.27,1.27,0,0,1,214.638,237.786Z" transform="translate(74.593 95.099)"/>
          <path id="Path_1244" data-name="Path 1244" class="cls-7" d="M214.638,241.586H179.9a1.27,1.27,0,0,1-1.3-1.3V240.1a1.27,1.27,0,0,1,1.3-1.3h34.737a1.27,1.27,0,0,1,1.3,1.3v.186A1.27,1.27,0,0,1,214.638,241.586Z" transform="translate(74.593 98.357)"/>
          <path id="Path_1245" data-name="Path 1245" class="cls-7" d="M91.264,180.986H66a1.27,1.27,0,0,1-1.3-1.3V179.5a1.27,1.27,0,0,1,1.3-1.3H91.264a1.27,1.27,0,0,1,1.3,1.3v.186A1.4,1.4,0,0,1,91.264,180.986Z" transform="translate(-23.089 46.386)"/>
          <g id="Group_1086" data-name="Group 1086" transform="translate(296.018 181.857)">
            <path id="Path_1246" data-name="Path 1246" class="cls-9" d="M210.285,217.618c13,18.39,36.967,26.192,55.171,10.588,17.833-15.418,14.118-43.84.186-60.744-35.109-42.725-92.881,37.9-47,63.345,1.858,1.115,3.9-1.486,2.415-3.158a38.683,38.683,0,0,1-4.273-48.3c10.588-16.161,31.765-23.22,44.954-6.13,10.774,13.932,14.3,36.967,0,49.784-15.232,13.561-36.6,7.245-48.3-7.8-1.486-1.858-4.458.557-3.158,2.415Z" transform="translate(-201.654 -155.198)"/>
          </g>
          <path id="Path_1247" data-name="Path 1247" class="cls-12" d="M91.976,88.459a8,8,0,1,0-7.988,8.359A8.133,8.133,0,0,0,91.976,88.459Z" transform="translate(-13.398 -37.746)"/>
          <path id="Path_1248" data-name="Path 1248" class="cls-12" d="M108.476,88.459a8.133,8.133,0,0,0-7.988-8.359A8.253,8.253,0,0,0,92.5,88.459a8,8,0,1,0,15.976,0Z" transform="translate(0.752 -37.746)"/>
          <path id="Path_1249" data-name="Path 1249" class="cls-13" d="M82.987,57.3h-.743A4.6,4.6,0,0,0,77.6,61.944v46.44a4.6,4.6,0,0,0,4.644,4.644h.743a4.6,4.6,0,0,0,4.644-4.644V61.944A4.6,4.6,0,0,0,82.987,57.3Z" transform="translate(-12.026 -57.3)"/>
          <path id="Path_1250" data-name="Path 1250" class="cls-13" d="M99.587,57.3h-.743A4.6,4.6,0,0,0,94.2,61.944v46.44a4.6,4.6,0,0,0,4.644,4.644h.743a4.6,4.6,0,0,0,4.644-4.644V61.944A4.848,4.848,0,0,0,99.587,57.3Z" transform="translate(2.21 -57.3)"/>
          <path id="Path_1251" data-name="Path 1251" class="cls-12" d="M291.475,88.459a8,8,0,1,0-7.988,8.359A8.133,8.133,0,0,0,291.475,88.459Z" transform="translate(157.696 -37.746)"/>
          <path id="Path_1252" data-name="Path 1252" class="cls-12" d="M307.975,88.459a8.133,8.133,0,0,0-7.988-8.359A8.253,8.253,0,0,0,292,88.459a8,8,0,1,0,15.975,0Z" transform="translate(171.847 -37.746)"/>
          <path id="Path_1253" data-name="Path 1253" class="cls-13" d="M282.487,57.3h-.743a4.6,4.6,0,0,0-4.644,4.644v46.44a4.6,4.6,0,0,0,4.644,4.644h.743a4.6,4.6,0,0,0,4.644-4.644V61.944A4.848,4.848,0,0,0,282.487,57.3Z" transform="translate(159.069 -57.3)"/>
          <path id="Path_1254" data-name="Path 1254" class="cls-13" d="M298.987,57.3h-.743a4.6,4.6,0,0,0-4.644,4.644v46.44a4.6,4.6,0,0,0,4.644,4.644h.743a4.6,4.6,0,0,0,4.644-4.644V61.944A4.6,4.6,0,0,0,298.987,57.3Z" transform="translate(173.219 -57.3)"/>
          <rect id="Rectangle_383" data-name="Rectangle 383" class="cls-14" width="26.75" height="26.75" transform="matrix(0.933, -0.359, 0.359, 0.933, 401.987, 322.209)"/>
          <path id="Path_1255" data-name="Path 1255" class="cls-9" d="M268.172,230.286a1.486,1.486,0,1,0-1.486,1.486A1.6,1.6,0,0,0,268.172,230.286Z" transform="translate(148.863 89.781)"/>
          <rect id="Rectangle_384" data-name="Rectangle 384" class="cls-10" width="26.75" height="26.75" transform="translate(391.063 315.584) rotate(11.823)"/>
          <path id="Path_1256" data-name="Path 1256" class="cls-9" d="M261.272,231.086a1.486,1.486,0,1,0-1.486,1.486A1.465,1.465,0,0,0,261.272,231.086Z" transform="translate(142.945 90.467)"/>
        </g>
        <g id="Group_1096" data-name="Group 1096" transform="translate(100.119 347.489)">
          <path id="Path_1257" data-name="Path 1257" class="cls-13" d="M114.253,329.046l-7.245.557L73.2,351.895,99.207,316.6,115,321.616Z" transform="translate(-37.341 -75.858)"/>
          <path id="Path_1258" data-name="Path 1258" class="cls-15" d="M179.989,309.724s.929-14.489-21.363-16.9c-22.291-2.6-47.927,2.972-47.927,2.972l11.331,22.291Z" transform="translate(-5.181 -96.846)"/>
          <path id="Path_1259" data-name="Path 1259" class="cls-13" d="M123.312,337.946l-8.174.743L77.8,363.21l28.607-39.01,17.647,5.387Z" transform="translate(-33.396 -69.34)"/>
          <path id="Path_1260" data-name="Path 1260" class="cls-16" d="M131.977,283.443l18.576,32.137s58.886-11.7,73.376,4.83-2.786,43.468-45.883,50.9c-43.1,7.616-61.859,9.474-61.859,9.474l-3.158-15.79s-42.911,3.9-26.75-82.292C86.28,282.886,100.4,290.688,131.977,283.443Z" transform="translate(-29.244 -104.931)"/>
          <path id="Path_1261" data-name="Path 1261" class="cls-17" d="M190.595,318.1S146.941,335.933,99.2,335.933" transform="translate(-15.043 -74.571)"/>
          <path id="Path_1262" data-name="Path 1262" class="cls-18" d="M121.847,229.256s-2.043,4.83-3.715,7.8v7.988l-7.059.186-1.672-9.845s.186-11.889,0-19.133c-.186-4.087,8.359-9.845,13.561-12.075,3.158-1.3-.929,5.2-5.759,8.917A87.885,87.885,0,0,0,121.847,229.256Z" transform="translate(-6.297 -172.418)"/>
          <path id="Path_1263" data-name="Path 1263" class="cls-18" d="M152.822,230.851a74.151,74.151,0,0,0,4.83,7.245l1.115,7.8,7.059-.743.186-10.031s-1.858-11.7-2.6-18.948c-.372-4.087-9.66-8.731-15.047-10.031-3.158-.929,1.672,5.016,6.873,7.988A91.814,91.814,0,0,1,152.822,230.851Z" transform="translate(26.258 -170.669)"/>
          <g id="Group_1089" data-name="Group 1089" transform="translate(109.16 0.803)">
            <rect id="Rectangle_385" data-name="Rectangle 385" class="cls-1" width="72.819" height="60.93" transform="translate(4.024 0) rotate(3.787)"/>
            <g id="Group_1120" data-name="Group 1120" transform="matrix(0.996, 0.087, -0.087, 0.996, 7.244, 0.873)">
              <path id="Path_1353" data-name="Path 1353" class="cls-19" d="M19.257,41.514H.715A.827.827,0,0,1,0,40.632V.882A.827.827,0,0,1,.715,0H19.257a.827.827,0,0,1,.715.882v39.75A.827.827,0,0,1,19.257,41.514Z" transform="translate(0 10.454)"/>
              <path id="Path_1354" data-name="Path 1354" class="cls-20" d="M12.325,2.806H.55A.551.551,0,0,1,0,2.256V.55A.551.551,0,0,1,.55,0H12.325a.551.551,0,0,1,.55.55V2.256A.52.52,0,0,1,12.325,2.806Z" transform="translate(3.466 13.205)"/>
              <path id="Path_1355" data-name="Path 1355" class="cls-20" d="M3.686,2.2H1.1A1.1,1.1,0,0,1,0,1.1H0A1.1,1.1,0,0,1,1.1,0H3.686a1.1,1.1,0,0,1,1.1,1.1h0A1.1,1.1,0,0,1,3.686,2.2Z" transform="translate(4.072 29.711)"/>
              <path id="Path_1356" data-name="Path 1356" class="cls-21" d="M3.686,2.2H1.1A1.1,1.1,0,0,1,0,1.1H0A1.1,1.1,0,0,1,1.1,0H3.686a1.1,1.1,0,0,1,1.1,1.1h0A1.1,1.1,0,0,1,3.686,2.2Z" transform="translate(11.499 29.711)"/>
              <rect id="Rectangle_405" data-name="Rectangle 405" class="cls-22" width="13.865" height="2.201" transform="translate(3.136 18.872)"/>
              <rect id="Rectangle_406" data-name="Rectangle 406" class="cls-22" width="13.865" height="2.201" transform="translate(3.136 22.613)"/>
              <rect id="Rectangle_407" data-name="Rectangle 407" class="cls-23" width="7.978" height="0.495" transform="translate(6.107 26.19)"/>
              <g id="Group_1120-2" data-name="Group 1120" transform="translate(21.678 9.794)">
                <path id="Path_1357" data-name="Path 1357" class="cls-19" d="M17.827,4.512H2.256A2.266,2.266,0,0,1,0,2.256H0A2.266,2.266,0,0,1,2.256,0H17.827a2.266,2.266,0,0,1,2.256,2.256h0A2.231,2.231,0,0,1,17.827,4.512Z" transform="translate(0 0)"/>
                <path id="Path_1358" data-name="Path 1358" class="cls-24" d="M1.431.715a.728.728,0,0,1-.715.715A.728.728,0,0,1,0,.715.728.728,0,0,1,.715,0,.728.728,0,0,1,1.431.715Z" transform="translate(4.567 1.541)"/>
                <path id="Path_1359" data-name="Path 1359" class="cls-25" d="M1.431.715a.728.728,0,0,1-.715.715A.728.728,0,0,1,0,.715.728.728,0,0,1,.715,0,.728.728,0,0,1,1.431.715Z" transform="translate(9.464 1.541)"/>
                <path id="Path_1360" data-name="Path 1360" class="cls-26" d="M1.431.715a.728.728,0,0,1-.715.715A.728.728,0,0,1,0,.715.728.728,0,0,1,.715,0,.728.728,0,0,1,1.431.715Z" transform="translate(13.975 1.541)"/>
              </g>
              <path id="Path_1361" data-name="Path 1361" class="cls-27" d="M17.937,24.539H.99a.986.986,0,0,1-.99-.99V.99A.986.986,0,0,1,.99,0H17.937a.986.986,0,0,1,.99.99V23.549A.986.986,0,0,1,17.937,24.539Z" transform="translate(46.382 3.466)"/>
              <g id="Group_1121" data-name="Group 1121" transform="translate(49.188 6.327)">
                <path id="Path_1362" data-name="Path 1362" class="cls-28" d="M1.376.44H.11C.055.44,0,.33,0,.22H0C0,.11.055,0,.11,0H1.376c.055,0,.11.11.11.22h0C1.541.33,1.486.44,1.376.44Z" transform="translate(0 0)"/>
                <path id="Path_1363" data-name="Path 1363" class="cls-28" d="M7.373.44H.11C.055.44,0,.33,0,.22H0C0,.11.055,0,.11,0H7.318c.055,0,.11.11.11.22h0C7.483.33,7.428.44,7.373.44Z" transform="translate(1.871 0)"/>
                <path id="Path_1364" data-name="Path 1364" class="cls-29" d="M2.421.44H.11C.055.44,0,.33,0,.22H0C0,.11.055,0,.11,0H2.421c.055,0,.11.11.11.22h0C2.531.385,2.476.44,2.421.44Z" transform="translate(1.871 0.99)"/>
                <path id="Path_1365" data-name="Path 1365" class="cls-19" d="M3.411.44H.11C.055.44,0,.33,0,.22H0C0,.11.055,0,.11,0h3.3c.055,0,.11.11.11.22h0C3.521.385,3.466.44,3.411.44Z" transform="translate(4.677 0.99)"/>
                <path id="Path_1366" data-name="Path 1366" class="cls-19" d="M7.373.44H.11C.055.44,0,.33,0,.22H0C0,.11.055,0,.11,0H7.318c.055,0,.11.11.11.22h0C7.483.33,7.428.44,7.373.44Z" transform="translate(1.871 5.942)"/>
                <path id="Path_1367" data-name="Path 1367" class="cls-28" d="M1.376.44H.11C.055.44,0,.33,0,.22H0C0,.11.055,0,.11,0H1.376c.055,0,.11.11.11.22h0C1.541.33,1.486.44,1.376.44Z" transform="translate(0 6.933)"/>
                <path id="Path_1368" data-name="Path 1368" class="cls-19" d="M2.421.44H.11C.055.44,0,.33,0,.22H0C0,.11.055,0,.11,0H2.421c.055,0,.11.11.11.22h0C2.531.33,2.476.44,2.421.44Z" transform="translate(1.871 6.933)"/>
                <path id="Path_1369" data-name="Path 1369" class="cls-29" d="M3.411.44H.11C.055.44,0,.33,0,.22H0C0,.11.055,0,.11,0h3.3c.055,0,.11.11.11.22h0C3.521.33,3.466.44,3.411.44Z" transform="translate(4.677 6.933)"/>
                <path id="Path_1370" data-name="Path 1370" class="cls-29" d="M9.133.44H.11C.055.44,0,.33,0,.22H0C0,.11.055,0,.11,0H9.133c.055,0,.11.11.11.22h0C9.243.33,9.188.44,9.133.44Z" transform="translate(1.871 2.036)"/>
                <path id="Path_1371" data-name="Path 1371" class="cls-28" d="M2.2.44H.11A.118.118,0,0,1,0,.33V.11A.118.118,0,0,1,.11,0H2.2a.118.118,0,0,1,.11.11V.33A.118.118,0,0,1,2.2.44Z" transform="translate(6.933 3.026)"/>
                <path id="Path_1372" data-name="Path 1372" class="cls-19" d="M3.136.44H.11C.055.44,0,.33,0,.22H0C0,.11.055,0,.11,0H3.081c.055,0,.11.11.11.22h0C3.246.33,3.191.44,3.136.44Z" transform="translate(1.871 3.026)"/>
                <path id="Path_1373" data-name="Path 1373" class="cls-28" d="M1.32.44H.11C.055.44,0,.33,0,.22H0C0,.11.055,0,.11,0H1.32c.055,0,.11.11.11.22h0C1.431.33,1.375.44,1.32.44Z" transform="translate(5.282 3.026)"/>
                <path id="Path_1374" data-name="Path 1374" class="cls-19" d="M1.376.44H.11C.055.44,0,.33,0,.22H0C0,.11.055,0,.11,0H1.376c.055,0,.11.11.11.22h0C1.541.33,1.486.44,1.376.44Z" transform="translate(0 4.016)"/>
                <path id="Path_1375" data-name="Path 1375" class="cls-19" d="M9.133.44H.11C.055.44,0,.33,0,.22H0C0,.11.055,0,.11,0H9.133c.055,0,.11.11.11.22h0C9.243.33,9.188.44,9.133.44Z" transform="translate(1.871 4.016)"/>
                <path id="Path_1376" data-name="Path 1376" class="cls-19" d="M1.376.44H.11C.055.44,0,.33,0,.22H0C0,.11.055,0,.11,0H1.376c.055,0,.11.11.11.22h0C1.541.33,1.486.44,1.376.44Z" transform="translate(0 7.868)"/>
                <path id="Path_1377" data-name="Path 1377" class="cls-19" d="M3.136.5H.165A.146.146,0,0,1,0,.33V.165A.146.146,0,0,1,.165,0H3.136A.146.146,0,0,1,3.3.165V.33A.176.176,0,0,1,3.136.5Z" transform="translate(6.878 7.813)"/>
                <path id="Path_1378" data-name="Path 1378" class="cls-19" d="M3.136.44H.11C.055.44,0,.33,0,.22H0C0,.11.055,0,.11,0H3.081c.055,0,.11.11.11.22h0C3.246.33,3.191.44,3.136.44Z" transform="translate(1.871 7.868)"/>
                <path id="Path_1379" data-name="Path 1379" class="cls-19" d="M1.32.44H.11C.055.44,0,.33,0,.22H0C0,.11.055,0,.11,0H1.32c.055,0,.11.11.11.22h0C1.431.33,1.375.44,1.32.44Z" transform="translate(5.282 7.868)"/>
                <path id="Path_1380" data-name="Path 1380" class="cls-30" d="M1.376.44H.11C.055.44,0,.33,0,.22H0C0,.11.055,0,.11,0H1.376c.055,0,.11.11.11.22h0C1.541.33,1.486.44,1.376.44Z" transform="translate(0 8.858)"/>
                <path id="Path_1381" data-name="Path 1381" class="cls-28" d="M1.706.44H.11C.055.44,0,.33,0,.22H0C0,.11.055,0,.11,0H1.651c.055,0,.11.11.11.22h0C1.816.33,1.761.44,1.706.44Z" transform="translate(1.871 8.858)"/>
                <path id="Path_1382" data-name="Path 1382" class="cls-28" d="M.11.44C.055.44,0,.33,0,.22H0C0,.11.055,0,.11,0H1.376c.055,0,.11.11.11.22h0c0,.11-.055.22-.11.22" transform="translate(0 5.007)"/>
                <path id="Path_1383" data-name="Path 1383" class="cls-19" d="M3.521.5H.165A.146.146,0,0,1,0,.33V.165A.146.146,0,0,1,.165,0H3.521a.146.146,0,0,1,.165.165V.33A.146.146,0,0,1,3.521.5Z" transform="translate(6.878 4.952)"/>
                <path id="Path_1384" data-name="Path 1384" class="cls-30" d="M3.136.44H.11C.055.44,0,.33,0,.22H0C0,.11.055,0,.11,0H3.081c.055,0,.11.11.11.22h0C3.246.33,3.191.44,3.136.44Z" transform="translate(1.871 5.007)"/>
                <path id="Path_1385" data-name="Path 1385" class="cls-30" d="M1.32.44H.11C.055.44,0,.33,0,.22H0C0,.11.055,0,.11,0H1.32c.055,0,.11.11.11.22h0C1.431.33,1.375.44,1.32.44Z" transform="translate(5.282 5.007)"/>
                <path id="Path_1386" data-name="Path 1386" class="cls-19" d="M7.373.44H.11C.055.44,0,.33,0,.22H0C0,.11.055,0,.11,0H7.318c.055,0,.11.11.11.22h0C7.483.33,7.428.44,7.373.44Z" transform="translate(1.871 9.904)"/>
                <path id="Path_1387" data-name="Path 1387" class="cls-19" d="M2.421.44H.11C.055.44,0,.33,0,.22H0C0,.11.055,0,.11,0H2.421c.055,0,.11.11.11.22h0C2.531.33,2.476.44,2.421.44Z" transform="translate(1.871 10.894)"/>
                <path id="Path_1388" data-name="Path 1388" class="cls-19" d="M3.411.44H.11C.055.44,0,.33,0,.22H0C0,.11.055,0,.11,0h3.3c.055,0,.11.11.11.22h0C3.521.33,3.466.44,3.411.44Z" transform="translate(4.677 10.894)"/>
                <path id="Path_1389" data-name="Path 1389" class="cls-19" d="M7.373.44H.11C.055.44,0,.33,0,.22H0C0,.11.055,0,.11,0H7.318c.055,0,.11.11.11.22h0C7.483.33,7.428.44,7.373.44Z" transform="translate(1.871 15.846)"/>
                <path id="Path_1390" data-name="Path 1390" class="cls-29" d="M1.376.44H.11C.055.44,0,.33,0,.22H0C0,.11.055,0,.11,0H1.376c.055,0,.11.11.11.22h0C1.541.33,1.486.44,1.376.44Z" transform="translate(0 16.836)"/>
                <path id="Path_1391" data-name="Path 1391" class="cls-28" d="M2.421.44H.11C.055.44,0,.33,0,.22H0C0,.11.055,0,.11,0H2.421c.055,0,.11.11.11.22h0C2.531.33,2.476.44,2.421.44Z" transform="translate(1.871 16.836)"/>
                <path id="Path_1392" data-name="Path 1392" class="cls-19" d="M3.411.44H.11C.055.44,0,.33,0,.22H0C0,.11.055,0,.11,0h3.3c.055,0,.11.11.11.22h0C3.521.33,3.466.44,3.411.44Z" transform="translate(4.677 16.836)"/>
                <path id="Path_1393" data-name="Path 1393" class="cls-29" d="M1.376.44H.11C.055.44,0,.33,0,.22H0C0,.11.055,0,.11,0H1.376c.055,0,.11.11.11.22h0C1.541.33,1.486.44,1.376.44Z" transform="translate(0 11.939)"/>
                <path id="Path_1394" data-name="Path 1394" class="cls-29" d="M6.6.55H.165A.176.176,0,0,1,0,.385V.165A.176.176,0,0,1,.165,0H6.6a.176.176,0,0,1,.165.165v.22C6.712.44,6.657.55,6.6.55Z" transform="translate(1.871 11.829)"/>
                <path id="Path_1395" data-name="Path 1395" class="cls-19" d="M1.376.44H.11C.055.44,0,.33,0,.22H0C0,.11.055,0,.11,0H1.376c.055,0,.11.11.11.22h0C1.541.33,1.486.44,1.376.44Z" transform="translate(0 12.93)"/>
                <path id="Path_1396" data-name="Path 1396" class="cls-19" d="M3.136.44H.11C.055.44,0,.33,0,.22H0C0,.11.055,0,.11,0H3.081c.055,0,.11.11.11.22h0C3.246.33,3.191.44,3.136.44Z" transform="translate(1.871 12.93)"/>
                <path id="Path_1397" data-name="Path 1397" class="cls-19" d="M1.32.44H.11C.055.44,0,.33,0,.22H0C0,.11.055,0,.11,0H1.32c.055,0,.11.11.11.22h0C1.431.33,1.375.44,1.32.44Z" transform="translate(5.282 12.93)"/>
                <path id="Path_1398" data-name="Path 1398" class="cls-19" d="M1.376.44H.11C.055.44,0,.33,0,.22H0C0,.11.055,0,.11,0H1.376c.055,0,.11.11.11.22h0C1.541.33,1.486.44,1.376.44Z" transform="translate(0 13.92)"/>
                <path id="Path_1399" data-name="Path 1399" class="cls-19" d="M8.308.5H.165A.146.146,0,0,1,0,.33V.165A.146.146,0,0,1,.165,0H8.308a.146.146,0,0,1,.165.165V.33A.176.176,0,0,1,8.308.5Z" transform="translate(1.871 13.865)"/>
                <path id="Path_1400" data-name="Path 1400" class="cls-19" d="M1.376.44H.11C.055.44,0,.33,0,.22H0C0,.11.055,0,.11,0H1.376c.055,0,.11.11.11.22h0C1.541.33,1.486.44,1.376.44Z" transform="translate(0 17.772)"/>
                <path id="Path_1401" data-name="Path 1401" class="cls-19" d="M4.127.44H.11C.055.44,0,.33,0,.22H0C0,.11.055,0,.11,0H4.127c.055,0,.11.11.11.22h0C4.237.33,4.182.44,4.127.44Z" transform="translate(6.878 17.772)"/>
                <path id="Path_1402" data-name="Path 1402" class="cls-19" d="M3.136.44H.11C.055.44,0,.33,0,.22H0C0,.11.055,0,.11,0H3.081c.055,0,.11.11.11.22h0C3.246.33,3.191.44,3.136.44Z" transform="translate(1.871 17.772)"/>
                <path id="Path_1403" data-name="Path 1403" class="cls-19" d="M1.32.44H.11C.055.44,0,.33,0,.22H0C0,.11.055,0,.11,0H1.32c.055,0,.11.11.11.22h0C1.431.33,1.375.44,1.32.44Z" transform="translate(5.282 17.772)"/>
                <path id="Path_1404" data-name="Path 1404" class="cls-30" d="M5.447.44H.11A.118.118,0,0,1,0,.33V.11A.118.118,0,0,1,.11,0H5.447a.118.118,0,0,1,.11.11V.33C5.612.385,5.557.44,5.447.44Z" transform="translate(1.871 18.762)"/>
                <path id="Path_1405" data-name="Path 1405" class="cls-29" d="M3.741.5H.165A.146.146,0,0,1,0,.33V.165A.146.146,0,0,1,.165,0H3.741a.146.146,0,0,1,.165.165V.33A.146.146,0,0,1,3.741.5Z" transform="translate(6.878 14.856)"/>
                <path id="Path_1406" data-name="Path 1406" class="cls-30" d="M3.136.44H.11C.055.44,0,.33,0,.22H0C0,.11.055,0,.11,0H3.081c.055,0,.11.11.11.22h0C3.246.33,3.191.44,3.136.44Z" transform="translate(1.871 14.911)"/>
                <path id="Path_1407" data-name="Path 1407" class="cls-30" d="M1.32.44H.11C.055.44,0,.33,0,.22H0C0,.11.055,0,.11,0H1.32c.055,0,.11.11.11.22h0C1.431.33,1.375.44,1.32.44Z" transform="translate(5.282 14.911)"/>
              </g>
              <g id="Group_1125" data-name="Group 1125" transform="translate(59.752 0)">
                <circle id="Ellipse_69" data-name="Ellipse 69" class="cls-31" cx="4.016" cy="4.016" r="4.016"/>
                <g id="Group_1124" data-name="Group 1124" transform="translate(1.486 3.026)">
                  <g id="Group_1122" data-name="Group 1122" transform="translate(0 0)">
                    <path id="Path_1408" data-name="Path 1408" class="cls-22" d="M2.256.605.66,1.21l1.6.55v.605L0,1.486V.88L2.256,0Z"/>
                  </g>
                  <g id="Group_1123" data-name="Group 1123" transform="translate(2.806 0)">
                    <path id="Path_1409" data-name="Path 1409" class="cls-22" d="M0,0,2.256.88v.605L0,2.366V1.761l1.6-.55L0,.605Z" transform="translate(0)"/>
                  </g>
                </g>
              </g>
            </g>
            <g id="Group_1126" data-name="Group 1126" transform="translate(49.033 38.408)">
              <path id="Path_1264" data-name="Path 1264" class="cls-5" d="M132.163,196.2a9.736,9.736,0,1,1-10.362,9.067l9.714.648Z" transform="translate(-121.736 -196.182)"/>
              <path id="Path_1265" data-name="Path 1265" class="cls-9" d="M140.909,203.192a9.77,9.77,0,1,1-12.089-6.692l2.7,9.39Z" transform="translate(-121.739 -196.158)"/>
              <path id="Path_1266" data-name="Path 1266" class="cls-10" d="M141.23,206.563a9.736,9.736,0,1,1-9.067-10.362l-.648,9.714Z" transform="translate(-121.736 -196.183)"/>
            </g>
            <path id="Path_1410" data-name="Path 1410" class="cls-19" d="M2.116,0A1.874,1.874,0,0,1,4.108,1.8L4.024,9.21a1.973,1.973,0,0,1-2.033,1.839A1.874,1.874,0,0,1,0,9.251L.084,1.839A1.973,1.973,0,0,1,2.116,0Z" transform="matrix(0.995, 0.105, -0.105, 0.995, 27.628, 36.13)"/>
            <path id="Path_1411" data-name="Path 1411" class="cls-19" d="M2.241,0A1.874,1.874,0,0,1,4.233,1.8l-.209,18.46A1.973,1.973,0,0,1,1.992,22.1,1.874,1.874,0,0,1,0,20.3L.209,1.839A1.973,1.973,0,0,1,2.241,0Z" transform="matrix(0.995, 0.105, -0.105, 0.995, 35.794, 25.806)"/>
            <path id="Path_1412" data-name="Path 1412" class="cls-19" d="M2.2,0A1.874,1.874,0,0,1,4.187,1.8L4.024,16.241A1.973,1.973,0,0,1,1.992,18.08,1.874,1.874,0,0,1,0,16.282L.163,1.839A1.973,1.973,0,0,1,2.2,0Z" transform="matrix(0.995, 0.105, -0.105, 0.995, 42.385, 30.466)"/>
          </g>
          <path id="Path_1273" data-name="Path 1273" class="cls-18" d="M158.748,234.188s-6.873-14.118-10.774-19.319.743-5.944,5.387-1.858c5.759,5.016,8.917,3.529,8.917,3.529l.186,8.731Z" transform="translate(25.534 -166.947)"/>
          <path id="Path_1274" data-name="Path 1274" class="cls-18" d="M116.844,234.183s4.83-15.047,7.988-20.62c3.158-5.759-1.486-5.759-5.573-1.115-5.016,5.759-8.359,4.83-8.359,4.83l1.115,8.731Z" transform="translate(-5.009 -168.057)"/>
          <path id="Path_1275" data-name="Path 1275" class="cls-5" d="M129.679,222.2s5.573,31.394-18.948,40.682L98.1,249.321c12.632-6.687,16.161-15.975,17.462-26.007Z" transform="translate(-15.987 -156.817)"/>
          <g id="Group_1090" data-name="Group 1090">
            <path id="Path_1276" data-name="Path 1276" class="cls-9" d="M85.111,205.945c-6.687-1.486-13.932,1.486-15.975,9.1-1.858,6.873,1.672,14.118.743,21.177-.929,6.316-5.016,11.146-8.731,15.6-3.715,4.644-7.43,10.031-7.245,16.347.186,5.759,4.087,11.331,9.1,12.446,1.486.372,2.972.372,4.458.743,5.944,1.858,8.731,9.845,9.1,16.9s-.557,14.489,1.858,20.991a22.879,22.879,0,0,0,25.264,14.118c10.96-2.229,19.691-12.818,30.651-15.232,3.715-.929,7.616-.743,11.331-1.3s7.616-2.043,10.031-5.387,3.158-7.988,5.2-11.7c2.6-4.83,7.43-7.8,10.4-12.446a20.65,20.65,0,0,0,1.486-18.39c-2.972-7.245-10.031-12.446-10.96-20.434-.557-5.2,1.672-10.031,3.158-15.047a43.758,43.758,0,0,0,.372-23.963c-2.229-7.8-8.173-19.5-23.034-22.106-9.288-1.486-20.248,2.972-37.338-.186C93.656,185.7,88.269,193.5,85.111,205.945" transform="translate(-53.896 -187.003)"/>
          </g>
          <path id="Path_1277" data-name="Path 1277" class="cls-18" d="M116.7,276.422s-5.759-6.687-4.83-25.078c0,0,13.561-2.972,14.118-13.746.372-7.616-.929-19.5-3.158-29.722,0,0-.372-5.944-8.917-8.359s-28.422,0-29.908,7.43,1.3,19.691,1.3,19.691a8.875,8.875,0,0,0-10.774-2.6c-6.687,2.786,1.3,24.521,12.26,13.932,0,0,10.4,29.722,1.115,31.765,0,0,3.344,17.833,22.849,13.932S116.7,276.422,116.7,276.422Z" transform="translate(-38.3 -177.045)"/>
          <path id="Path_1278" data-name="Path 1278" class="cls-32" d="M94,209.7a14.68,14.68,0,0,0,3.344,6.13c1.858,2.043,1.486,3.529-1.672,5.387" transform="translate(-19.503 -167.537)"/>
          <g id="Group_1091" data-name="Group 1091" transform="translate(64.767 41.894)">
            <path id="Path_1279" data-name="Path 1279" class="cls-33" d="M89.947,209.638c.743.186.929,1.3,1.115,1.858a12.265,12.265,0,0,1,.186,2.6.939.939,0,0,1-1.858.186c-.557-.929-1.3-5.387.557-4.644Z" transform="translate(-88.762 -209.555)"/>
          </g>
          <g id="Group_1092" data-name="Group 1092" transform="translate(77.476 40.104)">
            <path id="Path_1280" data-name="Path 1280" class="cls-33" d="M96.526,208.607c.743.186,1.115.929,1.3,1.858a12.543,12.543,0,0,1,.372,2.6.939.939,0,0,1-1.858.186,7.7,7.7,0,0,1-.557-2.972c-.372-.372-.186-1.858.743-1.672Z" transform="translate(-95.603 -208.591)"/>
          </g>
          <path id="Path_1281" data-name="Path 1281" class="cls-32" d="M74.2,214.446s5.387-1.486,8.359,7.059" transform="translate(-36.484 -163.552)"/>
          <path id="Path_1282" data-name="Path 1282" class="cls-32" d="M74.6,217.777a6.519,6.519,0,0,1,5.573-1.858" transform="translate(-36.141 -162.239)"/>
          <path id="Path_1283" data-name="Path 1283" class="cls-32" d="M98.474,220.5s-5.759-.372-9.474-3.9" transform="translate(-23.791 -161.62)"/>
          <g id="Group_1093" data-name="Group 1093" transform="translate(58.307 32.887)">
            <path id="Path_1284" data-name="Path 1284" class="cls-9" d="M86.428,209.71a8.065,8.065,0,0,1,7.059-1.672,1.306,1.306,0,0,0,.929-2.415c-3.344-2.043-8.174-.557-9.1,3.344a.7.7,0,0,0,1.115.743Z" transform="translate(-85.284 -204.707)"/>
          </g>
          <g id="Group_1094" data-name="Group 1094" transform="translate(74.121 31.711)">
            <path id="Path_1285" data-name="Path 1285" class="cls-9" d="M100.489,206.723c-.557-2.786-4.458-3.529-6.316-1.486a1.344,1.344,0,0,0,1.3,2.229,8.32,8.32,0,0,1,4.273,0c.372.186.743-.372.743-.743Z" transform="translate(-93.798 -204.074)"/>
          </g>
          <g id="Group_1095" data-name="Group 1095" transform="translate(43.661 13.37)">
            <path id="Path_1286" data-name="Path 1286" class="cls-9" d="M121.8,194.2c.557,3.715-3.158,9.845-6.687,10.96-7.245,2.6-15.418-1.858-22.291,1.672a17.527,17.527,0,0,0-9.474,16.161c.186,3.715,1.486,7.616.186,11.146A28.818,28.818,0,0,1,77.4,223.55l2.043-26.378Z" transform="translate(-77.4 -194.2)"/>
          </g>
          <path id="Path_1287" data-name="Path 1287" class="cls-5" d="M144.56,276.547a198.513,198.513,0,0,1-4.273,49.6s-29.536,11.332-45.7-.557c0,0-17.09-30.279-20.805-54.8C69.141,239.209,82.7,201.685,144.56,276.547Z" transform="translate(-37.555 -147.634)"/>
          <path id="Path_1288" data-name="Path 1288" class="cls-5" d="M90.282,237.546a61.846,61.846,0,0,0,20.248,1.672c11.331-.929,23.963.743,36.409,13,12.446,12.075,18.2,15.79,36.409,14.3,14.118-1.115,29.165-16.161,35.48-42.725l13.375.929s-4.644,102.54-100.126,61.859c0,0-47.555,8.545-53.128,3.158C73.563,284.358,63.532,235.5,90.282,237.546Z" transform="translate(-37.89 -155.445)"/>
        </g>
        <g id="Group_1104" data-name="Group 1104" transform="translate(248.663 0)">
          <g id="Group_1097" data-name="Group 1097" transform="translate(65.181)">
            <path id="Path_1289" data-name="Path 1289" class="cls-13" d="M197.65,58.008a24.272,24.272,0,0,1-23.406-4.273c-2.229-2.043-4.273-4.458-5.016-7.43a8.6,8.6,0,0,1,2.229-8.359c2.229-2.043,5.759-2.6,7.616-5.016,2.229-2.972.929-7.245.372-11.146-.743-4.458.743-10.031,5.016-11.517,2.786-.929,6.13.186,8.917-.743s4.458-3.9,6.5-6.13c1.858-2.229,5.016-4.458,7.8-2.972a18.756,18.756,0,0,1,2.972,2.415c3.715,2.972,9.1,1.486,13.746.557,4.644-1.115,10.774-1.115,12.818,3.344,2.6,5.2-2.972,12.26.372,16.9a13.654,13.654,0,0,0,3.529,2.972c4.83,3.529,7.43,10.774,4.087,15.79-4.087,6.13-13.932,5.2-19.691,10.031" transform="translate(-168.95 0.059)"/>
          </g>
          <path id="Path_1290" data-name="Path 1290" class="cls-18" d="M217.02,84.2s-3.344-2.972-2.972-14.861c0,0,10.4,0,12.446-7.43s2.043-24.706,1.858-35.295c0,0,.743-5.944-7.245-10.031s-28.05-5.573-31.022,1.486c-2.786,7.059-2.6,19.691-2.6,19.691s-2.972-6.316-10.031-4.644c-7.059,1.486-3.529,24.521,9.288,16.161,0,0,3.529,30.465-6.13,30.836,0,0,.743,19.133,20.805,19.133C221.478,99.436,217.02,84.2,217.02,84.2Z" transform="translate(-99.546 11.387)"/>
          <path id="Path_1291" data-name="Path 1291" class="cls-32" d="M196.843,27.5a17.314,17.314,0,0,0,2.043,6.687c1.3,2.415.743,3.9-2.786,5.016" transform="translate(-80.484 23.694)"/>
          <g id="Group_1098" data-name="Group 1098" transform="translate(106.085 49.024)">
            <path id="Path_1292" data-name="Path 1292" class="cls-33" d="M192.884,26.458c.743.372.743,1.486.557,2.043a12.546,12.546,0,0,1-.372,2.6,1.07,1.07,0,0,1-2.043-.186c-.186-.929,0-5.387,1.858-4.458Z" transform="translate(-190.969 -26.332)"/>
          </g>
          <g id="Group_1099" data-name="Group 1099" transform="translate(119.006 49.828)">
            <path id="Path_1293" data-name="Path 1293" class="cls-33" d="M199.365,26.83c.743.372.929,1.115.929,2.043a14.06,14.06,0,0,1-.186,2.786c-.372,1.115-1.672.929-2.043-.186a8,8,0,0,1,0-2.972c0-.743.557-2.043,1.3-1.672Z" transform="translate(-197.925 -26.765)"/>
          </g>
          <path id="Path_1294" data-name="Path 1294" class="cls-32" d="M176.2,26.1s5.573-.557,6.873,8.545" transform="translate(-97.551 22.49)"/>
          <path id="Path_1295" data-name="Path 1295" class="cls-32" d="M176,29.207a6.559,6.559,0,0,1,5.944-.743" transform="translate(-97.722 24.216)"/>
          <g id="Group_1100" data-name="Group 1100" transform="translate(99.15 36.281)">
            <path id="Path_1296" data-name="Path 1296" class="cls-13" d="M197.572,23.8c.743-2.229-1.858-3.9-3.9-4.273-2.6-.372-5.016,1.3-6.316,3.529a1.213,1.213,0,0,0,.929,1.672c1.486-.186,3.158-.557,4.644-.743,1.3,0,2.229.557,3.529.557a.915.915,0,0,0,1.115-.743Z" transform="translate(-187.236 -19.472)"/>
          </g>
          <g id="Group_1101" data-name="Group 1101" transform="translate(117.963 38.362)">
            <path id="Path_1297" data-name="Path 1297" class="cls-13" d="M197.989,24.136c.557.372,1.3.186,1.858.372a13.682,13.682,0,0,0,2.6.743c-.186,0-.557-.186-.743-.186.743.372,2.043,1.486,2.6.372a4.627,4.627,0,0,0-.929-3.715,3.714,3.714,0,0,0-4.273-.743c-1.115.557-2.6,2.415-1.115,3.158Z" transform="translate(-197.363 -20.592)"/>
          </g>
          <g id="Group_1102" data-name="Group 1102" transform="translate(84.997 17.675)">
            <path id="Path_1298" data-name="Path 1298" class="cls-13" d="M180.886,35.73a17.338,17.338,0,0,0,2.229,6.13c4.644-4.458.557-13.561,5.387-17.833,1.672-1.672,4.087-2.043,6.5-2.229,4.458-.186,8.917,1.115,13.375,1.486s9.474-.557,12.446-4.087a3.781,3.781,0,0,0,.929-3.344,4.066,4.066,0,0,0-1.858-1.672A35.948,35.948,0,0,0,197.6,9.724a24.879,24.879,0,0,0-8.731,2.6c-8.174,4.458-11.7,15.976-7.43,24.335" transform="translate(-179.617 -9.456)"/>
          </g>
          <g id="Group_1103" data-name="Group 1103" transform="translate(102.122 61.635)">
            <path id="Path_1299" data-name="Path 1299" class="cls-34" d="M196.091,34.568c-2.229-1.672-3.715-1.672-4.83-1.115-1.3.557-3.158,2.972-1.858,6.316a9.2,9.2,0,0,0,7.8,5.573c3.529,0,5.759-1.486,6.873-3.344s.557-4.273-1.858-4.644C197.763,36.8,198.135,36.426,196.091,34.568Z" transform="translate(-188.728 -33.121)"/>
            <path id="Path_1300" data-name="Path 1300" class="cls-9" d="M196.942,44.245a8.735,8.735,0,0,1-7.616-5.387,5.3,5.3,0,0,1,0-4.458c8.359,1.115,9.845,9.288,9.845,9.66C198.614,44.06,197.686,44.245,196.942,44.245Z" transform="translate(-188.836 -32.023)"/>
          </g>
          <path id="Path_1301" data-name="Path 1301" class="cls-18" d="M238.176,57.518l5.573-5.2s-7.059.186-15.976,0c-4.273-.186-9.845.557-8.731-8.917l-11.7.929-16.161,6.687a7.862,7.862,0,0,1-5.573,3.158c-3.344.186-14.118,0-17.462,3.344-3.529,3.344,23.778,19.5,40.125,19.5C224.615,77.209,238.176,57.518,238.176,57.518Z" transform="translate(-104.727 37.33)"/>
          <path id="Path_1302" data-name="Path 1302" class="cls-14" d="M197.092,51.915l-3.9,1.115S158.268,65.1,139.878,98.17s7.988,83.221,43.84,96.039l7.8-9.474s-30.093-25.264-25.449-58.515S199.507,86.1,199.507,86.1h85.636l9.288-32.323L273.069,48.2,235.731,69.377Z" transform="translate(-133.861 41.447)"/>
          <path id="Path_1303" data-name="Path 1303" class="cls-35" d="M196.089,64.7s-8.545.743-14.489,1.858c-3.715.743-8.545,4.644-9.845,6.687s8.545-.929,12.818-3.529C189.03,66.929,193.488,69.158,196.089,64.7Z" transform="translate(-101.464 55.597)"/>
          <path id="Path_1304" data-name="Path 1304" class="cls-18" d="M215.083,65.9s-12.26-1.115-18.39-1.486-12.075,2.043-24.706,8.731c0,0-3.344,2.786,3.344,1.858a48.5,48.5,0,0,0,11.7-2.786,10,10,0,0,0,8.731.929s12.446,3.158,17.276-1.3l5.573-.372-.557-5.759h-2.972Z" transform="translate(-101.882 55.323)"/>
          <path id="Path_1305" data-name="Path 1305" class="cls-14" d="M208.7,48.2s62.973,7.988,85.822,31.579c0,0,6.873,7.245-18.948,7.8s-54.8-1.672-54.8-1.672l2.972-13.189Z" transform="translate(-69.678 41.447)"/>
          <path id="Path_1306" data-name="Path 1306" class="cls-10" d="M193.9,76.8V67.323s49.97-8.731,82.664-7.245c32.88,1.486,49.227,19.691,7.616,19.133C242.384,78.655,193.9,76.8,193.9,76.8Z" transform="translate(-82.371 51.488)"/>
          <path id="Path_1307" data-name="Path 1307" class="cls-18" d="M160.6,131.095s1.3,9.1,5.016,14.489,6.13,5.016,7.616,2.786c0,0,3.715.557,4.458-2.6,0,0,3.344,0,3.344-3.158,0,0,5.573,7.245,9.474,11.331,3.715,4.087,6.13,1.486,2.786-3.9-3.158-5.387-9.845-16.161-9.845-16.161s3.158-6.5-.186-9.474c-3.529-2.972-14.675-2.6-14.675-2.6Z" transform="translate(-110.93 104.561)"/>
          <path id="Path_1308" data-name="Path 1308" class="cls-32" d="M170.7,125.3a50.031,50.031,0,0,1,3.9,4.83" transform="translate(-102.268 107.569)"/>
          <path id="Path_1309" data-name="Path 1309" class="cls-10" d="M178.718,50.219S209,73.811,231.474,48.547c0,0,4.644-2.786,14.118.186,0,0-7.059,22.849-35.295,23.777-33.437,1.115-44.4-18.576-44.4-18.576S169.8,49.662,178.718,50.219Z" transform="translate(-106.384 40.728)"/>
        </g>
        <g id="Group_1110" data-name="Group 1110" transform="translate(481.346 104.136)">
          <path id="Path_1310" data-name="Path 1310" class="cls-36" d="M406.47,147.142l3.344-4.273s4.087,3.344,15.232-5.759c0-.372-1.672-20.991-.929-20.62-3.344-1.486-13.561,1.3-16.9,3.9C404.241,123.179,406.47,147.142,406.47,147.142Z" transform="translate(-133.438 -4.477)"/>
          <path id="Path_1311" data-name="Path 1311" class="cls-18" d="M423.819,128.194c.557,1.3-10.031,10.96-15.232,7.245l-1.486-8.174a12.225,12.225,0,0,1,11.331-1.858C424.933,127.636,423.819,128.194,423.819,128.194Z" transform="translate(-132.21 2.954)"/>
          <g id="Group_1105" data-name="Group 1105" transform="translate(272.126 80.063)">
            <path id="Path_1312" data-name="Path 1312" class="cls-9" d="M407.671,105.23l-.371-4.087,3.529-2.043.557,6.13Z" transform="translate(-404.164 -99.1)"/>
            <path id="Path_1313" data-name="Path 1313" class="cls-13" d="M414.506,103.615c-1.3-.557-1.3-2.415-1.3-2.415l-1.858.186-1.115.186-1.858.186s.557,1.858-.743,2.786c-1.486.929-2.415,2.043-1.858,6.873.372,3.9,4.83,3.158,6.316,2.6,1.486.186,5.944,0,5.573-3.9C417.293,105.1,416.178,104.358,414.506,103.615Z" transform="translate(-405.612 -97.299)"/>
            <path id="Path_1314" data-name="Path 1314" class="cls-9" d="M417.366,139.465a3.549,3.549,0,1,0-3.158,3.9A3.438,3.438,0,0,0,417.366,139.465Z" transform="translate(-401.599 -67.204)"/>
            <rect id="Rectangle_386" data-name="Rectangle 386" class="cls-9" width="12.446" height="59.072" transform="translate(0.211 14.601) rotate(-6.131)"/>
            <rect id="Rectangle_387" data-name="Rectangle 387" class="cls-13" width="12.446" height="3.158" transform="translate(6.165 70.173) rotate(-6.131)"/>
            <rect id="Rectangle_388" data-name="Rectangle 388" class="cls-13" width="12.446" height="3.158" transform="translate(0.406 17.428) rotate(-6.131)"/>
            <path id="Path_1315" data-name="Path 1315" class="cls-13" d="M409.986,117.7h-.557a1.04,1.04,0,0,0-.929,1.115l3.158,28.979a1.04,1.04,0,0,0,1.115.929h.557a1.04,1.04,0,0,0,.929-1.115L411.1,118.629C411.1,118.072,410.729,117.7,409.986,117.7Z" transform="translate(-403.135 -83.148)"/>
            <path id="Path_1316" data-name="Path 1316" class="cls-13" d="M411.929,116.9h-.372c-.372,0-.557.372-.557.743l3.344,30.836c0,.372.372.557.743.557h.371c.372,0,.557-.372.557-.743l-3.344-30.836C412.672,117.086,412.3,116.9,411.929,116.9Z" transform="translate(-400.991 -83.834)"/>
          </g>
          <path id="Path_1317" data-name="Path 1317" class="cls-18" d="M412.174,146.089l-5.016,6.316-5.759-7.988,3.529-6.13s-3.529-16.161,2.6-19.319c4.644-2.229,6.873-2.6,8.359-3.715,4.644-2.972,6.13,3.344-5.2,8.545C410.874,123.8,418.49,135.315,412.174,146.089Z" transform="translate(-137.098 -5.839)"/>
          <path id="Path_1318" data-name="Path 1318" class="cls-37" d="M421.118,139.952s4.83-2.043,2.229-6.687c0,0,6.316-2.229,1.858-6.687,0,0,4.458-3.529-.557-5.944,0,0,3.715-6.13-3.158-6.13-6.873-.186-12.818,3.529-12.818,7.43,0,2.972,4.458,0,12.446-1.672,0,0-12.818,2.415-12.818,4.83.372,4.458,7.43,2.043,13.746,2.229,0,0-12.26-.186-11.889,2.786s12.446,3.529,12.446,3.529-10.96-2.043-11.517-.743C409.6,135.68,421.118,139.952,421.118,139.952Z" transform="translate(-131.181 -5.832)"/>
          <path id="Path_1319" data-name="Path 1319" class="cls-38" d="M397.7,137.017l8.731-8.917a92.6,92.6,0,0,1,8.917,7.8l-6.13,8.731Z" transform="translate(-140.271 5.834)"/>
          <path id="Path_1320" data-name="Path 1320" class="cls-16" d="M343.332,139.976c.743,1.672,13.375,36.967,36.038,49.413,25.449,13.932,60,12.26,81.735-26.007a56.333,56.333,0,0,0-9.66-9.288s-23.22,17.647-43.654,10.4c-22.291-7.988-26.564-24.335-32.323-36.967-7.43-15.975-15.047-25.635-28.793-21.363-12.26,3.715-8.174,38.638-8.174,38.638" transform="translate(-191.602 -13.844)"/>
          <path id="Path_1321" data-name="Path 1321" class="cls-39" d="M313.395,134.153s4.83-1.115,4.458-12.818c0,0-10.217,0-12.26-7.43s-2.043-24.335-1.858-34.737c0,0-.743-5.759,7.059-9.845,7.8-3.9,27.679-5.387,30.465,1.486,2.786,7.059,2.6,19.5,2.6,19.5s2.972-6.13,9.845-4.644c7.059,1.486,3.529,24.149-9.1,15.976,0,0-3.158,27.307,3.344,31.394l-17.833,17.833Z" transform="translate(-220.923 -47.402)"/>
          <path id="Path_1322" data-name="Path 1322" class="cls-10" d="M353.2,74.576S351.34,56,337.036,56C321.06,56,322.547,67.331,310.1,67.7c-25.264.557-12.075,31.022,8.359,13.932,5.759-4.83,19.877-7.988,27.678-.929V90.18s.186,7.43,3.158,3.529V99.1s-.186,2.786,1.115,2.786.929-4.644.929-4.644,2.972-2.972,5.387-3.344a43.082,43.082,0,0,1,2.6-5.759C364.343,79.406,356.541,73.09,353.2,74.576Z" transform="translate(-227.288 -56)"/>
          <path id="Path_1323" data-name="Path 1323" class="cls-32" d="M311.1,89.173A42.924,42.924,0,0,0,321.317,83.6" transform="translate(-214.541 -32.33)"/>
          <path id="Path_1324" data-name="Path 1324" class="cls-32" d="M311.974,77.9a16.763,16.763,0,0,1-2.415,6.5c-1.486,2.229-.929,3.715,2.415,5.016" transform="translate(-216.53 -37.218)"/>
          <g id="Group_1106" data-name="Group 1106" transform="translate(103.061 39.109)">
            <path id="Path_1325" data-name="Path 1325" class="cls-33" d="M315.343,77.14c-.743.372-.743,1.3-.743,2.043a9.815,9.815,0,0,0,.186,2.415c.372.929,1.672,1.115,1.858,0,.371-.929.557-5.2-1.3-4.458Z" transform="translate(-314.6 -77.054)"/>
          </g>
          <g id="Group_1107" data-name="Group 1107" transform="translate(90.346 39.137)">
            <path id="Path_1326" data-name="Path 1326" class="cls-33" d="M308.767,77.127a1.886,1.886,0,0,0-.929,1.858,12.169,12.169,0,0,0,0,2.6.946.946,0,0,0,1.858,0,15.013,15.013,0,0,0,.186-2.972c.186-.372-.186-1.858-1.115-1.486Z" transform="translate(-307.756 -77.068)"/>
          </g>
          <path id="Path_1327" data-name="Path 1327" class="cls-16" d="M371.936,103.557,360.79,103l.743,5.573-14.675,11.146L329.4,107.087,331.069,103l-12.446.557s-23.592,1.115-32.323,4.83l6.5,47s5.387,72.819,8.173,96.039a51.828,51.828,0,0,0,28.793.186l-.186-14.675h31.765v14.489c15.79,4.458,29.536-21.734,29.536-21.734,2.786-23.22,7.059-76.162,7.059-76.162l6.5-45.14C395.528,104.672,371.936,103.557,371.936,103.557Z" transform="translate(-235.81 -15.692)"/>
          <path id="Path_1328" data-name="Path 1328" class="cls-39" d="M289.963,175.6s4.087,2.786,10.217,7.245c6.13,4.273,3.529,16.347,2.786,22.291s-2.972,19.319-3.9,23.034-3.529,3.9-2.972-3.715c.557-7.43.929-9.474.929-9.474s-4.644,10.588-5.944,12.818-3.9,0-.186-9.66l3.715-9.66s-9.288,6.316-12.632,7.988c-3.344,1.486-1.858-2.786,1.3-5.759s7.988-6.687,7.988-6.687-.929-11.889.557-15.6l-6.873-3.9Z" transform="translate(-241.145 46.571)"/>
          <path id="Path_1329" data-name="Path 1329" class="cls-38" d="M291.232,173.8l6.5,6.13a62.494,62.494,0,0,0-5.944,10.96L278.6,182.345Z" transform="translate(-242.414 45.027)"/>
          <path id="Path_1330" data-name="Path 1330" class="cls-40" d="M320.6,106.4s-20.991,3.715,4.087,21.734c0,0,17.647-20.434,2.786-20.991l-3.158,5.2Z" transform="translate(-213.451 -12.776)"/>
          <path id="Path_1331" data-name="Path 1331" class="cls-41" d="M324.959,120.33l-1.3-7.43h-6.687l-.371,7.059Z" transform="translate(-209.824 -7.202)"/>
          <path id="Path_1332" data-name="Path 1332" class="cls-9" d="M325.045,107.286l-7.43-.186-2.415,6.873,3.158,4.644h6.687l3.158-4.644Z" transform="translate(-211.025 -12.176)"/>
          <path id="Path_1333" data-name="Path 1333" class="cls-38" d="M303.7,103.643s14.489,24.706,28.793,33.994c0,0,13.932-10.031,22.849-33.994a8.95,8.95,0,0,0-7.059,0s-6.687,15.232-16.533,25.264c0,0-17.462-19.877-20.62-25.635A14.8,14.8,0,0,0,303.7,103.643Z" transform="translate(-220.887 -15.778)"/>
          <path id="Path_1334" data-name="Path 1334" class="cls-12" d="M320.4,113.218,330.617,99.1s2.786,5.944,6.687,6.873l-8.731,26.192Z" transform="translate(-206.565 -19.037)"/>
          <path id="Path_1335" data-name="Path 1335" class="cls-12" d="M325.548,112.575,315.331,99.2s-4.83,6.873-8.731,6.873l11.7,26.192Z" transform="translate(-218.4 -18.951)"/>
          <path id="Path_1336" data-name="Path 1336" class="cls-41" d="M324.053,322.9s.557,9.66,0,14.675S299.9,354.851,285.6,358.009c0,0,21.363-16.347,24.521-22.291a32.822,32.822,0,0,0,3.344-12.818Z" transform="translate(-236.41 172.898)"/>
          <path id="Path_1337" data-name="Path 1337" class="cls-41" d="M330.114,322.9s-.557,9.66,0,14.675,24.149,17.276,38.453,20.434c0,0-21.363-16.347-24.521-22.291A32.821,32.821,0,0,1,340.7,322.9Z" transform="translate(-198.446 172.898)"/>
          <path id="Path_1338" data-name="Path 1338" class="cls-13" d="M385.138,182.26V171.3H293v10.96s.743,225.7,6.5,278.271c0,0,12.446,3.344,20.434,0,0,0,9.288-144.894,13.932-245.02h12.075c4.644,99.94,13.932,245.02,13.932,245.02,7.988,3.344,20.434,0,20.434,0C385.324,407.96,385.138,182.26,385.138,182.26Z" transform="translate(-230.064 42.883)"/>
          <path id="Path_1339" data-name="Path 1339" class="cls-16" d="M310.725,105.8c-9.1,3.158-36.038,22.663-46.626,49.97-11.517,29.35-4.644,68.36,37.524,88.98a50.048,50.048,0,0,1,6.5-12.632s-14.675-19.133-17.647-32.508c-4.272-18.762,4.273-41.425,26.007-46.44" transform="translate(-259.12 -13.291)"/>
          <g id="Group_1108" data-name="Group 1108" transform="translate(101.545 30.607)">
            <path id="Path_1340" data-name="Path 1340" class="cls-10" d="M315.3,77.536c1.115-.186,2.229-.557,3.529-.743a23.686,23.686,0,0,0,3.529.186c1.115-.186,2.415-1.486,1.486-2.6-1.3-1.672-3.158-2.043-5.2-1.858-1.672.186-3.9.929-4.644,2.6-.557,1.115,0,2.6,1.3,2.415Z" transform="translate(-313.784 -72.477)"/>
          </g>
          <g id="Group_1109" data-name="Group 1109" transform="translate(87.388 32.871)">
            <path id="Path_1341" data-name="Path 1341" class="cls-10" d="M311.619,77.234a8.373,8.373,0,0,1-1.858-2.6,1.935,1.935,0,0,0-3.529,1.486,4.8,4.8,0,0,0,4.83,3.529,1.291,1.291,0,0,0,.557-2.415Z" transform="translate(-306.163 -73.695)"/>
          </g>
          <path id="Path_1342" data-name="Path 1342" class="cls-32" d="M333.387,78.7s-5.573-.557-6.687,8.545" transform="translate(-201.162 -36.535)"/>
          <path id="Path_1343" data-name="Path 1343" class="cls-32" d="M333.059,81.707a6.279,6.279,0,0,0-5.759-.743" transform="translate(-200.648 -34.896)"/>
          <path id="Path_1344" data-name="Path 1344" class="cls-10" d="M321.544,176.472a2.972,2.972,0,1,0-2.972,2.972A2.934,2.934,0,0,0,321.544,176.472Z" transform="translate(-210.682 44.77)"/>
          <path id="Path_1345" data-name="Path 1345" class="cls-16" d="M292.6,167.3h93.624l-.743,7.43H293.157Z" transform="translate(-230.407 39.453)"/>
        </g>
        <g id="Group_1114" data-name="Group 1114" transform="translate(0 444.823)">
          <g id="Group_1111" data-name="Group 1111" transform="translate(53.74 51.456)">
            <path id="Path_1346" data-name="Path 1346" class="cls-10" d="M29.618,350.321s-9.845-45.7,44.954-83.221Z" transform="translate(-28.93 -267.1)"/>
            <path id="Path_1347" data-name="Path 1347" class="cls-14" d="M29.2,350.521s44.4-18.39,44.954-83.221Z" transform="translate(-28.698 -266.928)"/>
          </g>
          <g id="Group_1112" data-name="Group 1112" transform="translate(0 51.456)">
            <path id="Path_1348" data-name="Path 1348" class="cls-14" d="M44.954,350.321S54.8,304.624,0,267.1Z" transform="translate(0 -267.1)"/>
            <path id="Path_1349" data-name="Path 1349" class="cls-10" d="M45.054,350.521S.657,332.131.1,267.3Z" transform="translate(0.086 -266.928)"/>
          </g>
          <g id="Group_1113" data-name="Group 1113" transform="translate(30.011)">
            <path id="Path_1350" data-name="Path 1350" class="cls-10" d="M35.557,370.734s-43.654-50.527,0-131.334Z" transform="translate(-16.156 -239.4)"/>
            <path id="Path_1351" data-name="Path 1351" class="cls-14" d="M26.6,371.134s43.654-50.527,0-131.334Z" transform="translate(-7.198 -239.057)"/>
          </g>
          <path id="Path_1352" data-name="Path 1352" class="cls-13" d="M5.8,306.6H85.12s0,62.044-39.753,62.044S5.8,306.6,5.8,306.6Z" transform="translate(4.974 -181.768)"/>
        </g>
      </g>
    </g>
  </g>
</svg>
